<?xml version="1.0" encoding="UTF-8"?>
<svg xmlns="http://www.w3.org/2000/svg" version="1.1" viewBox="0 0 850.9 181.8">
  <defs>
    <style>
      .cls-1 {
        fill: #fff;
      }
    </style>
  </defs>
  <!-- Generator: Adobe Illustrator 28.7.4, SVG Export Plug-In . SVG Version: 1.2.0 Build 166)  -->
  <g>
    <g id="katman_1">
      <g>
        <path class="cls-1" d="M176.4,2.8H6.3c-2.1,0-3,.6-3,3v113.2c0,1.9.6,3.1,1.8,4.3,18.3,18.3,36.2,36.5,54.5,54.8,1.5,1.5,3.1,2.1,5.2,2.1h111.4c2.4,0,3.3-.6,3.3-3.3v-84.9c0-28.6,0-57.5-.1-85.9,0-2.4-.3-3.3-3-3.3ZM136.5,79.6c-.9,7.3-4.6,12.8-11.9,15.2-.8,0-1.1.3-1.1.3,10,5.8,12.2,13.4,9.4,22.8-3,11-10.3,16.7-21.3,17.3-4.3.3-8.2,0-12.2-.9-2.4-.6-3.7-.3-4,2.4-.6,4-1.8,7.6-2.7,11.6-.3,1.8-.9,2.4-3,1.8-2.4-.9-6.1-.3-7.3-2.4-1.2-1.8.9-4.9,1.2-7.6.6-2.4,1.2-4.9,1.8-7,.3-1.5,0-2.1-1.5-2.4q-6.1-1.8-7.6,4.3c-.9,3-1.5,6.1-2.1,9.4-.3,1.5-.9,1.8-2.1,1.2h-.3c-2.7-.6-6.4-.6-7.6-2.4-1.5-1.5.6-4.9,1.2-7.6.6-2.4.9-4.6,1.8-6.7.6-1.8,0-2.4-1.5-2.7-5.5-1.2-11-2.7-16.4-4-1.5-.3-1.8-.9-1.2-2.4,1.2-2.7,2.4-5.5,3.7-8.2.6-1.5,1.5-1.5,2.7-1.2,1.8.6,3.7.9,5.8,1.2,2.4.6,4-.6,4.6-3,3.7-14.9,7.6-29.8,11.3-44.7.6-3-.6-5.5-3.7-6.4-2.1-.6-4.3-1.2-6.1-1.5-1.8-.3-2.1-1.2-1.5-2.7.9-2.7.6-6.7,2.4-8.2s5.5.9,8.2,1.5c3.3.6,6.4,1.5,9.7,2.4,1.8.3,2.4.3,3-1.8.9-4.3,2.1-8.5,3-12.8.3-1.5.9-1.8,2.4-1.5,2.7.9,6.4.6,7.9,2.4,1.2,1.8-.9,5.2-1.5,7.6-.6,2.1-.9,4.6-1.8,6.7-.3,1.2,0,1.5,1.2,2.1q6.4,2.1,7.9-4.3c.6-3,1.5-5.8,2.1-8.8s.9-1.8,2.1-1.2c2.7.9,6.4.6,7.9,2.4s-.9,5.2-1.2,7.6c-.6,2.7-2.4,6.1-1.8,8.5.6,2.1,4.9,2.4,7.3,3.7,1.5.9,3,1.5,4.3,2.4,6.4,4.3,9.4,10,8.5,17.6Z"/>
        <path class="cls-1" d="M531.1,106.1V6.3c0-1.8-.3-2.4-2.4-2.4-3.3.3-6.4.3-9.7,0-2.4-.3-2.7.6-2.7,2.7v58.4c-.9-.6-.9-1.6-1.3-2-4.9-18.9-10-37.4-14.9-56.3-.3-1.8-1.2-2.4-3-2.4-5.2.3-10.3.3-15.5,0-2.4,0-2.7.6-2.7,2.7v99.4c0,2.1.3,3,2.7,2.7,3-.3,6.1-.3,9.1,0,2.4.3,3-.6,3-3V34.9c.9.9.9,1.8,1.2,2.7,6.1,22.9,12.5,46,18.6,69.1.3,2.1,1.2,2.4,3,2.4,4,0,7.9-.3,11.6,0,2.4,0,3-.6,3-3Z"/>
        <path class="cls-1" d="M245.9,91.5c1.2-5.8.9-12.2.6-18.3-.3-8.5-2.8-16.1-11.9-20.1,5.8-3,8.5-7.9,10.1-14.2.9-5.2.9-10,.3-15.2-1.5-13.1-6.7-18.3-19.8-19.8-8.9-.9-17.7,0-26.5-.3-2.4,0-2.7.6-2.7,2.7v100.1c0,1.2-.3,2.4,1.8,2.4,9.4-.3,18.9,0,28.3-.3,10.7-.3,17.7-6.7,19.8-17ZM212.1,32.7v-11.6c0-1.5.3-2.4,2.1-2.1,2.1.3,4.3,0,6.4,0,4.3,0,6.7,2.1,7.3,6.1.9,4.9.9,9.7,0,14.6-.9,4.3-3.3,6.7-7.9,7q-7.9.6-7.9-7.3v-6.7ZM214.2,94.2c-1.2,0-1.8-.3-1.8-1.5v-28.9c0-1.2.3-1.8,1.5-1.5h7.3c5.2.3,7.9,2.7,8.5,7.9.3,2.7.3,5.7.6,8.8,0,2.7,0,5.5-.3,8.2-.6,4.6-2.7,6.7-7.3,7-2.7.3-5.8,0-8.5,0Z"/>
        <path class="cls-1" d="M439.1,97.9c1.8-4,2.7-8.2,2.7-12.5v-28.6c0-9.8.3-19.5-.6-29.3-.3-14.3-7.6-22.8-21-24.3-14.6-1.5-27.7,4.2-28.3,22.8-.6,20.4-.3,40.8,0,61.2.3,9.4,4.3,17.6,14,21.3,7.3,2.7,14.6,2.4,21.6,0,5.5-1.8,9.2-5.4,11.6-10.6ZM425.4,56.8v27.4c0,1.5,0,3-.3,4.6-.9,4.3-3.7,6.4-7.9,6.4s-7-2.1-8.2-6.4c-.3-1.5-.3-2.7-.3-4.3V28.2c0-1.5,0-3,.6-4.6,1.2-4.3,3.7-6.1,8.2-6.1s6.7,2.1,7.9,6.1c.3,1.5.6,3.3.6,4.9-.6,9.7-.6,18.8-.6,28.3Z"/>
        <path class="cls-1" d="M384.9,71.5c0-1.5-.9-1.5-1.8-1.5-4,0-7.9.3-11.6,0-2.1-.3-2.4.6-2.4,2.4.3,4.9.3,9.7,0,14.6-.3,4.9-3,7.6-7.9,7.9-5.1.3-8.2-2.1-8.8-7.3-.3-1.3-.3-2.5-.3-3.7V29.1c0-1.6,0-3.4.3-4.9.6-3.4,2.8-5.5,5.8-6.1,6.3-1.2,10.3,2.1,10.6,8.2v11.6c0,1.2.3,1.8,1.8,1.8h11.9c1.2,0,1.8-.3,1.8-1.8,0-4,.3-7.6,0-11.3-.9-14.3-7.6-21.9-20.7-23.4-14-1.5-26.2,4.3-27.7,21.9-.9,10.4,0,21-.3,27.4,0,13.7-.3,23.1.6,33.2,0,1.3.3,2.8.3,4.3,1,10.7,7.4,18,18,20.1,3,.6,6.4.6,9.4.3,10.7-.9,17.7-7,20.1-17.3,1.5-7,.6-14.3.9-21.6Z"/>
        <path class="cls-1" d="M597.6,50.6c-3-3-6.4-6.1-9.1-9.4-4-4.8-5.8-10.3-4.9-16.4.6-4.9,3-7.3,7.9-7.3s7.3,2.7,7.9,7.6c.3,2.4-.9,5.8.9,7s4.9.3,7.3.3c2.1.3,4,0,5.9-.8,1.5,0,1.8-.6,1.8-2.1,0-3-.3-5.8-.6-8.5-1.2-9.8-7.3-16.5-16.4-18.6-4-.9-7.9-.9-12.2-.3-9.4,1.5-15.5,6.7-17.6,15.8-3,11.6-1.2,22.6,6.4,32.3,3.4,4.3,7,7.6,11,11.3,3.9,3.4,7.6,7,10.3,11.3,3,4.8,4.2,10.3,2.7,15.8-1.2,4-3.9,5.8-8.2,5.8s-7-2.1-7.9-6.1c-.9-3.3-.6-6.4-.6-9.7s-.3-2.1-1.8-2.1h-11.9c-1.2,0-1.8.3-1.8,1.8.3,3.3,0,6.7.3,10,1.2,11,7,18.3,16.1,20.4,5.2,1.2,10,1.5,15.2.3,7.9-1.5,13.1-6.1,15.5-14,3.3-11.2,2.1-22.2-4.6-31.9-3.4-4.9-7.3-8.5-11.6-12.5Z"/>
        <path class="cls-1" d="M671.7,17.2V5.6c0-1.5-.3-1.8-1.8-1.8h-47.2c-1.5,0-1.8.3-1.8,1.8v11.3c0,1.8.6,2.1,2.4,2.1h11.3q3.7,0,3.7,4v41.4c0,14,0,27.9,0,42.2,0,2.1.3,2.7,2.4,2.7,3.7-.3,7.3-.3,11,0,2.4,0,3-.9,3-3.3V22c0-2.1.3-2.7,2.7-2.7h12.5c1.5,0,1.8-.6,1.8-2.1Z"/>
        <path class="cls-1" d="M330.8,17.4V5.8c0-1.5-.6-1.8-1.8-1.8h-46.9c-1.8,0-2.1.6-2.1,2.1v10.6c0,1.8.3,2.4,2.4,2.4,4,0,8.2.3,12.2,0,1.8-.3,2.4.3,2.4,2.4v42.6c0,14,.3,28.2.2,42.4,0,2.1.9,2.7,3,2.7,3.6-.3,7-.3,10.3,0,2.4,0,3.3-.6,3.3-3.3V21.9c0-2.1.6-2.7,2.7-2.7h12.5c1.2,0,1.8-.3,1.8-1.8Z"/>
        <path class="cls-1" d="M740.5,105.9V5.8c0-.6.3-1.8-.3-1.8-1.9-.3-3.7-.3-5.2,0-1.2.3-.6,1.8-.6,2.7v80.6c0,.9.3,2.1-.6,3.3-.3-.9-.6-1.8-.9-2.7-9.1-26.2-18.6-52.6-27.7-78.8-2.1-5.5-2.1-5.2-7.9-5.5-2.7,0-3,.9-3,3.3v99.7c0,.6-.3,2.1.3,2.1,1.5.3,3.7.3,5.2,0,1.2-.3.6-1.8.6-2.7V20.5c0-.9-.3-2.1.3-3.3.3.9.6,1.8,1.2,1.9,9.7,28.3,19.8,56.6,29.5,84.9,1.5,4.6,1.5,4.3,6.4,4.6,2.1.3,2.7-.6,2.7-2.7Z"/>
        <path class="cls-1" d="M555,109.1c2.7.3,3-.6,3-3v-49.3c0-16.8,0-33.5,0-50.2,0-1.8-.6-2.4-2.4-2.4-4,.3-7.6.3-11.3,0-2.4-.3-3,.6-3,3v99.8c0,1.5.6,2.1,2.1,2.1,4,0,7.9-.3,11.6,0Z"/>
        <path class="cls-1" d="M467.9,106.4v-49.6c0-16.8,0-33.2-.1-50,0-2.4-.6-3-3-3-3.6.3-6.9.3-10.6,0-2.4-.3-3,.3-3,2.7v98.9c0,3.1,1,4,3.7,3.7,3.3-.3,6.7-.3,10,0,2.4.3,3-.3,3-2.7Z"/>
        <path class="cls-1" d="M269.3,4.4c-4,.3-7.6.3-11.3,0-2.1,0-2.4.6-2.4,2.4v99.8c-.3,2.1.6,2.7,2.7,2.7,4-.3,7.6-.3,11.3,0,2.1,0,2.4-.6,2.4-2.7v-50.2c0-16.4-.3-33.1.3-49,0-2.4-.6-3-3-3Z"/>
        <path class="cls-1" d="M789.8,106.3c0-2.4-.3-3.3-3-3.3h-28.3c-2.4,0-2.7-.9-2.7-3v-38.3c0-2.1.3-2.7,2.4-2.7,7.9,0,15.8-.3,23.7,0,3.3.4,2.4-1.8,2.4-3.3s.3-3-2.4-3h-23.7c-2.1,0-2.4-.6-2.4-2.7V12.9c0-1.8.3-2.4,2.4-2.4,9.7,0,19.5-.3,29.2,0,3,0,2.4-1.8,2.4-3.3s.6-3.3-2.4-3.3c-11.9.3-23.7,0-35.6,0s-3,.6-3,3v49.9c0,16.7,0,33.1-.3,50.1,0,1.8.6,2.4,2.7,2.4,11.9,0,23.7-.3,35.6,0,2.7,0,3-.9,3-3Z"/>
        <path class="cls-1" d="M847.5,7.5c-.3-1.9.6-3.7-2.7-3.7h-42.9q-4,0-4,4c0,2.1.6,2.4,2.4,2.4,5.2,0,10.6.3,15.8,0,2.4,0,3,.6,3,3v94.3c-.3,1.2.3,1.5,1.5,1.5h2.7c2.4.6,2.7-.6,2.7-2.7v-46.5c0-15.8,0-31.3.3-46.9,0-1.8.3-2.4,2.4-2.4,5.5,0,10.6-.3,16.1,0,2.4,0,3-.9,2.7-3Z"/>
        <path class="cls-1" d="M676.9,96.1c-2.4.3-3.9.6-3.3,3.3.3.9,0,2.1,0,3.3s0,1.2.3,2.2q0,4.9,4.9,4.6c1.5,0,1.8-.6,1.8-2.1,0-2.4-.3-5.2,0-7.6.3-3.1-.7-3.7-3.7-3.7Z"/>
        <path class="cls-1" d="M569,133.3c-1.2,0-1.5.6-1.5,1.5v1.2c-1.6,8.6-2.8,17.1-4.3,25.9-.9-.6-.9-1.5-.9-2.1-1.3-7.9-2.5-16.1-3.7-24-.3-.9,0-2.1-1.5-2.1-1.5-.3-1.5.9-1.5,1.8-1.3,8.9-2.8,17.4-4,25.9.3.9,0,1.8-.6,2.7-.6-.9-.3-1.8-.3-2.4,0,0,.1,0,.4,0,0-.3-.2-.6-.5-.9-.3-1.3-.3-2.5-.6-3.7-1.3-7.3-2.5-14.9-3.7-22.2,0-.6,0-1.8-1.2-1.8s-.9.3-.9.6c0,.9.3,1.5.3,2.4,1.6,9.4,3.1,19.2,4.6,28.6.3,1.2,0,2.4,2.1,2.4s1.5-1.5,1.8-2.4c.9-4.9,1.5-10,2.4-14.9.6-3,.9-6.1,2.1-9.4,1.6,8.5,2.8,16.4,4,24.3,0,1.2,0,2.4,1.8,2.4s1.2-1.2,1.5-2.1c.9-5.7,1.8-11.5,2.7-17.3.9-4.3,1.5-8.5,2.1-12.8,0-.6.3-1.2-.6-1.5Z"/>
        <path class="cls-1" d="M750.6,136.2v-1.8c0-.6-.3-.9-.9-.9s-.9.3-.9.9v26.4h-.1.1c-.3-.3-.3-.9-.6-1.3-2.7-7.9-5.8-16.1-8.5-24-.6-1.2-.9-2.1-2.4-2.1-1.8.3-1.2,1.5-1.2,2.4v29.2c0,.6-.6,2.1.9,2.1s.9-1.2.9-2.1v-24c0-.9.3-1.5.3-2.1,3.3,8.9,6.4,17.4,9.4,26.2.3,1.2.3,2.4,2.1,2.1,1.8-.3.9-1.5.9-2.4v-28.6Z"/>
        <path class="cls-1" d="M633.4,133.1c-.9,0-.9.9-.9,1.5v25.8c-.6-.3-.6-.9-.9-1.2-2.7-7.6-5.5-15.5-8.2-23.1-.6-1.2-.6-3-2.7-2.7-2.4.7-1.2,2.5-1.2,3.7v29.8c0,.6.3.9.9.9s.9-.3.9-.9v-27.7s.3,0,.6-.4c.9,3,2.1,5.8,3,8.8,2.1,6.1,4.3,11.9,6.4,18,.3.9.9,1.5,2.1,1.5.9-.3.9-.9.9-1.5v-31c0-.6,0-1.5-.9-1.5Z"/>
        <path class="cls-1" d="M416.5,136.8v-2.1c0-.6,0-.9-.9-.9s-.9.3-.9.9v26.4c-.9-.6-.9-1.2-.9-1.8-3-7.9-5.8-15.8-8.5-23.7-.3-1.2-.9-2.1-2.4-1.8-1.8.3-1.2,1.5-1.2,2.4v27.4c0,1.3-.9,4,1.2,4s.9-2.8.9-4v-24c.6.3.9.9,1.2,1.5,2.7,7.9,5.5,15.8,8.2,23.7.3,1.2.3,3.3,2.4,2.7,1.8-.3.9-2.1.9-3v-27.7Z"/>
        <path class="cls-1" d="M643.7,133.8h-3.3c-2.1-.3-2.7.3-2.7,2.4v14.3c0,3.3,0,6.7.2,10.1q0,7.3,7.3,7c4.3-.3,6.7-2.1,7.3-6.7.9-6.1.6-12.5.3-18.9s-2.7-8.2-9.1-8.2ZM650.8,159.3c0,5.2-5.2,8.2-9.7,6.1-.9-.3-.6-1.2-.6-2.1-.3-4-.3-8.3-.3-12.8v-12.8c0-1.8.6-2.1,2.4-2.1,6.4,0,8.2,1.5,8.2,7.9v15.8Z"/>
        <path class="cls-1" d="M731.4,150.8v-15.5c0-.9.3-1.8-1.2-1.8-1.2.3-.9,1.2-.9,1.8v6.1c-.3,2.7,1.2,6.1-.6,7.6-1.5,1.5-4.9.3-7.6.6-1.8.3-2.4-.3-2.4-2.1v-11.6c0-.6.3-1.8-1.2-1.8s-1.2.6-1.2,1.5v30.7c0,.9,0,1.5,1.2,1.5,1.2-.3.9-1.2.9-1.8v-6.1c.3-2.7-.9-6.1.6-7.6,1.8-1.8,5.2-.3,7.9-.6,1.5,0,2.1.3,2.1,2.1v11.6c0,.9-.6,2.1,1.2,2.1s1.2-1.2,1.2-2.1v-14.6Z"/>
        <path class="cls-1" d="M479.2,157.8c0-2.7-1-5.2-4.3-6.4,2.2-1.2,3.7-2.5,4.3-4.8.7-8.8.7-14-10.3-13.1h-1.8c-1.2,0-1.8.3-1.8,1.8v30.4c0,.9,0,1.8,1.2,1.8,1.2-.3.9-1.2.9-1.8v-11.3c0-.9-.3-1.8,1.2-2.1,6.1-.6,8.5,1.5,8.5,7.3v3c0,1.3,0,2.5.3,3.7,0,.9.9,1.5,1.8,1.2,1.2-.3.3-.9.3-1.5-.6-2.7-.3-5.5-.3-8.2ZM467.6,150.4c-.6-.3-.6-.9-.6-1.5v-6c0-1.5.3-3,0-4.6-.3-2.4.9-3,3-2.7,2.4.3,5.2-.3,6.1,2.7,1.2,3.3,1.5,7-.3,10.3-.9,1.5-7,2.7-8.2,1.8Z"/>
        <path class="cls-1" d="M233.4,157.8c0-3.1-1-5.2-4-6.4,3.4-2.2,4-3.4,4.1-6.3,0-1.8.3-4,0-5.8-.3-3.4-2.4-5.5-6.1-5.8h-6.4c-1.2,0-1.5.6-1.5,1.8v30.4c0,.9,0,1.8,1.2,1.8,1.2-.3.9-1.2.9-1.8v-11.3c0-.9-.3-1.8,1.2-2.1,5.8-.6,8.5,1.5,8.5,7.3v4.3c0,.9,0,1.8.3,2.7s.9,1.2,1.8.9c1.2-.3.3-.9.3-1.5-.6-2.7-.3-5.5-.3-8.2ZM221.8,150.4c-.6-.3-.3-.9-.3-1.5v-6c0-1.2-.3-2.1,0-3,.3-1.5-1.2-3.7,1.2-4,3.7-.6,7.3.3,7.9,2.7.9,3,.9,6.1,0,9.1-.6,2.1-7.3,4.3-8.8,2.7Z"/>
        <path class="cls-1" d="M380.1,158.1c0-3-1-5.5-4.3-6.7,2.1-1.2,3.6-2.5,4-4.5,1-8.8,1-14.3-10-13.4h-2.1c-1.2,0-1.8.3-1.8,1.8v30.4c0,1.2,0,1.8,1.2,1.8,1.2-.3.9-1.2.9-1.8v-11.3c0-1.5.6-2.1,2.1-2.1,6.4,0,7.9,1.5,7.9,7.6s0,4.3.3,6.4c0,1.2.9,1.5,1.8,1.2,1.2-.3.3-.9.3-1.5-.6-2.7-.3-5.2-.3-7.9ZM369.1,150.5c-.9-.3-.6-.9-.6-1.5-.3-2.2-.3-4-.3-6.1v-4.3c-.3-2.4.6-3,3-3,5.5.3,7,1.5,7,7v2.1c0,4.6-4.9,7.6-9.1,5.8Z"/>
        <path class="cls-1" d="M361.8,158.1c0-3-1-5.5-4-6.7,4-3.1,5.5-8.8,3.7-13.4-1.8-4.3-5.7-4-9.4-4h-2.7c-1.5-.3-1.8.6-1.8,1.8v30.1c0,.6-.3,1.8,1.2,1.8s1.2-.9,1.2-1.8v-11.3c0-.9-.3-1.5.6-2.1,3.3-1.8,8.8.9,9.1,4.9v4c0,1.6.3,3.1.3,4.6s.6,1.8,1.8,1.5c1.5-.3.3-1.2.3-1.8-.6-2.4-.3-5.2-.3-7.6ZM350.2,150.6c-.6-.3-.6-.9-.6-1.5.3-2.3.3-4.1.3-6.2s-.3-2.1,0-3c.3-1.5-1.5-3.7,1.2-4.3,4.6-.6,7.3.6,8.2,3.7.6,2.4.6,5.2,0,7.6-.6,2.7-6.4,5.2-9.1,3.7Z"/>
        <path class="cls-1" d="M813.1,133.9c-3.7.6-6.1,3.3-6.1,7.9v12.8c0,3-.6,5.8.3,8.5.9,3.4,3,5.2,6.7,5.2s6.1-1.8,7-5.5c.6-3.3.3-6.9.3-10.6s-.3-1.5-1.2-1.5h-4c-.9,0-1.2.3-1.2.9s.6.9,1.2.9c3.9-.9,3.3,2.2,3.3,4.3v4.3c-.3,3.1-2.2,4.9-4.9,4.9s-4.6-1.9-4.9-5.2v-9.7c0-3.7-.3-7-.2-9.9.3-3.4,2.2-5.2,4.9-5.2s4.9,1.9,5.2,5.2v2.4c0,.6.3,1.2,1.2,1.2s.9-.6.9-1.2c1.2-5.7-2.7-10.3-8.5-9.7Z"/>
        <path class="cls-1" d="M343.1,133.1c-1.8,0-1.2,1.2-1.2,2.1v16.4c0,3,0,5.8-.3,8.8-.3,2.2-1.2,4-3.3,4.6-1.9.6-3.7.3-5.2-1.2s-1.5-3.1-1.5-4.9v-22.8c0-.9.9-2.7-1.2-2.7s-.9,1.8-.9,2.7v12.2c.3,4.3-.9,9.5.5,13.7.9,3.4,3.3,4.9,7,4.9s5.5-1.9,6.4-5.2c.3-1.3.6-2.8.6-4v-22.5c0-.6.6-2.1-.9-2.1Z"/>
        <path class="cls-1" d="M796.5,133.7c-4.6-.3-7.6,1.5-7.9,6.1-.6,7.3-.6,14.3,0,21.6.3,4.6,3.3,6.7,7.9,6.4,4,0,6.7-2.7,6.7-7.3v-9.7c0-3.7,0-7-.3-10.1,0-4.3-2.7-6.7-6.4-7ZM801.2,160.3c0,3.7-2.4,5.5-5.5,5.2-3,0-4.6-2.1-4.9-5.5v-19.2c.3-3.7,1.8-5.5,4.9-5.5s5.2,1.5,5.5,5.2c.3,6.7.3,13.4,0,19.8Z"/>
        <path class="cls-1" d="M762.5,133.4c-4.6-.3-7.6,2.1-7.9,6.7-.3,7-.3,14,0,21,.3,4.9,3.3,7,7.9,6.7,4-.3,6.7-3,6.7-7.6v-19.2c-.3-4.6-2.7-7.3-6.7-7.6ZM767,159.6c-.3,4-2.1,6.1-5.2,6.1s-5.2-2.1-5.2-6.1v-18.9c0-3.3,1.8-5.2,4.6-5.5,3-.3,5.2,1.2,5.5,4.6.3,3.7,0,7.3.3,11v8.8Z"/>
        <path class="cls-1" d="M301.2,133.7c-4.6-.3-7.6,1.5-7.9,6.1-.6,7.3-.6,14.3,0,21.6.3,4.6,3.3,6.7,7.9,6.4,4,0,6.7-2.7,6.7-7.3v-9.7c0-3.7,0-7-.3-10.1,0-4.3-2.7-6.7-6.4-7ZM305.8,160.3c0,3.7-2.4,5.5-5.5,5.2-3,0-4.6-2.1-4.9-5.5-.3-3.2,0-6.2,0-9.5v-9.7c.3-3.7,1.8-5.5,4.9-5.5s5.2,1.5,5.5,5.2c.3,6.7.3,13.4,0,19.8Z"/>
        <path class="cls-1" d="M615,165.4c-2.1-10-4.3-19.8-6.4-29.5-.3-.9,0-2.4-2.1-2.4s-1.8,1.2-2.1,2.4c-2.1,10-4.3,19.8-6.4,29.5-.3.6-1.2,1.8.3,2.1,1.2.6,1.2-.6,1.5-1.5q1.5-5.8,7.6-5.8h1.8c1.8-.3,2.7.3,3,2.1.3,1.6.6,2.8.9,4.3.3.9.6.9,1.5.9s.9-.3.6-1.5c.3,0,0-.3-.2-.6ZM610.1,158.1h-8.5c1.5-7,3-14,4.6-20.7h.5c1.5,6.4,3,13.1,4.6,19.5.3,1.2-.3,1.2-1.2,1.2Z"/>
        <path class="cls-1" d="M207.2,133.5c-3.7.3-5.8,3-6.1,7.6v10.6c.3,3-.6,7.3.3,11.8.9,3.4,3,4.9,6.7,4.9s5.8-1.6,6.7-4.9c.6-2.1.6-4,.6-6.1s0-1.5-.9-1.5c-.9-.3-1.2.6-1.2,1.2-.3,1.6,0,3.1-.3,4.6-.3,2.8-2.2,4.3-4.9,4.3s-4.6-1.6-4.9-4.3c-.6-7.3-.6-14.6,0-21.9.3-2.8,2.4-4.3,5.2-4.3s4.3,1.6,4.6,4.3c.3,1.3.3,2.5.3,3.7s.3,1.2.9,1.2c.9,0,.9-.3,1.2-.9,1.5-5.7-2.4-10.6-8.2-10.3Z"/>
        <path class="cls-1" d="M319.8,133.8c-5.2-.9-8.2,1.8-8.5,7.3-.3,3,0,6.3,0,10.6.3,3-.6,7,.3,11.5.9,3.1,3.1,4.9,6.4,4.9s5.8-1.3,7-4.3c.6-2.4.6-4.6.6-7s-.3-1.2-1.2-1.2-.9.6-.9,1.2c-.3,1.6,0,3.1-.3,4.6-.3,3.1-2.2,4.6-4.9,4.6s-4.6-1.9-4.9-4.6c-.3-7-.3-14.3,0-21.3.3-3.1,2.4-4.6,5.2-4.6s4.6,1.9,4.9,4.9v3.7c0,.6.3.9.9.9s.9,0,1.2-.6c1.8-3.6-1.8-10-5.8-10.6Z"/>
        <path class="cls-1" d="M433.6,144.3c.3,0,.6-.3.9-.9,1.5-4.8-2.4-10.3-7.6-10.3s-7,2.7-7,7.9v15.5c0,2.1,0,4,.6,6.1,1.2,3.4,3.4,4.9,6.7,4.9,3.7.3,6.1-1.6,7-4.6.6-2.1.6-4.3.6-6.4s-.3-1.2-1.2-1.2-.9.9-.9,1.5v3.7c-.3,3.4-2.2,5.2-4.9,5.2s-4.9-1.9-5.2-5.2v-10c0-3.4-.3-7,0-11.1,0-3.1,2.2-4.6,4.9-4.6s4.6,1.9,4.9,4.9v3.7c0,.6.6.9,1.2.9Z"/>
        <path class="cls-1" d="M706.2,135.5c2.8,0,4.3,1.6,4.6,4.3.3,1.3.3,2.5.3,3.7s.3,1.2.9,1.2.9,0,1.2-.6c1.8-4.2-1.8-10.3-6.4-10.6-4.9-.3-7.6,2.4-7.9,7.6v10.6c0,3-.6,7,.3,11.5.9,3.4,3,4.9,6.7,4.9s5.8-1.6,6.7-4.9c.6-2.1.6-4,.6-6.1s0-1.5-.9-1.5-1.2.6-1.2,1.5c0,1.6,0,3.1-.3,4.6-.6,2.8-2.2,4.3-4.9,4.3s-4.6-1.6-4.9-4.3c-.6-7.3-.6-14.6,0-21.9.3-2.8,2.4-4.3,5.2-4.3Z"/>
        <path class="cls-1" d="M259.8,133.5c-1.8.3-2.4.6-2.4,2.4v14.9c0,5.1,0,10,.4,15,0,.9,0,1.8,1.2,1.8,1.2-.3.9-1.2.9-1.8,0-3,.3-5.8,0-8.8-.4-3.1.6-3.7,3.3-3.7,6.4.3,8.5-1.8,8.5-8.2,0-10.4-1.6-11.9-11.9-11.6ZM269.5,144.7c0,5.8-3,8.2-8.8,7-1.2-.3-1.2-.9-1.2-1.8v-6.4c0-1.5.3-3.3,0-4.9-.3-2.7.9-3.3,3.3-3,5.2.3,6.4,1.5,6.7,6.7v2.4Z"/>
        <path class="cls-1" d="M516.9,133.7c-.9-.3-1.5.3-1.5,1.2-.3.3-.3.9-.3,1.2-2.1,9.1-4,18.3-6.1,27.4q-.3,0-.3.6c-2.1-9.4-4-18.9-6.1-28.3-.3-.9-.3-1.8-1.5-1.8-1.5.3-.9,1.5-.6,2.1,2.1,9.7,4.3,19.8,6.4,29.8.3.9.6,1.8,2.1,1.8s1.8-.9,2.1-2.1c.3-2.1.9-4,1.2-5.8,1.9-8.2,3.4-16.1,5.2-24.3,0-.6.6-1.5-.6-1.8Z"/>
        <path class="cls-1" d="M580.9,133.8c-4.6-.3-7,1.5-7.9,5.8-.7,3.6.3,7,3,9.4,1.8,1.9,4,3.4,5.8,4.9,3,2.1,3.9,5.1,2.7,8.8-.6,2.4-2.5,3.3-4.9,3.3-2.5-.4-4-1.6-4.6-3.7-.3-.9-.3-2.1-.3-3.3s0-1.2-.9-1.2-.9.3-1.2.9c-1.2,4.5,2.4,9.1,7.3,9.1s5.2-1.5,6.1-3.8c1.6-3.7.9-8.3-2.1-11-1.5-1.6-3.4-2.8-5.2-4.3-1.2-1.3-2.7-2.5-3.3-4.3-1.5-3.9.3-8.5,4-8.8,3.1-.3,4.9,1.5,5.5,5.2.3.6-.3,1.8,1.2,1.8s.9-1.2.9-2.1c-.3-4-2.4-6.4-6.1-6.7Z"/>
        <path class="cls-1" d="M686.3,135.6h7c.9,0,1.8.3,1.8-.9s-1.2-.9-1.8-.9h-9.1c-1.8,0-2.4.6-2.4,2.4v14.3c0,4.8,0,9.7,0,14.7,0,1.5.3,2.1,2.1,2.1h9.7c.6,0,1.5.3,1.5-.9s-1.2-.9-1.8-.9h-7.3c-1.5.3-2.1-.3-2.1-1.8v-10.3c-.3-1.8.6-2.1,2.1-2.1h5.5c.9,0,1.5,0,1.5-.9s-.9-.9-1.5-.9h-6.1c-1.2,0-1.5-.6-1.5-1.8,0-3.3.3-6.7,0-10,0-1.8.6-2.1,2.4-2.1Z"/>
        <path class="cls-1" d="M396.4,133.8c-3,0-6.4.3-9.4,0-2.1-.3-2.4.6-2.4,2.4v14.3c0,4.8,0,10,0,15.6,0,1.8.6,2.1,2.1,2.1h9.7c.6,0,1.5,0,1.5-.9s-.6-1.2-1.5-1.2h-7.3c-1.5,0-2.1-.3-2.1-2.1v-10.3c0-1.5.6-1.8,2.1-1.8h5.2c.6,0,1.8.3,1.8-1.2s-1.2-.9-1.8-.9h-5.5c-1.2,0-1.8-.3-1.8-1.8v-10.3c0-1.5.6-1.8,1.8-1.8h7.6c.6,0,1.5,0,1.5-.9.3-1.2-.9-1.2-1.5-1.2Z"/>
        <path class="cls-1" d="M538.8,133.5h-9.4c-1.8,0-2.4.6-2.4,2.4v14.6c0,5.1,0,10,0,15,0,1.5.3,2.1,1.8,2.1h10c.6,0,1.5,0,1.5-.9s-.6-1.2-1.5-1.2h-7.6c-1.2,0-1.8-.3-1.8-1.8v-10.6c0-1.5.6-1.8,2.1-1.8h5.8c.6,0,1.2-.3,1.2-1.2s-.6-.9-1.2-.9h-6.1c-1.5,0-1.8-.3-1.8-1.8v-10c-.3-1.8.6-2.1,2.1-2.1h7.3c.6,0,1.5,0,1.5-.9.3-1.2-.9-.9-1.5-.9Z"/>
        <path class="cls-1" d="M487.5,135.5h7.3c.6,0,1.8.3,1.8-.9s-1.2-.9-1.8-.9h-4.6c-1.9,0-3.4,0-4.5-.2-1.8,0-2.4.6-2.4,2.4v29.5c0,1.5.3,2.1,1.8,2.1h9.7c.6,0,1.8.3,1.8-.9s-.9-1.2-1.8-1.2h-7.3c-1.2,0-1.8-.3-1.8-1.8v-10.6c0-1.5.3-1.8,1.8-1.8h5.8c.6,0,1.5,0,1.5-.9.3-1.2-.9-.9-1.5-.9h-5.5c-1.5,0-2.1-.3-2.1-1.8v-10c-.3-1.5.3-2.1,1.8-2.1Z"/>
        <path class="cls-1" d="M253.1,133.8c-1.5-.3-1.5.9-1.8,1.8-1.8,4.8-3.7,10-5.8,15.8-1.5-4.3-2.7-7.9-4.9-11.5-.6-1.9-1.2-3.4-1.8-5.2,0-.9-.9-1.2-1.5-.9-.9.3-.6.9-.3,1.5s.6,1.5.9,2.1c3.1,9.1,7.6,17.7,6.1,27.7,0,.9-.6,2.4,1.2,2.4s1.2-1.5,1.2-2.4c-.6-7.6,1-14.6,4-21.6,1.2-2.1,1.8-4.9,2.7-7.3.3-.9,1.5-1.8,0-2.4Z"/>
        <path class="cls-1" d="M840,133.8c-.9-.3-1.2.3-1.5.9-.3.6-.6,1.5-.9,2.1-1.5,4.6-3.4,9.4-5.2,14.6-2.1-5.8-3.9-10.7-5.8-15.2-.3-1.2-.3-2.7-1.8-2.1-1.5.6,0,1.8,0,2.7s.3.9.6,1.5c3.1,8.8,7.3,17.7,5.8,27.4,0,.6-.6,2.1,1.2,2.1s1.2-1.5,1.2-2.4c-.9-7.9,1-15.2,4-22.2.9-2.4,1.8-5.2,2.7-7.6.3-.6.6-1.5-.3-1.8Z"/>
        <path class="cls-1" d="M453,133.8c-1.5-.3-1.5.9-1.8,1.8-1.8,5.2-3.7,10-5.8,15.8-1.2-4-2.4-7.6-4-10.9-.9-1.8-1.5-3.7-2.1-5.5-.3-.9-.6-1.5-1.8-1.2-1.2.3-.6,1.2-.3,1.8s.6,1.5.9,2.1c3.4,8.8,7.6,17.7,6.1,27.4,0,.9-.6,2.4,1.2,2.4s1.2-1.5,1.2-2.4c-.6-7.6,1-14.6,4-21.6,1.2-2.1,1.8-4.9,2.7-7.3,0-.9,1.2-1.8-.3-2.4Z"/>
        <path class="cls-1" d="M288,133.8h-10.6c-1.2,0-3.3-.6-3.3.9s2.5.9,3.7.9c2.1-.3,3,.3,3,2.7v13.1c0,4.5,0,9.1-.1,14.6,0,.9-.6,2.1,1.2,2.1,1.5-.3.9-1.5.9-2.4v-24c0-1.8-.9-4.3.3-5.5,1.2-.9,3.4-.3,4.9-.3s1.5,0,1.5-.9c.3-1.2-.9-1.2-1.5-1.2Z"/>
        <path class="cls-1" d="M676.9,133.8h-10.3c-1.2.3-3.3-.6-3.3.9s2.5.9,3.7.9c2.4-.3,3,.6,3,3v12.8c0,4.5,0,9.1-.1,13.7,0,.9-.6,2.4,1.2,2.4s.9-1.2.9-2.1v-24q0-5.2,5.2-5.8c.6,0,1.5.3,1.5-.9s-1.2-.9-1.8-.9Z"/>
        <path class="cls-1" d="M783.7,165.4c-1.5,0-3.4-.3-5.2,0-2.4.3-3.3-.3-3.3-3,.3-8.9,0-17.7,0-26.5s.3-2.1-1.2-2.1-1.2,1.2-1.2,2.1v14.6c0,4.8,0,10,.3,14.6,0,1.5.3,2.1,2.1,2.1h8.8c.6,0,1.8.6,1.8-.9-.3-1.2-1.2-.9-2.1-.9Z"/>
        <path class="cls-1" d="M523.6,135.9c0-.9.6-2.1-1.2-2.1s-1.2,1.2-1.2,2.1v14.9c0,4.8,0,9.7.3,14.6,0,.9-.3,2.1,1.2,2.1s.9-1.2.9-1.8v-29.8Z"/>
        <path class="cls-1" d="M551.6,161.4c-.2.1-.4.2-.5.2,0,.3,0,.6-.2.9,0,.4,0-.5.7-1.1Z"/>
        <path class="cls-1" d="M551,164.1c.6-.9.9-1.8.6-2.7-.6.6-.6,1.5-.7,1.1.1-.3.2-.6.2-.9-.2,0-.4,0-.4,0,0,.6-.3,1.5.3,2.4Z"/>
        <path class="cls-1" d="M107.2,101.5c-5.8-3.7-12.5-5.2-18.9-6.7-1.5-.3-1.5.6-1.8,1.5-1.9,6.1-3.4,12.5-4.9,18.9-.6,1.2,0,1.8,1.2,2.1,5.5,1.5,10.6,2.7,16.1,3h5.3c5.1-.9,8.5-4.2,8.8-9.4.3-4.2-2.5-7.3-5.8-9.4Z"/>
        <path class="cls-1" d="M112.6,70c-4.8-4-10.9-4.9-16.7-6.4-1.2-.3-1.5.3-1.8,1.2-1.6,5.7-2.8,11.2-4.3,17-.3,1.5-.3,2.1,1.2,2.4,4.3,1.2,8.5,2.4,13.7,2.4,1.5.3,3.3,0,5.4-1.1,3.4-1.2,5.2-3.7,5.8-7,.7-3.3-.6-6.4-3.3-8.5Z"/>
      </g>
    </g>
  </g>
</svg>