<svg xmlns="http://www.w3.org/2000/svg" xmlns:xlink="http://www.w3.org/1999/xlink" width="38.429" height="38.996" viewBox="0 0 38.429 38.996"><defs><clipPath id="a"><path d="M0,0H38.429V39H0Z" fill="#405CAC"/></clipPath></defs><path d="M0,0H38.027V38.027H0Z" transform="translate(0.078 0.485)" fill="none"/><g clip-path="url(#a)"><path d="M33.409,23.3a2.053,2.053,0,0,1-2.094.141,3.1,3.1,0,0,1-1.189-2.856v-4.28a6.475,6.475,0,0,0-.148-1.422,4.337,4.337,0,0,0-.428-1.155,2.987,2.987,0,0,0-.683-.844,2.513,2.513,0,0,0-2.522-.422A4.132,4.132,0,0,0,25,13.348a8.455,8.455,0,0,0-1.039,1.209c-.29.4-.522.777-.688,1.042l-4.062,6.582V14.149a6.638,6.638,0,0,0-.139-1.249,3.659,3.659,0,0,0-.346-.968,2.291,2.291,0,0,0-.55-.682,2.082,2.082,0,0,0-.753-.394,2.109,2.109,0,0,0-.629-.087,2.055,2.055,0,0,0-.732.149,2.733,2.733,0,0,0-.8.5,4.828,4.828,0,0,0-.823.98L5.341,27a16.063,16.063,0,0,1-1.826-7.5A15.819,15.819,0,0,1,19.2,3.547,15.842,15.842,0,0,1,34.92,19.5v.091a3.969,3.969,0,0,1-1.506,3.716Zm5.021-3.8v-.086A19.39,19.39,0,0,0,19.2,0,19.378,19.378,0,0,0,0,19.5,19.362,19.362,0,0,0,19.2,39,18.981,18.981,0,0,0,32.26,33.8a1.786,1.786,0,0,0,.089-2.509,1.722,1.722,0,0,0-2.437-.122h0a15.516,15.516,0,0,1-21.95-.575l-.108-.114-.107-.116-.106-.117-.1-.118,8.184-13.161V23.04a7.883,7.883,0,0,0,.192,1.841,4.02,4.02,0,0,0,.494,1.22,2.584,2.584,0,0,0,.67.724,2.368,2.368,0,0,0,.722.352,2.32,2.32,0,0,0,.8.091,2.533,2.533,0,0,0,.947-.254,3.934,3.934,0,0,0,1.056-.769,7.718,7.718,0,0,0,1.122-1.454L26.24,17.48q.053-.088.1-.17t.1-.158l.1-.147.093-.137v3.721a6.519,6.519,0,0,0,3.012,5.979,5.523,5.523,0,0,0,5.628-.226A7.473,7.473,0,0,0,38.408,19.5Z" transform="translate(0)" fill="#405CAC"/></g></svg>