<svg xmlns="http://www.w3.org/2000/svg" xmlns:xlink="http://www.w3.org/1999/xlink" width="190.281" height="160.265" viewBox="0 0 190.281 160.265"><defs><clipPath id="a"><rect width="190.281" height="160.265" fill="none"/></clipPath></defs><g clip-path="url(#a)"><path d="M16.069,47c18.448-6.386,39.97.32,41.682,9.983C59.675,67.848,48.283,76.1,30.382,77.36,15.135,78.431,2.239,73.511,1.035,63.768-.063,54.877,5.35,48.6,16.069,47" fill="#ffe200"/><path d="M31.381,43.6a43.458,43.458,0,0,1,18.125,3.7c5.233,2.467,8.474,5.853,9.127,9.536a13.633,13.633,0,0,1-.2,5.858,14.238,14.238,0,0,1-2.6,5.171,23.888,23.888,0,0,1-10,7.057,49.766,49.766,0,0,1-15.387,3.337c-1.385.1-2.772.147-4.123.147-6.944,0-13.055-1.26-17.675-3.644-5-2.58-7.94-6.342-8.5-10.878a16.541,16.541,0,0,1,.4-6.5,13.377,13.377,0,0,1,2.9-5.325,16.2,16.2,0,0,1,5.207-3.818,25.7,25.7,0,0,1,7.2-2.108A47.6,47.6,0,0,1,31.381,43.6Zm-5.06,33.01c1.309,0,2.654-.048,4-.142,11.105-.779,19.888-4.318,24.1-9.71a11.743,11.743,0,0,0,2.454-9.614c-.548-3.094-3.434-6.016-8.127-8.228A41.641,41.641,0,0,0,31.381,45.39a46.445,46.445,0,0,0-15.019,2.46.9.9,0,0,1-.161.039C6.076,49.4.872,55.146,1.924,63.658c.485,3.922,3.093,7.21,7.544,9.506C13.834,75.418,19.662,76.609,26.321,76.609Z"/><path d="M25.585,70.809c-.973,0-1.95-.031-2.926-.1A27.932,27.932,0,0,1,8.341,65.89a.9.9,0,0,1,1.02-1.472c8.345,5.78,17.986,4.955,27.147,3.615a.9.9,0,1,1,.259,1.772A77.469,77.469,0,0,1,25.585,70.809Z"/><path d="M45.1,66.437a.9.9,0,0,1-.321-1.732,22.335,22.335,0,0,0,2.278-1.081c.468-.243.952-.495,1.439-.724a.9.9,0,1,1,.761,1.621c-.454.213-.9.445-1.373.691a24.014,24.014,0,0,1-2.464,1.164A.894.894,0,0,1,45.1,66.437Z"/><path d="M144.486,38.629c16.618-2.7,34.171,4.777,34.385,12.221.24,8.366-10.58,13.266-26.065,12.177-13.19-.928-23.591-6.082-23.36-13.528.212-6.8,5.658-10.888,15.04-10.87" fill="#ffe200"/><path d="M151.608,37.171a46.252,46.252,0,0,1,19.257,4.086,22.264,22.264,0,0,1,6.3,4.279,8.011,8.011,0,0,1,2.6,5.289,9.571,9.571,0,0,1-.694,3.914,10.379,10.379,0,0,1-2.2,3.308,18.4,18.4,0,0,1-8.032,4.481,41.4,41.4,0,0,1-11.85,1.547c-1.376,0-2.8-.051-4.245-.153-6.707-.472-12.775-2.045-17.084-4.43a16.158,16.158,0,0,1-5.234-4.333,8.9,8.9,0,0,1-1.874-5.687,10.769,10.769,0,0,1,4.43-8.672,14.825,14.825,0,0,1,4.959-2.29,25.163,25.163,0,0,1,6.475-.776A45.551,45.551,0,0,1,151.608,37.171Zm5.38,25.111c8.432,0,15.211-2,18.6-5.485a7.931,7.931,0,0,0,2.389-5.922c-.077-2.691-3.024-5.683-7.883-8a44.4,44.4,0,0,0-18.485-3.911,43.727,43.727,0,0,0-6.979.551.881.881,0,0,1-.145.012h-.06c-8.752,0-13.885,3.646-14.083,10-.2,6.475,9.063,11.659,22.528,12.607C154.268,62.232,155.654,62.282,156.988,62.282Z"/><path d="M155.032,56.635h-.02a52.459,52.459,0,0,1-10.343-1.283c-4.353-1.043-7.485-2.627-9.31-4.705a.75.75,0,1,1,1.127-.989c1.616,1.841,4.486,3.266,8.532,4.236a50.918,50.918,0,0,0,10.033,1.242.75.75,0,0,1-.019,1.5Z"/><path d="M170.321,48.718a.749.749,0,0,1-.639-.357,4.983,4.983,0,0,0-3.779-1.829.75.75,0,1,1,.1-1.5c1.631.108,3.909.838,4.957,2.539a.75.75,0,0,1-.638,1.144Z"/><path d="M101.613,2.613c20.119-3.087,25.173-2.068,26.631,3.5,1.637,6.26-5.209,11.745-16.428,13.492-9.556,1.488-17.867-.669-19.008-6.315-1.041-5.152,2.12-9.137,8.805-10.679" fill="#ffe200"/><path d="M118.293,0c3.462,0,5.868.447,7.573,1.406a6.7,6.7,0,0,1,3.244,4.483,8.049,8.049,0,0,1-1.148,6.6c-2.558,3.9-8.393,6.82-16.009,8.006a37.919,37.919,0,0,1-5.807.468,21.873,21.873,0,0,1-9.341-1.792,8.209,8.209,0,0,1-4.876-5.7,8.667,8.667,0,0,1,1.689-7.437,10.86,10.86,0,0,1,3.22-2.61,17.808,17.808,0,0,1,4.573-1.683l.065-.013A117.546,117.546,0,0,1,118.293,0ZM106.147,19.168a36.123,36.123,0,0,0,5.532-.446,32.081,32.081,0,0,0,9.356-2.8,13.711,13.711,0,0,0,5.43-4.414,6.222,6.222,0,0,0,.913-5.162c-.754-2.882-2.483-4.551-9.085-4.551a117.552,117.552,0,0,0-16.511,1.7c-6.1,1.416-9.046,4.922-8.1,9.622a6.414,6.414,0,0,0,3.9,4.44A20.112,20.112,0,0,0,106.147,19.168Z"/><path d="M107.03,15.594a29.575,29.575,0,0,1-7.2-.964.75.75,0,1,1,.38-1.451c2.029.531,7.222,1.62,11.6.265a.75.75,0,0,1,.443,1.433A17.8,17.8,0,0,1,107.03,15.594Z"/><path d="M112,116.394c4.8,10.143-8.476,22.523-28.819,29.484-7.03,1.965-11.341,3.518-17.56,3.7-2.354.07-7.448,0-9.575-.179a37,37,0,0,1-6.976-1.695c-5.293-1.437-9.1-3.961-10.6-7.525-1.1-2.558-4.283-6.41-3.6-9.356.722-3.108,5.416-5.316,8.358-8.185,5.347-5.216,14.719-9.369,24.307-13.164a87.335,87.335,0,0,1,14.681-2.744,66.732,66.732,0,0,1,7.747-.522c1.723.029,3.778.3,5.361.469,7.009.729,9.818-1.225,12.6,2.306.636.807,3.729,6.562,4.079,7.408" fill="#ffe200"/><path d="M89.44,105.207c.178,0,.357,0,.533,0,1.4.024,2.982.2,4.378.357.377.042.734.082,1.07.117a33.493,33.493,0,0,0,3.5.176c.8,0,1.522-.023,2.217-.046.584-.019,1.136-.037,1.655-.037a8.846,8.846,0,0,1,3.165.461,6.307,6.307,0,0,1,2.746,2.128,85.348,85.348,0,0,1,4.207,7.619,11.036,11.036,0,0,1,1.068,4.842,13.028,13.028,0,0,1-1.086,4.943c-1.674,3.963-5.3,8.011-10.5,11.7A74.869,74.869,0,0,1,83.5,146.824l-.055.017c-1.137.318-2.195.623-3.219.917-5.367,1.546-9.245,2.663-14.581,2.822-.6.018-1.384.027-2.282.027-2.364,0-5.689-.065-7.406-.209a25.005,25.005,0,0,1-5.427-1.216c-.6-.183-1.16-.357-1.728-.511-5.793-1.573-9.687-4.373-11.261-8.1a24.833,24.833,0,0,0-1.255-2.339c-1.4-2.411-2.977-5.143-2.4-7.636.561-2.415,2.9-4.167,5.376-6.021a33.524,33.524,0,0,0,3.258-2.654c5.5-5.363,15.09-9.6,24.637-13.378l.05-.02.052-.014a88.137,88.137,0,0,1,14.85-2.775l1.258-.125A58.881,58.881,0,0,1,89.44,105.207Zm9.478,2.654a35.476,35.476,0,0,1-3.7-.186c-.344-.036-.7-.076-1.086-.119-1.352-.151-2.883-.323-4.189-.345-.165,0-.333,0-.5,0a57.4,57.4,0,0,0-5.869.4l-1.265.126a86.117,86.117,0,0,0-14.46,2.7c-9.337,3.7-18.69,7.822-23.926,12.93a34.967,34.967,0,0,1-3.455,2.823c-2.176,1.63-4.231,3.169-4.627,4.873-.4,1.723.971,4.092,2.181,6.182a26.015,26.015,0,0,1,1.362,2.552l0,.007c1.325,3.139,4.763,5.542,9.944,6.949.6.163,1.205.349,1.792.529a23.428,23.428,0,0,0,5.006,1.134c1.585.133,4.842.2,7.239.2.878,0,1.647-.009,2.223-.026,5.084-.151,8.86-1.239,14.087-2.745,1.019-.294,2.073-.6,3.206-.914a72.833,72.833,0,0,0,18.355-9.077c4.891-3.479,8.284-7.232,9.814-10.853a9.655,9.655,0,0,0,.042-8.171l-.02-.045c-.317-.767-3.378-6.457-3.94-7.171-1.224-1.554-2.375-1.827-4.341-1.827-.486,0-1.022.017-1.589.036C100.523,107.836,99.754,107.861,98.918,107.861Z"/><path d="M108.939,110.708c4.8,10.144-8.476,22.524-28.819,29.484-7.03,1.965-11.341,3.518-17.56,3.7-2.354.069-7.448,0-9.575-.18a37,37,0,0,1-6.976-1.7c-5.293-1.437-9.1-3.961-10.6-7.524-2.266-5.257-.971-11.952,4.759-17.541,5.347-5.216,14.719-9.369,24.307-13.164a87.334,87.334,0,0,1,14.681-2.744,66.733,66.733,0,0,1,7.747-.522c1.723.029,3.778.3,5.361.469,8.611.9,14.8,5.167,16.678,9.713" fill="#ffe200"/><path d="M86.384,99.522c.178,0,.357,0,.533,0,1.4.024,2.982.2,4.378.357.377.042.734.082,1.07.117a27.1,27.1,0,0,1,11.281,3.629,15.072,15.072,0,0,1,6.208,6.673,11.036,11.036,0,0,1,1.067,4.84,13.03,13.03,0,0,1-1.086,4.943c-1.675,3.963-5.3,8.011-10.5,11.7a74.861,74.861,0,0,1-18.894,9.348l-.055.017c-1.137.318-2.2.623-3.22.918-5.366,1.546-9.244,2.663-14.579,2.823-.594.017-1.38.027-2.273.027-2.372,0-5.7-.066-7.416-.21a25,25,0,0,1-5.426-1.216c-.6-.183-1.16-.357-1.728-.511-5.794-1.573-9.687-4.372-11.261-8.1a14.429,14.429,0,0,1-.669-9.281,20.111,20.111,0,0,1,5.65-9.369c5.5-5.363,15.09-9.6,24.637-13.378l.05-.02.052-.014a88.135,88.135,0,0,1,14.85-2.775l1.259-.125A58.865,58.865,0,0,1,86.384,99.522Zm-6.561,39.715a72.826,72.826,0,0,0,18.355-9.076c4.89-3.478,8.284-7.231,9.814-10.853a9.656,9.656,0,0,0,.043-8.172l-.02-.045c-1.6-3.875-7.127-8.192-15.857-9.1-.344-.036-.7-.076-1.086-.119-1.352-.151-2.883-.323-4.189-.345-.164,0-.333,0-.5,0a57.4,57.4,0,0,0-5.868.4l-1.266.126a86.115,86.115,0,0,0-14.46,2.7c-9.337,3.7-18.69,7.822-23.926,12.93-5.046,4.922-6.786,11.217-4.539,16.429l0,.007c1.325,3.139,4.763,5.541,9.944,6.948.6.163,1.205.349,1.792.529a23.426,23.426,0,0,0,5.006,1.134c1.581.133,4.843.2,7.248.2.874,0,1.639-.009,2.214-.026,5.083-.152,8.859-1.24,14.085-2.745C77.635,139.857,78.689,139.554,79.823,139.237Z"/><path d="M106.833,111.712c3.57,8.728-9.576,19.311-28.758,25.217-6.592,1.662-10.663,2.981-16.371,3.117-2.159.052-6.816-.027-8.749-.188a33.655,33.655,0,0,1-6.247-1.48c-4.729-1.253-8.008-3.435-9.1-6.5-1.649-4.522.077-10.267,5.772-15.046,5.316-4.46,14.228-7.993,23.31-11.218a88.57,88.57,0,0,1,13.659-2.3,65.917,65.917,0,0,1,7.133-.42c1.574.03,3.433.274,4.868.421,7.809.8,13.126,4.49,14.48,8.4" fill="#ffe200"/><path d="M86.883,102.383c.2,0,.411,0,.612.006,1.256.024,2.677.18,3.93.318.345.038.671.074.979.105a23.672,23.672,0,0,1,9.87,3.1,11.4,11.4,0,0,1,5.027,5.618,8.946,8.946,0,0,1-.423,7.436c-1.628,3.44-5.17,6.975-10.245,10.222a76.465,76.465,0,0,1-18.411,8.213l-.025.007c-1.069.27-2.065.528-3.028.778-5,1.3-8.615,2.238-13.454,2.354-.442.011-.987.016-1.622.016-2.284,0-5.577-.072-7.18-.206a22.51,22.51,0,0,1-4.778-1.046c-.535-.161-1.041-.313-1.555-.449-5.069-1.343-8.333-3.7-9.44-6.817a11.282,11.282,0,0,1,.133-7.764,18.883,18.883,0,0,1,5.789-7.833c5.4-4.532,14.47-8.112,23.464-11.306l.047-.014a88.877,88.877,0,0,1,13.737-2.317l1.168-.1C83.412,102.533,85.083,102.383,86.883,102.383ZM77.94,136.447c14.126-4.351,24.868-11.211,28.034-17.9a7.984,7.984,0,0,0,.4-6.643l-.01-.026c-1.184-3.42-5.99-7.242-14.058-8.068-.312-.032-.639-.068-.986-.106-1.232-.136-2.629-.289-3.84-.312-.2,0-.394-.006-.593-.006-1.755,0-3.405.148-5.316.32l-1.172.1a87.861,87.861,0,0,0-13.558,2.285c-8.9,3.16-17.857,6.7-23.133,11.122-5.152,4.323-7.307,9.876-5.624,14.492.993,2.8,4.02,4.934,8.755,6.189.53.14,1.067.3,1.587.458A21.714,21.714,0,0,0,53,139.36c1.519.127,4.8.2,7.1.2.627,0,1.165-.005,1.6-.016,4.723-.113,8.29-1.039,13.226-2.322C75.879,136.975,76.872,136.717,77.94,136.447Z"/><path d="M53.029,135.027a.5.5,0,0,1-.482-.37,4.838,4.838,0,0,1,.283-2.839,5.844,5.844,0,0,0,.36-1.7c0-.152-.01-.376-.021-.613-.058-1.187-.068-1.994.29-2.384a.693.693,0,0,1,.488-.228.5.5,0,0,1,.244.946,8.192,8.192,0,0,0-.023,1.618c.013.262.024.488.022.667a6.688,6.688,0,0,1-.407,2,4.965,4.965,0,0,0-.343,1.867c3.437-.336,6.913-.9,10.278-1.451,1.7-.277,3.451-.563,5.181-.816a.5.5,0,0,1,.145.989c-1.722.252-3.472.538-5.165.814-3.532.576-7.184,1.172-10.805,1.5Z"/><path d="M59.229,134.008a.5.5,0,0,1-.487-.614,13.5,13.5,0,0,0,.511-4.408.5.5,0,1,1,.994-.113,14.3,14.3,0,0,1-.531,4.75A.5.5,0,0,1,59.229,134.008Z"/><path d="M57.717,127.749a.5.5,0,0,1-.476-.347c-.415-1.286.659-2.592,1.175-3.219.872-1.061,1.868-1.993,3.593-.752a6.953,6.953,0,0,1,1.506,1.7l.182.256a13.523,13.523,0,0,1,2.637-2.068,11.71,11.71,0,0,0,1.481-1.075.5.5,0,0,1,.688.725,12.268,12.268,0,0,1-1.62,1.185,20.046,20.046,0,0,0-1.712,1.214,14.451,14.451,0,0,1,3.663-.222.5.5,0,0,1-.093,1,17.2,17.2,0,0,0-4.769.466.5.5,0,0,1-.387.078l-.5.1c-.9.186-1.756.362-2.58.481-.357.051-.709.126-1.082.205a12.36,12.36,0,0,1-1.669.274ZM60.5,123.84c-.416,0-.773.329-1.307.979a4.188,4.188,0,0,0-1.034,1.879c.347-.051.7-.125,1.06-.2s.757-.16,1.146-.216c.766-.111,1.572-.275,2.424-.451l-.087-.122a6.128,6.128,0,0,0-1.273-1.463A1.681,1.681,0,0,0,60.5,123.84Z"/><path d="M61.417,122.186a6.821,6.821,0,0,1-2.842-.516,1.357,1.357,0,0,1-.2.016h0a.831.831,0,0,1-.676-.3,1.466,1.466,0,0,1-.118-1.235c.369-1.775,2.6-2.751,4.245-3.331a9.625,9.625,0,0,1,2.61-.309c1.336,0,3.057.211,3.673,1.214a1.791,1.791,0,0,1-.058,1.836C67.173,121.285,64.05,122.186,61.417,122.186Zm-2.767-1.542a.5.5,0,0,1,.249.066,5.459,5.459,0,0,0,2.518.476c2.3,0,5.08-.776,5.74-2.076.283-.557.143-.785.1-.86-.279-.455-1.36-.737-2.821-.737a8.685,8.685,0,0,0-2.278.252c-2.19.772-3.4,1.643-3.6,2.591-.013.065-.041.2-.054.308l.018,0A.5.5,0,0,1,58.65,120.644Z"/><path d="M61.225,117.052a4.382,4.382,0,0,1-3.738-1.539,3.745,3.745,0,0,1-.2-3.624.5.5,0,0,1,.656-.154c3.421-.711,7.446-1.5,11.5-1.976a2.33,2.33,0,0,1,2.329.924,4.353,4.353,0,0,1,.077,4.117.5.5,0,0,1-.9-.433,3.382,3.382,0,0,0,.01-3.1,1.371,1.371,0,0,0-1.4-.512c-1.774.21-3.545.48-5.262.776a7.507,7.507,0,0,1,1.767.557l.2.09c.671.292,1.506.656,1.711,1.389a1.425,1.425,0,0,1-.286,1.232c-1.042,1.471-4.491,2.108-5.618,2.215Q61.638,117.052,61.225,117.052Zm-3.259-4.242a3.086,3.086,0,0,0,.334,2.121c.838,1.168,2.669,1.181,3.685,1.084,1.629-.155,4.237-.866,4.9-1.8a.55.55,0,0,0,.139-.385c-.077-.275-.747-.567-1.147-.741L65.661,113a8.177,8.177,0,0,0-4.269-.551,7.544,7.544,0,0,0-1.02.18A5.487,5.487,0,0,1,57.967,112.809Z"/><path d="M72.25,132.032a.5.5,0,0,1-.053-1A39.309,39.309,0,0,0,77.68,129.9c1.154-.3,2.347-.6,3.519-.834.572-.112,1.177-.255,1.818-.406a19.324,19.324,0,0,1,5.84-.771.5.5,0,0,1,.252.1.57.57,0,0,1,.263.617.521.521,0,0,1-.453.379.5.5,0,0,1-.588-.123,20.961,20.961,0,0,0-5.085.775c-.65.153-1.264.3-1.854.413-1.143.224-2.322.528-3.462.821a40.051,40.051,0,0,1-5.625,1.164Z"/><path d="M80.287,130.12a.5.5,0,0,1-.17-.03,7.651,7.651,0,0,0-.9-.241L79,129.8a44.9,44.9,0,0,1-5.293-1.7l-.2-.074c-.141-.052-.278-.115-.411-.176a1.7,1.7,0,0,0-.821-.237.5.5,0,1,1-.117-.993,2.52,2.52,0,0,1,1.356.322c.12.055.234.108.338.146l.2.073a43.48,43.48,0,0,0,5.175,1.66l.211.048c.233.053.472.107.706.175a11.06,11.06,0,0,1,1.4-1.081c.279-.193.542-.375.789-.566,1.217-.943,2.484-1.826,3.711-2.68l.6-.422a15.371,15.371,0,0,1,1.9-1.158.5.5,0,0,1,.461.888,14.47,14.47,0,0,0-1.784,1.09l-.606.422c-1.272.886-2.473,1.723-3.669,2.65-.268.208-.556.407-.834.6a8.528,8.528,0,0,0-1.457,1.165A.5.5,0,0,1,80.287,130.12Z"/><path d="M76.824,124.411a.5.5,0,0,1-.06-1c.656-.08,1.318-.184,1.977-.3-1.351-.326-2.087-.766-2.311-1.383a1.23,1.23,0,0,1,.243-1.206,4.5,4.5,0,0,1,2.8-1.345l.338-.074c1.66-.38,3.353-.639,4.944-.872.569-.084,1.143-.148,1.7-.211.5-.056,1.011-.114,1.516-.185l.129-.019h0a.5.5,0,0,1,.143.99l-.136.02-.067.01-.019,0c-.489.068-.98.123-1.456.177-.546.062-1.111.125-1.664.207-1.571.23-3.241.486-4.866.858l-.351.077a3.747,3.747,0,0,0-2.213.969c-.05.066-.129.188-.1.263.016.043.2.428,1.706.777a15.787,15.787,0,0,0,2.558.395c1.075-.21,2.175-.415,3.272-.563.539-.072,1.091-.116,1.624-.159s1.065-.085,1.587-.155q.265-.044.531-.083a.5.5,0,0,1,.162.987c-.181.033-.363.061-.546.086-.642.106-1.286.229-1.913.349-.878.168-1.785.341-2.7.47a10.187,10.187,0,0,1-1.952.075l-.524.1c-1.4.276-2.849.561-4.293.738A.506.506,0,0,1,76.824,124.411Z"/><path d="M80.064,118.508h0c-.161,0-.321,0-.475-.008a6.007,6.007,0,0,1-3.106-.7.5.5,0,0,1-.144-.146,1.629,1.629,0,0,1,.645-2.156,13.265,13.265,0,0,1,7.4-2.121,11.014,11.014,0,0,1,1.208.063c.877.1,3.37.744,3.321,2.388-.041,1.371-2.007,1.742-2.653,1.863l-.467.088A31.954,31.954,0,0,1,80.064,118.508Zm-2.92-1.475a5.772,5.772,0,0,0,2.481.467c.142.005.29.008.439.008a31.217,31.217,0,0,0,5.547-.712l.469-.089c1.644-.31,1.833-.74,1.839-.911.022-.717-1.571-1.269-2.431-1.364a10.016,10.016,0,0,0-1.1-.057,12.209,12.209,0,0,0-6.795,1.914C77.534,116.336,77.055,116.717,77.144,117.033Z"/><path d="M76.53,114.277a.5.5,0,0,1-.346-.861,10.814,10.814,0,0,1,3.126-1.909c.466-.215.947-.437,1.407-.687.263-.144.528-.291.784-.433a25.989,25.989,0,0,1,3.381-1.67,8.255,8.255,0,0,0,1.272-.674c.185-.112.359-.217.529-.312a.5.5,0,0,1,.484.875c-.153.085-.319.185-.5.292a9.144,9.144,0,0,1-1.432.752,25.235,25.235,0,0,0-3.253,1.61c-.258.143-.524.291-.791.437-.489.266-.986.5-1.466.717a9.9,9.9,0,0,0-2.853,1.723A.5.5,0,0,1,76.53,114.277Z"/><path d="M87.979,112.823a.5.5,0,0,1-.187-.036,4.17,4.17,0,0,0-.977-.168,8.147,8.147,0,0,1-.861-.118l-1.12-.242c-1.321-.287-2.686-.584-4.044-.82l-.319-.055a25.94,25.94,0,0,1-3.837-.865c-.063-.021-.125-.036-.19-.051a1.345,1.345,0,0,1-.7-.353.5.5,0,0,1,.7-.715c.049.048.081.058.236.1.077.018.173.041.279.077a25.2,25.2,0,0,0,3.688.828l.32.055c1.378.24,2.754.539,4.084.828l1.117.241a7.443,7.443,0,0,0,.753.1,4.752,4.752,0,0,1,1.25.235.5.5,0,0,1-.187.964Z"/><path d="M59.925,148.8a33.069,33.069,0,0,1-7.208-.97.5.5,0,1,1,.212-.977,30.855,30.855,0,0,0,7.463.942c1.667-.038,3.364-.172,5-.3,1.609-.127,3.272-.259,4.92-.3a.5.5,0,0,1,.026,1c-1.622.042-3.272.173-4.867.3-1.654.131-3.365.266-5.06.305Q60.168,148.8,59.925,148.8Z" fill="#fff"/><path d="M68.194,146.73c-.441,0-.886-.019-1.335-.061a.5.5,0,0,1,.093-1,23,23,0,0,0,7.673-.963,37.726,37.726,0,0,1,5.05-.974.5.5,0,1,1,.1.995,36.969,36.969,0,0,0-4.916.952A28.317,28.317,0,0,1,68.194,146.73Z" fill="#fff"/><path d="M143.275,107.335c.386,11.213-16.7,17.324-38.14,15.659-7.232-.979-11.806-1.26-17.591-3.553-2.188-.868-6.838-2.951-8.721-3.957a37.05,37.05,0,0,1-5.734-4.319c-4.291-3.416-6.786-7.241-6.755-11.109,0-2.786-1.395-7.582.4-10.016,1.894-2.568,7.079-2.737,10.916-4.206,6.976-2.672,17.226-2.774,27.533-2.461a87.388,87.388,0,0,1,14.568,3.294,66.9,66.9,0,0,1,7.32,2.589c1.571.709,3.349,1.776,4.737,2.554,6.147,3.445,9.5,2.764,10.656,7.107.264.993.825,7.5.811,8.418" fill="#ffe200"/><path d="M111.979,124.265c-2.254,0-4.583-.092-6.922-.274l-.057-.006c-1.169-.158-2.261-.3-3.318-.432-5.541-.705-9.544-1.215-14.508-3.183-2.252-.894-6.936-3-8.824-4a25.006,25.006,0,0,1-4.5-3.263c-.476-.405-.926-.789-1.387-1.155-4.7-3.739-7.163-7.852-7.133-11.895a24.826,24.826,0,0,0-.226-2.645c-.327-2.766-.7-5.9.821-7.962,1.472-2,4.313-2.678,7.322-3.4A33.526,33.526,0,0,0,77.292,84.9c4.722-1.809,11.3-2.651,20.693-2.651,2.136,0,4.433.04,7.228.124l.054,0,.053.007a88.194,88.194,0,0,1,14.736,3.332q.622.2,1.215.386a54.643,54.643,0,0,1,6.211,2.243c1.274.575,2.653,1.362,3.87,2.057q.5.285.944.536a39.146,39.146,0,0,0,5.2,2.382c2.928,1.151,5.044,1.983,5.937,5.34a85.27,85.27,0,0,1,.845,8.663,11.449,11.449,0,0,1-3.464,8.551,19.819,19.819,0,0,1-4.968,3.634,34.137,34.137,0,0,1-6.653,2.616A64.061,64.061,0,0,1,111.979,124.265ZM105.241,122c2.278.176,4.545.266,6.739.266a62.053,62.053,0,0,0,16.663-2.064c4.7-1.342,8.414-3.319,10.731-5.716a9.52,9.52,0,0,0,2.9-7.115v-.05c.013-.829-.543-7.265-.778-8.146-.633-2.379-1.919-2.885-4.737-3.993a41.4,41.4,0,0,1-5.442-2.5c-.3-.171-.622-.352-.958-.544-1.178-.673-2.514-1.435-3.7-1.971a53.158,53.158,0,0,0-5.993-2.16q-.6-.189-1.221-.389A86.165,86.165,0,0,0,105.1,84.371c-2.75-.083-5.011-.122-7.113-.122-9.143,0-15.491.8-19.978,2.519a34.97,34.97,0,0,1-4.29,1.223c-2.644.635-5.141,1.234-6.179,2.642-1.05,1.423-.728,4.142-.445,6.54a26.009,26.009,0,0,1,.24,2.883v.008c-.027,3.407,2.178,6.975,6.378,10.319.487.387.97.8,1.438,1.2a23.428,23.428,0,0,0,4.145,3.022c1.836.981,6.412,3.034,8.618,3.909,4.729,1.875,8.628,2.371,14.023,3.058C102.987,121.7,104.075,121.841,105.241,122Z"/><path d="M142.72,100.9c.386,11.213-16.7,17.324-38.14,15.659-7.232-.979-11.806-1.26-17.591-3.553-2.188-.868-6.838-2.951-8.721-3.957a37.05,37.05,0,0,1-5.734-4.319c-4.291-3.416-6.786-7.241-6.755-11.109,0-5.725,3.842-11.36,11.316-14.222,6.976-2.672,17.226-2.774,27.533-2.461A87.388,87.388,0,0,1,119.2,80.236a66.9,66.9,0,0,1,7.32,2.589c1.571.709,3.349,1.776,4.737,2.554,7.552,4.233,11.541,10.605,11.467,15.525" fill="#ffe200"/><path d="M111.424,117.834c-2.254,0-4.583-.092-6.922-.274l-.057-.006c-1.169-.158-2.261-.3-3.318-.432-5.541-.705-9.544-1.215-14.508-3.183-2.252-.894-6.936-3-8.824-4a25.006,25.006,0,0,1-4.5-3.263c-.476-.405-.926-.789-1.387-1.155-4.7-3.739-7.163-7.852-7.133-11.9a14.429,14.429,0,0,1,3.061-8.788,20.107,20.107,0,0,1,8.9-6.364c4.722-1.809,11.3-2.651,20.693-2.651,2.136,0,4.433.04,7.228.124l.054,0,.053.007A88.2,88.2,0,0,1,119.5,79.284q.622.2,1.215.386a54.644,54.644,0,0,1,6.211,2.243c1.274.575,2.653,1.362,3.87,2.057q.5.285.944.536a27.093,27.093,0,0,1,8.921,7.8,15.075,15.075,0,0,1,3.057,8.587,11.451,11.451,0,0,1-3.464,8.549,19.818,19.818,0,0,1-4.968,3.634,34.136,34.136,0,0,1-6.653,2.616A64.061,64.061,0,0,1,111.424,117.834Zm-6.739-2.266c2.278.176,4.545.266,6.739.266a62.054,62.054,0,0,0,16.663-2.064c4.7-1.342,8.414-3.319,10.731-5.716a9.52,9.52,0,0,0,2.9-7.115v-.049c.063-4.194-3.3-10.346-10.956-14.638-.3-.171-.622-.352-.958-.544-1.178-.673-2.514-1.435-3.7-1.971a53.157,53.157,0,0,0-5.993-2.16q-.6-.189-1.221-.389a86.176,86.176,0,0,0-14.347-3.248c-2.75-.083-5.011-.122-7.113-.122-9.143,0-15.491.8-19.978,2.519C70.87,82.858,66.78,87.949,66.779,93.625v.008c-.027,3.407,2.178,6.975,6.378,10.319.487.387.97.8,1.438,1.2a23.429,23.429,0,0,0,4.145,3.022c1.836.981,6.412,3.034,8.618,3.909,4.729,1.875,8.628,2.371,14.023,3.058C102.433,115.272,103.52,115.41,104.686,115.568Z"/><path d="M140.389,100.991c-.178,9.428-16.441,13.94-36.393,11.765-6.712-1.084-10.972-1.485-16.267-3.62-2-.808-6.248-2.725-7.959-3.638a33.6,33.6,0,0,1-5.15-3.834c-3.846-3.023-5.994-6.325-5.779-9.571.277-4.806,4.137-9.4,11.259-11.53,6.648-1.99,16.23-1.705,25.847-1.069A88.614,88.614,0,0,1,119.4,82.787a66.18,66.18,0,0,1,6.716,2.439c1.434.652,3.044,1.612,4.3,2.316,6.853,3.827,10.274,9.321,9.968,13.449" fill="#ffe200"/><path d="M113.586,113.794a89.432,89.432,0,0,1-9.645-.541l-.026,0c-1.088-.176-2.1-.332-3.086-.484-5.108-.787-8.8-1.356-13.288-3.166-2.05-.826-6.3-2.75-8.007-3.661a22.519,22.519,0,0,1-3.977-2.856c-.427-.359-.83-.7-1.247-1.026-4.123-3.241-6.187-6.7-5.969-10a11.284,11.284,0,0,1,3.2-7.077,18.879,18.879,0,0,1,8.418-4.9c3.514-1.052,8.121-1.563,14.086-1.563,3.3,0,6.979.146,11.938.474l.048.006a88.92,88.92,0,0,1,13.53,3.312l1.117.369a53.625,53.625,0,0,1,5.648,2.09c1.146.521,2.39,1.228,3.487,1.852.3.171.584.332.854.483a23.672,23.672,0,0,1,7.833,6.76,11.4,11.4,0,0,1,2.391,7.149c-.081,3.972-2.85,7.268-8.009,9.534C128.044,112.672,121.372,113.794,113.586,113.794Zm-9.524-1.534a88.414,88.414,0,0,0,9.524.534c7.649,0,14.181-1.093,18.891-3.162,3.334-1.464,7.326-4.154,7.411-8.651v-.028c.268-3.609-2.632-9.021-9.713-12.976-.273-.152-.558-.315-.86-.486-1.079-.613-2.3-1.309-3.407-1.811a52.885,52.885,0,0,0-5.547-2.05l-1.12-.37a87.9,87.9,0,0,0-13.354-3.27c-4.923-.325-8.578-.47-11.848-.47-5.866,0-10.379.5-13.8,1.521-6.443,1.929-10.62,6.174-10.9,11.08-.2,2.959,1.737,6.121,5.589,9.149.43.338.858.7,1.273,1.047a21.724,21.724,0,0,0,3.8,2.739c1.682.9,5.883,2.8,7.911,3.615,4.382,1.767,8.025,2.328,13.067,3.105C101.963,111.929,102.976,112.085,104.063,112.26Z"/><path d="M97.5,105.322a.5.5,0,0,1-.13-.017c-1.685-.451-3.408-.883-5.075-1.3-3.468-.869-7.054-1.768-10.506-2.9a.5.5,0,0,1-.34-.547,4.832,4.832,0,0,1,1.385-2.5,5.839,5.839,0,0,0,1-1.418c.06-.138.138-.346.221-.566.418-1.115.728-1.862,1.211-2.079a.693.693,0,0,1,.538-.017.5.5,0,0,1-.149.965A8.205,8.205,0,0,0,85,96.432c-.091.244-.17.454-.241.617A6.683,6.683,0,0,1,83.6,98.719a4.955,4.955,0,0,0-1.055,1.58c3.285,1.052,6.7,1.907,10,2.735,1.671.419,3.4.852,5.091,1.305a.5.5,0,0,1-.129.983Z"/><path d="M88.046,102.652a.5.5,0,0,1-.4-.8,13.491,13.491,0,0,0,2.215-3.846.5.5,0,0,1,.957.291,14.522,14.522,0,0,1-2.369,4.15A.5.5,0,0,1,88.046,102.652Z"/><path d="M99.938,99.215a.5.5,0,0,1-.239-.061,17.2,17.2,0,0,0-4.563-1.461.5.5,0,0,1-.388-.082l-.5-.1c-.9-.187-1.754-.363-2.558-.579-.349-.094-.7-.166-1.077-.241a12.388,12.388,0,0,1-1.638-.409.5.5,0,0,1-.334-.52c.128-1.345,1.631-2.119,2.353-2.491,1.221-.629,2.5-1.09,3.6.732a6.964,6.964,0,0,1,.712,2.158c.022.1.043.205.065.3a13.505,13.505,0,0,1,3.24-.854,11.7,11.7,0,0,0,1.785-.4.5.5,0,0,1,.345.939,12.257,12.257,0,0,1-1.956.446,20.021,20.021,0,0,0-2.053.437,14.451,14.451,0,0,1,3.451,1.247.5.5,0,0,1-.24.939ZM89.756,95.473c.337.09.687.161,1.051.234s.76.153,1.14.256c.747.2,1.553.37,2.4.546l-.03-.144a6.14,6.14,0,0,0-.591-1.85c-.61-1.018-1.058-.988-2.282-.358A4.188,4.188,0,0,0,89.756,95.473Z"/><path d="M95.847,87.814h0c.363,0,.741.014,1.189.045a9.9,9.9,0,0,1,2.8.873c1.442.666,2.3,1.4,2.554,2.181a1.712,1.712,0,0,1-.719,1.927,4.135,4.135,0,0,1-2.687.76c-2.532,0-5.652-1.188-6.846-2.578a.922.922,0,0,1-.662-.512c-.208-.486.14-.98.348-1.276C92.481,88.292,93.836,87.814,95.847,87.814ZM98.979,92.6a3.253,3.253,0,0,0,2.048-.53c.537-.446.442-.74.406-.851-.366-1.134-3.566-2.3-4.466-2.364-.424-.029-.78-.043-1.12-.043-1.666,0-2.746.335-3.21,1-.038.055-.117.166-.172.262l.018,0a.5.5,0,0,1,.327.2C93.706,91.468,96.7,92.6,98.979,92.6Z"/><path d="M106.718,90.1a.5.5,0,0,1-.328-.877,3.383,3.383,0,0,0,1.238-2.845,1.371,1.371,0,0,0-1.081-1.024c-1.712-.509-3.445-.963-5.139-1.371a7.49,7.49,0,0,1,1.4,1.212l.151.162c.5.534,1.124,1.2,1.022,1.954a1.426,1.426,0,0,1-.75,1.018c-1.542.939-4.96.156-6.035-.192-2.03-.655-3.317-1.789-3.624-3.193a3.742,3.742,0,0,1,1.255-3.406.5.5,0,0,1,.663.119c3.422.7,7.43,1.575,11.341,2.739a2.33,2.33,0,0,1,1.773,1.771,4.354,4.354,0,0,1-1.56,3.812A.5.5,0,0,1,106.718,90.1Zm-11.635-7.45a3.083,3.083,0,0,0-.533,2.08c.307,1.405,1.982,2.141,2.954,2.455,1.556.5,4.231.884,5.207.29.119-.072.264-.183.28-.3.038-.283-.462-.817-.76-1.135l-.158-.169a8.164,8.164,0,0,0-3.7-2.2,7.531,7.531,0,0,0-1.008-.239A5.487,5.487,0,0,1,95.083,82.646Z"/><path d="M117.267,109.775a.655.655,0,0,1-.168-.023.5.5,0,0,1-.489-.344,20.907,20.907,0,0,0-4.97-1.3c-.66-.117-1.283-.228-1.873-.356-1.138-.247-2.34-.435-3.5-.617a40.108,40.108,0,0,1-5.628-1.16.5.5,0,1,1,.3-.955,39.366,39.366,0,0,0,5.487,1.127c1.177.184,2.393.375,3.559.628.571.124,1.186.233,1.836.349a19.283,19.283,0,0,1,5.661,1.6.5.5,0,0,1,.192.187.57.57,0,0,1,0,.673A.506.506,0,0,1,117.267,109.775Z"/><path d="M108.922,107.423a.5.5,0,0,1-.343-.136,7.531,7.531,0,0,0-.725-.574l-.183-.134a45.059,45.059,0,0,1-4.217-3.679l-.127-.12c-.109-.1-.211-.216-.309-.325a1.706,1.706,0,0,0-.659-.542.5.5,0,0,1,.286-.958,2.523,2.523,0,0,1,1.116.831c.089.1.173.192.254.269l.127.12a43.641,43.641,0,0,0,4.123,3.6l.179.131c.192.14.388.283.575.438a11.04,11.04,0,0,1,1.716-.439c.332-.066.645-.129.946-.206,1.483-.383,2.99-.69,4.446-.987l.745-.152a15.371,15.371,0,0,1,2.2-.312.5.5,0,1,1,.072,1,14.47,14.47,0,0,0-2.07.294l-.746.153c-1.511.308-2.938.6-4.4.976-.328.085-.67.153-1,.219a8.511,8.511,0,0,0-1.8.494A.5.5,0,0,1,108.922,107.423Z"/><path d="M119.646,103.852a.5.5,0,0,1-.114-.013c-.179-.042-.357-.088-.534-.137-.631-.157-1.27-.3-1.892-.437-.874-.194-1.777-.394-2.666-.638a10.159,10.159,0,0,1-1.824-.7l-.527-.114c-1.393-.3-2.834-.612-4.228-1.021a.5.5,0,0,1,.281-.96c.635.186,1.283.352,1.934.507-1.111-.835-1.612-1.531-1.574-2.185a1.231,1.231,0,0,1,.7-1.011,4.5,4.5,0,0,1,3.1-.126l.342.066c1.689.313,3.339.743,4.884,1.157.553.149,1.1.315,1.633.476.493.15,1,.3,1.509.442l.1.026a.5.5,0,0,1-.263.965l-.093-.025-.016,0-.09-.024-.026-.008c-.476-.132-.948-.275-1.407-.414-.523-.159-1.064-.323-1.6-.467-1.526-.408-3.154-.833-4.807-1.139-.114-.021-.233-.045-.354-.069a3.746,3.746,0,0,0-2.414.014c-.072.041-.193.122-.2.2,0,.045.01.47,1.26,1.389a15.783,15.783,0,0,0,2.191,1.375c1.071.233,2.162.48,3.228.779.524.147,1.048.325,1.555.5s1.012.344,1.52.486q.26.065.519.134a.5.5,0,0,1-.128.983Z"/><path d="M113.48,92.419h0a14.838,14.838,0,0,1,6.725,1.748c.767.436,2.8,2.017,2.1,3.508a1.681,1.681,0,0,1-1.712.855,6.9,6.9,0,0,1-1.462-.2l-.468-.1a29.083,29.083,0,0,1-5.982-1.8,6.009,6.009,0,0,1-2.574-1.873.5.5,0,0,1-.074-.191c-.16-.959.678-1.528,1.444-1.725A8.138,8.138,0,0,1,113.48,92.419ZM120.6,97.53c.308,0,.7-.048.806-.278.3-.65-.94-1.788-1.692-2.215a13.746,13.746,0,0,0-6.23-1.618h0a7.144,7.144,0,0,0-1.752.2c-.072.019-.664.18-.707.5a5.775,5.775,0,0,0,2.093,1.412,28.359,28.359,0,0,0,5.771,1.723l.47.105A5.966,5.966,0,0,0,120.6,97.53Z"/><path d="M111.745,91.386a.5.5,0,0,1-.175-.969A10.832,10.832,0,0,1,115.2,89.9c.512-.013,1.042-.026,1.562-.074.3-.028.6-.058.9-.088a25.962,25.962,0,0,1,3.758-.194,8.241,8.241,0,0,0,1.436-.115c.214-.03.415-.057.609-.076a.5.5,0,1,1,.1,1c-.174.017-.366.044-.57.072a9.13,9.13,0,0,1-1.614.123,25.2,25.2,0,0,0-3.617.19c-.3.03-.6.06-.907.088-.553.051-1.1.064-1.629.078a9.92,9.92,0,0,0-3.3.452A.5.5,0,0,1,111.745,91.386Z"/><path d="M122.835,94.586a.5.5,0,0,1-.355-.148,4.164,4.164,0,0,0-.83-.541,8.119,8.119,0,0,1-.744-.449q-.475-.338-.947-.676c-1.094-.783-2.226-1.593-3.374-2.344l-.256-.167a26.075,26.075,0,0,1-3.2-2.325c-.049-.044-.1-.081-.153-.121a1.341,1.341,0,0,1-.508-.6.5.5,0,1,1,.925-.379c.026.063.051.085.178.18.063.047.142.105.226.18a25.335,25.335,0,0,0,3.075,2.232l.257.168c1.165.762,2.305,1.579,3.408,2.368q.471.337.944.674a7.415,7.415,0,0,0,.652.391,4.747,4.747,0,0,1,1.054.711.5.5,0,0,1-.355.852Z"/><path d="M92.622,120.068a.5.5,0,0,1-.186-.036c-1.505-.6-3.071-1.136-4.585-1.652-1.572-.535-3.2-1.088-4.77-1.725a31.743,31.743,0,0,1-6.686-3.934.5.5,0,0,1,.581-.814,30.91,30.91,0,0,0,6.48,3.82c1.547.626,3.159,1.174,4.717,1.7,1.527.52,3.106,1.057,4.635,1.67a.5.5,0,0,1-.186.964Z" fill="#fff"/><path d="M102.618,120.618a.5.5,0,0,1-.151-.024,36.875,36.875,0,0,0-4.9-1.075,24.083,24.083,0,0,1-7.733-2.261.5.5,0,1,1,.48-.877,22.976,22.976,0,0,0,7.422,2.153,37.633,37.633,0,0,1,5.029,1.107.5.5,0,0,1-.151.977Z" fill="#fff"/><path d="M172.275,98.335c.386,11.213-16.7,17.324-38.14,15.659-7.232-.979-11.806-1.26-17.591-3.553-2.188-.868-6.838-2.951-8.721-3.957a37.05,37.05,0,0,1-5.734-4.319C97.8,98.749,95.3,94.924,95.334,91.056c0-2.786-1.395-7.582.4-10.016,1.894-2.568,7.079-2.737,10.916-4.206,6.976-2.672,17.226-2.774,27.533-2.461a87.388,87.388,0,0,1,14.568,3.294,66.9,66.9,0,0,1,7.32,2.589c1.571.709,3.349,1.776,4.737,2.554,6.147,3.445,9.5,2.764,10.656,7.107.264.993.825,7.5.811,8.418" fill="#ffe200"/><path d="M140.979,115.265c-2.254,0-4.583-.092-6.922-.274l-.057-.006c-1.169-.158-2.261-.3-3.318-.432-5.541-.705-9.544-1.215-14.508-3.183-2.252-.894-6.936-3-8.824-4a25.006,25.006,0,0,1-4.5-3.263c-.476-.405-.926-.789-1.387-1.155-4.7-3.739-7.163-7.852-7.133-11.895a24.826,24.826,0,0,0-.226-2.645c-.327-2.766-.7-5.9.821-7.962,1.472-2,4.313-2.678,7.322-3.4a33.526,33.526,0,0,0,4.041-1.146c4.722-1.809,11.3-2.651,20.693-2.651,2.136,0,4.433.04,7.228.124l.054,0,.053.007a88.194,88.194,0,0,1,14.736,3.332q.622.2,1.215.386a54.643,54.643,0,0,1,6.211,2.243c1.274.575,2.653,1.362,3.87,2.057q.5.285.944.536a39.146,39.146,0,0,0,5.2,2.382c2.928,1.151,5.044,1.983,5.937,5.34a85.27,85.27,0,0,1,.845,8.663,11.449,11.449,0,0,1-3.464,8.551,19.819,19.819,0,0,1-4.968,3.634,34.137,34.137,0,0,1-6.653,2.616A64.061,64.061,0,0,1,140.979,115.265ZM134.241,113c2.278.176,4.545.266,6.739.266a62.053,62.053,0,0,0,16.663-2.064c4.7-1.342,8.414-3.319,10.731-5.716a9.52,9.52,0,0,0,2.9-7.115v-.05c.013-.829-.543-7.265-.778-8.146-.633-2.379-1.919-2.885-4.737-3.993a41.4,41.4,0,0,1-5.442-2.5c-.3-.171-.622-.352-.958-.544-1.178-.673-2.514-1.435-3.7-1.971a53.157,53.157,0,0,0-5.993-2.16q-.6-.189-1.221-.389A86.165,86.165,0,0,0,134.1,75.371c-2.75-.083-5.011-.122-7.113-.122-9.143,0-15.491.8-19.978,2.519a34.97,34.97,0,0,1-4.29,1.223c-2.644.635-5.141,1.234-6.179,2.642-1.05,1.423-.728,4.142-.445,6.54a26.009,26.009,0,0,1,.24,2.883v.008c-.027,3.407,2.178,6.975,6.378,10.319.487.387.97.8,1.438,1.2a23.428,23.428,0,0,0,4.145,3.022c1.836.981,6.412,3.034,8.618,3.909,4.729,1.875,8.628,2.371,14.023,3.058C131.987,112.7,133.075,112.841,134.241,113Z"/><path d="M171.72,91.9c.386,11.213-16.7,17.324-38.14,15.659-7.232-.979-11.806-1.26-17.591-3.553-2.188-.868-6.838-2.951-8.721-3.957a37.05,37.05,0,0,1-5.734-4.319c-4.291-3.416-6.786-7.241-6.755-11.109,0-5.725,3.842-11.36,11.316-14.222,6.976-2.672,17.226-2.774,27.533-2.461A87.388,87.388,0,0,1,148.2,71.236a66.9,66.9,0,0,1,7.32,2.589c1.571.709,3.349,1.776,4.737,2.554C167.8,80.612,171.794,86.984,171.72,91.9" fill="#ffe200"/><path d="M140.424,108.834c-2.254,0-4.583-.092-6.922-.274l-.057-.006c-1.169-.158-2.261-.3-3.318-.432-5.541-.705-9.544-1.215-14.508-3.183-2.252-.894-6.936-3-8.824-4a25.006,25.006,0,0,1-4.5-3.263c-.476-.405-.926-.789-1.387-1.155-4.7-3.739-7.163-7.852-7.133-11.9a14.429,14.429,0,0,1,3.061-8.788,20.107,20.107,0,0,1,8.9-6.364c4.722-1.809,11.3-2.651,20.693-2.651,2.136,0,4.433.04,7.228.124l.054,0,.053.007A88.2,88.2,0,0,1,148.5,70.284q.622.2,1.215.386a54.646,54.646,0,0,1,6.211,2.243c1.274.575,2.653,1.362,3.87,2.057q.5.285.944.536a27.093,27.093,0,0,1,8.921,7.8,15.075,15.075,0,0,1,3.057,8.587,11.451,11.451,0,0,1-3.464,8.549,19.818,19.818,0,0,1-4.968,3.634,34.136,34.136,0,0,1-6.653,2.616A64.061,64.061,0,0,1,140.424,108.834Zm-6.739-2.266c2.278.176,4.545.266,6.739.266a62.054,62.054,0,0,0,16.663-2.064c4.7-1.342,8.414-3.319,10.731-5.716a9.52,9.52,0,0,0,2.9-7.115v-.049c.063-4.194-3.3-10.346-10.956-14.638-.3-.171-.622-.352-.958-.544-1.178-.673-2.514-1.435-3.7-1.971a53.156,53.156,0,0,0-5.993-2.16q-.6-.189-1.221-.389a86.176,86.176,0,0,0-14.347-3.248c-2.75-.083-5.011-.122-7.113-.122-9.143,0-15.491.8-19.978,2.519C99.87,73.858,95.78,78.949,95.779,84.625v.008c-.027,3.407,2.178,6.975,6.378,10.319.487.387.97.8,1.438,1.2a23.429,23.429,0,0,0,4.145,3.022c1.836.981,6.412,3.034,8.618,3.909,4.729,1.875,8.628,2.371,14.023,3.058C131.433,106.272,132.52,106.41,133.686,106.568Z"/><path d="M169.389,91.991c-.178,9.428-16.441,13.94-36.393,11.765-6.712-1.084-10.972-1.485-16.267-3.62-2-.808-6.248-2.725-7.959-3.638a33.6,33.6,0,0,1-5.15-3.834c-3.846-3.023-5.994-6.325-5.779-9.571.277-4.806,4.137-9.4,11.259-11.53,6.648-1.99,16.23-1.705,25.847-1.069A88.614,88.614,0,0,1,148.4,73.787a66.181,66.181,0,0,1,6.716,2.439c1.434.652,3.044,1.612,4.3,2.316,6.853,3.827,10.274,9.321,9.968,13.449" fill="#ffe200"/><path d="M142.586,104.794a89.432,89.432,0,0,1-9.645-.541l-.026,0c-1.088-.176-2.1-.332-3.086-.484-5.108-.787-8.8-1.356-13.288-3.166-2.05-.826-6.3-2.75-8.007-3.661a22.519,22.519,0,0,1-3.977-2.856c-.427-.359-.83-.7-1.247-1.026-4.123-3.241-6.187-6.7-5.969-10a11.284,11.284,0,0,1,3.2-7.077,18.879,18.879,0,0,1,8.418-4.9c3.514-1.052,8.121-1.563,14.086-1.563,3.3,0,6.979.146,11.938.474l.048.006a88.919,88.919,0,0,1,13.53,3.312l1.117.369a53.624,53.624,0,0,1,5.648,2.09c1.146.521,2.39,1.228,3.487,1.852.3.171.584.332.854.483a23.672,23.672,0,0,1,7.833,6.76,11.4,11.4,0,0,1,2.391,7.149c-.081,3.972-2.85,7.268-8.009,9.534C157.044,103.672,150.372,104.794,142.586,104.794Zm-9.524-1.534a88.414,88.414,0,0,0,9.524.534c7.649,0,14.181-1.093,18.891-3.162,3.334-1.464,7.326-4.154,7.411-8.651v-.028c.268-3.609-2.632-9.021-9.713-12.976-.273-.152-.558-.315-.86-.486-1.079-.613-2.3-1.309-3.407-1.811a52.886,52.886,0,0,0-5.547-2.05l-1.12-.37a87.9,87.9,0,0,0-13.354-3.27c-4.923-.325-8.578-.47-11.848-.47-5.866,0-10.379.5-13.8,1.521-6.443,1.929-10.62,6.174-10.9,11.08-.2,2.959,1.737,6.121,5.589,9.149.43.338.858.7,1.273,1.047a21.724,21.724,0,0,0,3.8,2.739c1.682.9,5.883,2.8,7.911,3.615,4.382,1.767,8.025,2.328,13.067,3.105C130.963,102.929,131.976,103.085,133.063,103.26Z"/><path d="M126.5,96.322a.5.5,0,0,1-.13-.017c-1.685-.451-3.408-.883-5.075-1.3-3.468-.869-7.054-1.768-10.506-2.9a.5.5,0,0,1-.34-.547,4.832,4.832,0,0,1,1.385-2.5,5.839,5.839,0,0,0,1-1.418c.06-.138.138-.346.221-.566.418-1.115.728-1.862,1.211-2.079a.693.693,0,0,1,.538-.017.5.5,0,0,1-.149.965A8.205,8.205,0,0,0,114,87.432c-.091.244-.17.454-.241.617a6.683,6.683,0,0,1-1.163,1.671,4.955,4.955,0,0,0-1.055,1.58c3.285,1.052,6.7,1.907,10,2.735,1.671.419,3.4.852,5.091,1.305a.5.5,0,0,1-.129.983Z"/><path d="M117.046,93.652a.5.5,0,0,1-.4-.8,13.491,13.491,0,0,0,2.215-3.846.5.5,0,0,1,.957.291,14.522,14.522,0,0,1-2.369,4.15A.5.5,0,0,1,117.046,93.652Z"/><path d="M128.938,90.215a.5.5,0,0,1-.24-.061,17.2,17.2,0,0,0-4.563-1.461.5.5,0,0,1-.388-.082l-.5-.1c-.9-.187-1.754-.363-2.558-.579-.349-.094-.7-.166-1.077-.241a12.388,12.388,0,0,1-1.638-.409.5.5,0,0,1-.334-.52c.128-1.345,1.631-2.119,2.353-2.491,1.221-.629,2.5-1.09,3.6.732a6.964,6.964,0,0,1,.712,2.158c.022.1.043.205.065.3a13.505,13.505,0,0,1,3.24-.854,11.7,11.7,0,0,0,1.785-.4.5.5,0,0,1,.345.939,12.257,12.257,0,0,1-1.956.446,20.021,20.021,0,0,0-2.053.437,14.451,14.451,0,0,1,3.451,1.247.5.5,0,0,1-.24.939Zm-10.181-3.742c.337.09.687.161,1.051.234s.76.153,1.14.256c.747.2,1.553.37,2.4.546l-.03-.144a6.14,6.14,0,0,0-.591-1.85c-.61-1.018-1.058-.988-2.282-.358A4.188,4.188,0,0,0,118.756,86.473Z"/><path d="M124.847,78.814h0c.363,0,.741.014,1.189.045a9.9,9.9,0,0,1,2.8.873c1.442.666,2.3,1.4,2.554,2.181a1.712,1.712,0,0,1-.719,1.927,4.135,4.135,0,0,1-2.687.76c-2.532,0-5.652-1.188-6.846-2.578a.922.922,0,0,1-.662-.512c-.208-.486.14-.98.348-1.276C121.481,79.292,122.836,78.814,124.847,78.814Zm3.132,4.787a3.254,3.254,0,0,0,2.048-.53c.537-.446.442-.74.406-.851-.366-1.134-3.566-2.3-4.466-2.364-.424-.029-.78-.043-1.12-.043-1.666,0-2.746.335-3.21,1-.038.055-.117.166-.172.262l.018,0a.5.5,0,0,1,.327.2C122.706,82.468,125.7,83.6,127.979,83.6Z"/><path d="M135.718,81.1a.5.5,0,0,1-.328-.877,3.383,3.383,0,0,0,1.238-2.845,1.371,1.371,0,0,0-1.081-1.024c-1.712-.509-3.445-.963-5.139-1.371a7.493,7.493,0,0,1,1.4,1.212l.151.162c.5.534,1.124,1.2,1.022,1.954a1.426,1.426,0,0,1-.75,1.018c-1.542.939-4.96.156-6.035-.192-2.03-.655-3.317-1.789-3.624-3.193a3.742,3.742,0,0,1,1.255-3.406.5.5,0,0,1,.663.119c3.422.7,7.43,1.575,11.341,2.739a2.33,2.33,0,0,1,1.773,1.771,4.354,4.354,0,0,1-1.56,3.812A.5.5,0,0,1,135.718,81.1Zm-11.635-7.45a3.083,3.083,0,0,0-.533,2.08c.307,1.405,1.982,2.141,2.954,2.455,1.556.5,4.231.884,5.207.29.119-.072.264-.183.28-.3.038-.283-.462-.817-.76-1.135l-.158-.169a8.164,8.164,0,0,0-3.7-2.2,7.531,7.531,0,0,0-1.008-.239A5.487,5.487,0,0,1,124.083,73.646Z"/><path d="M146.267,100.775a.655.655,0,0,1-.168-.023.5.5,0,0,1-.489-.344,20.907,20.907,0,0,0-4.97-1.3c-.66-.117-1.283-.228-1.873-.356-1.138-.247-2.34-.435-3.5-.617a40.109,40.109,0,0,1-5.628-1.16.5.5,0,1,1,.3-.955,39.366,39.366,0,0,0,5.487,1.127c1.177.184,2.393.375,3.559.628.571.124,1.186.233,1.836.349a19.283,19.283,0,0,1,5.661,1.6.5.5,0,0,1,.192.187.57.57,0,0,1,0,.673A.506.506,0,0,1,146.267,100.775Z"/><path d="M137.922,98.423a.5.5,0,0,1-.343-.136,7.536,7.536,0,0,0-.725-.574l-.183-.134a45.059,45.059,0,0,1-4.218-3.679l-.126-.12c-.109-.1-.211-.216-.309-.325a1.7,1.7,0,0,0-.659-.541.5.5,0,0,1,.285-.958,2.517,2.517,0,0,1,1.117.831c.089.1.173.192.254.269l.127.12a43.643,43.643,0,0,0,4.123,3.6l.179.131c.192.14.388.283.575.438a11.04,11.04,0,0,1,1.716-.439c.332-.066.645-.129.946-.206,1.483-.383,2.99-.69,4.446-.987l.745-.152a15.371,15.371,0,0,1,2.2-.312.5.5,0,0,1,.072,1,14.47,14.47,0,0,0-2.07.294l-.746.153c-1.511.308-2.938.6-4.4.976-.328.085-.67.153-1,.219a8.511,8.511,0,0,0-1.8.494A.5.5,0,0,1,137.922,98.423Z"/><path d="M148.646,94.852a.5.5,0,0,1-.114-.013c-.179-.042-.357-.088-.534-.137-.631-.157-1.27-.3-1.892-.437-.874-.194-1.777-.394-2.666-.638a10.159,10.159,0,0,1-1.824-.7l-.527-.114c-1.393-.3-2.834-.612-4.228-1.021a.5.5,0,1,1,.281-.96c.635.186,1.283.352,1.934.507-1.112-.835-1.612-1.531-1.574-2.185a1.231,1.231,0,0,1,.7-1.011,4.5,4.5,0,0,1,3.1-.126l.342.066c1.689.313,3.339.743,4.884,1.157.553.149,1.1.315,1.633.476.493.15,1,.3,1.509.442l.1.026a.5.5,0,0,1-.263.965l-.093-.025-.016,0-.09-.024-.026-.008c-.476-.132-.948-.275-1.407-.414-.523-.159-1.064-.323-1.6-.467-1.526-.408-3.154-.833-4.807-1.139-.114-.021-.233-.045-.354-.069a3.746,3.746,0,0,0-2.414.014c-.072.041-.193.122-.2.2,0,.045.01.47,1.26,1.389a15.783,15.783,0,0,0,2.191,1.375c1.071.233,2.162.48,3.228.779.524.147,1.048.325,1.555.5s1.012.344,1.52.486q.26.065.519.133a.5.5,0,0,1-.128.983Z"/><path d="M142.48,83.419h0a14.838,14.838,0,0,1,6.725,1.748c.767.436,2.8,2.017,2.1,3.508a1.681,1.681,0,0,1-1.712.855,6.9,6.9,0,0,1-1.462-.2l-.468-.1a29.082,29.082,0,0,1-5.982-1.8,6.009,6.009,0,0,1-2.574-1.873.5.5,0,0,1-.074-.191c-.16-.959.678-1.528,1.444-1.725A8.138,8.138,0,0,1,142.48,83.419ZM149.6,88.53c.308,0,.7-.048.806-.278.3-.65-.94-1.788-1.692-2.215a13.746,13.746,0,0,0-6.23-1.618h0a7.144,7.144,0,0,0-1.752.2c-.072.019-.664.18-.707.5a5.774,5.774,0,0,0,2.093,1.412,28.36,28.36,0,0,0,5.771,1.723l.47.105A5.966,5.966,0,0,0,149.6,88.53Z"/><path d="M140.745,82.386a.5.5,0,0,1-.175-.969A10.833,10.833,0,0,1,144.2,80.9c.512-.013,1.042-.026,1.562-.074.3-.028.6-.058.9-.088a25.959,25.959,0,0,1,3.758-.194,8.242,8.242,0,0,0,1.436-.115c.214-.03.415-.057.609-.076a.5.5,0,0,1,.1,1c-.174.017-.366.044-.57.072a9.127,9.127,0,0,1-1.614.123,25.211,25.211,0,0,0-3.617.19c-.3.03-.6.06-.907.088-.553.051-1.1.064-1.629.078a9.92,9.92,0,0,0-3.3.452A.5.5,0,0,1,140.745,82.386Z"/><path d="M151.835,85.586a.5.5,0,0,1-.355-.148,4.165,4.165,0,0,0-.83-.541,8.116,8.116,0,0,1-.744-.449q-.475-.338-.947-.676c-1.094-.783-2.226-1.593-3.374-2.344l-.256-.167a26.077,26.077,0,0,1-3.2-2.325c-.049-.044-.1-.081-.153-.121a1.341,1.341,0,0,1-.508-.6.5.5,0,1,1,.926-.379c.026.063.051.085.178.18.063.047.142.105.226.18a25.337,25.337,0,0,0,3.075,2.232l.257.168c1.165.762,2.305,1.579,3.408,2.368q.471.337.944.674a7.417,7.417,0,0,0,.652.391,4.747,4.747,0,0,1,1.054.711.5.5,0,0,1-.355.852Z"/><path d="M121.622,111.068a.5.5,0,0,1-.186-.036c-1.505-.6-3.071-1.136-4.585-1.652-1.572-.535-3.2-1.088-4.77-1.725a31.743,31.743,0,0,1-6.686-3.934.5.5,0,0,1,.581-.814,30.91,30.91,0,0,0,6.48,3.82c1.547.626,3.159,1.174,4.717,1.7,1.527.52,3.106,1.057,4.635,1.67a.5.5,0,0,1-.186.964Z" fill="#fff"/><path d="M131.618,111.618a.5.5,0,0,1-.151-.024,36.876,36.876,0,0,0-4.9-1.075,24.083,24.083,0,0,1-7.733-2.261.5.5,0,1,1,.48-.877,22.976,22.976,0,0,0,7.422,2.153,37.632,37.632,0,0,1,5.029,1.107.5.5,0,0,1-.151.977Z" fill="#fff"/><path d="M189.275,143.335c.386,11.213-16.7,17.324-38.14,15.659-7.232-.979-11.806-1.26-17.591-3.553-2.188-.868-6.838-2.951-8.721-3.957a37.05,37.05,0,0,1-5.734-4.319c-4.291-3.416-6.786-7.241-6.755-11.109,0-2.786-1.395-7.582.4-10.016,1.894-2.568,7.079-2.737,10.916-4.206,6.976-2.672,17.226-2.774,27.533-2.461a87.388,87.388,0,0,1,14.568,3.294,66.9,66.9,0,0,1,7.32,2.589c1.571.709,3.349,1.776,4.737,2.554,6.147,3.445,9.5,2.764,10.656,7.107.264.993.825,7.5.811,8.418" fill="#ffe200"/><path d="M157.979,160.265c-2.254,0-4.583-.092-6.922-.274l-.057-.006c-1.169-.158-2.261-.3-3.318-.432-5.541-.705-9.544-1.215-14.508-3.183-2.253-.894-6.936-3-8.824-4a25.006,25.006,0,0,1-4.5-3.263c-.476-.406-.926-.789-1.387-1.155-4.7-3.739-7.163-7.852-7.133-11.895a24.825,24.825,0,0,0-.226-2.645c-.327-2.766-.7-5.9.821-7.962,1.472-2,4.313-2.678,7.322-3.4a33.526,33.526,0,0,0,4.041-1.146c4.722-1.809,11.3-2.651,20.693-2.651,2.136,0,4.433.04,7.228.124l.054,0,.053.007a88.194,88.194,0,0,1,14.736,3.332q.622.2,1.215.386a54.643,54.643,0,0,1,6.211,2.243c1.274.575,2.653,1.362,3.87,2.057q.5.285.944.536a39.143,39.143,0,0,0,5.2,2.382c2.928,1.151,5.044,1.983,5.937,5.34a85.269,85.269,0,0,1,.845,8.663,11.449,11.449,0,0,1-3.464,8.551,19.818,19.818,0,0,1-4.968,3.634,34.137,34.137,0,0,1-6.653,2.616A64.062,64.062,0,0,1,157.979,160.265ZM151.241,158c2.278.176,4.545.266,6.739.266a62.053,62.053,0,0,0,16.663-2.064c4.7-1.342,8.414-3.319,10.731-5.716a9.52,9.52,0,0,0,2.9-7.115v-.05c.013-.829-.543-7.265-.778-8.146-.633-2.379-1.919-2.885-4.737-3.993a41.4,41.4,0,0,1-5.442-2.5c-.3-.171-.622-.352-.958-.544-1.178-.673-2.514-1.435-3.7-1.971a53.157,53.157,0,0,0-5.993-2.16q-.6-.189-1.221-.389a86.165,86.165,0,0,0-14.347-3.248c-2.75-.083-5.011-.122-7.113-.122-9.143,0-15.491.8-19.978,2.519a34.97,34.97,0,0,1-4.29,1.223c-2.644.635-5.141,1.234-6.179,2.642-1.05,1.423-.728,4.142-.445,6.54a26.009,26.009,0,0,1,.24,2.883v.008c-.027,3.407,2.178,6.975,6.378,10.319.487.387.97.8,1.438,1.2a23.428,23.428,0,0,0,4.145,3.022c1.836.981,6.412,3.034,8.618,3.909,4.729,1.875,8.628,2.371,14.023,3.058C148.987,157.7,150.075,157.841,151.241,158Z"/><path d="M188.72,136.9c.386,11.213-16.7,17.324-38.14,15.659-7.232-.979-11.806-1.26-17.591-3.553-2.188-.868-6.838-2.951-8.721-3.957a37.05,37.05,0,0,1-5.734-4.319c-4.291-3.416-6.786-7.241-6.755-11.109,0-5.725,3.842-11.36,11.316-14.222,6.976-2.672,17.226-2.774,27.533-2.461a87.388,87.388,0,0,1,14.568,3.294,66.9,66.9,0,0,1,7.32,2.589c1.571.709,3.349,1.776,4.737,2.554,7.552,4.233,11.541,10.6,11.467,15.525" fill="#ffe200"/><path d="M157.424,153.834c-2.254,0-4.583-.092-6.922-.274l-.057-.006c-1.169-.158-2.261-.3-3.317-.432-5.541-.705-9.544-1.215-14.508-3.183-2.252-.894-6.936-3-8.824-4a25.005,25.005,0,0,1-4.5-3.263c-.476-.406-.926-.789-1.387-1.155-4.7-3.739-7.163-7.852-7.133-11.9a14.429,14.429,0,0,1,3.061-8.788,20.107,20.107,0,0,1,8.9-6.364c4.722-1.809,11.3-2.651,20.693-2.651,2.136,0,4.433.04,7.228.124l.054,0,.053.007a88.2,88.2,0,0,1,14.736,3.332q.622.2,1.215.386a54.646,54.646,0,0,1,6.211,2.243c1.274.575,2.653,1.362,3.87,2.057q.5.285.944.536a27.093,27.093,0,0,1,8.921,7.8,15.075,15.075,0,0,1,3.057,8.587,11.451,11.451,0,0,1-3.464,8.549,19.818,19.818,0,0,1-4.968,3.634,34.137,34.137,0,0,1-6.653,2.616A64.061,64.061,0,0,1,157.424,153.834Zm-6.739-2.266c2.278.176,4.545.266,6.739.266a62.054,62.054,0,0,0,16.663-2.064c4.7-1.342,8.414-3.319,10.731-5.716a9.52,9.52,0,0,0,2.9-7.115v-.049c.063-4.194-3.3-10.346-10.956-14.638-.3-.171-.622-.352-.958-.544-1.178-.673-2.514-1.435-3.7-1.971a53.156,53.156,0,0,0-5.993-2.16q-.6-.189-1.221-.389a86.176,86.176,0,0,0-14.347-3.248c-2.75-.083-5.011-.122-7.113-.122-9.143,0-15.491.8-19.978,2.519-6.583,2.521-10.673,7.613-10.674,13.288v.008c-.027,3.407,2.178,6.975,6.378,10.319.487.387.97.8,1.438,1.2a23.429,23.429,0,0,0,4.144,3.022c1.836.981,6.412,3.034,8.618,3.909,4.729,1.875,8.628,2.371,14.023,3.058C148.433,151.272,149.52,151.411,150.686,151.568Z"/><path d="M186.389,136.991c-.178,9.428-16.441,13.94-36.393,11.765-6.712-1.084-10.972-1.485-16.267-3.62-2-.808-6.248-2.725-7.959-3.638a33.6,33.6,0,0,1-5.15-3.834c-3.846-3.023-5.994-6.325-5.779-9.571.277-4.806,4.137-9.4,11.259-11.53,6.648-1.99,16.23-1.705,25.847-1.069a88.614,88.614,0,0,1,13.454,3.293,66.181,66.181,0,0,1,6.716,2.439c1.434.652,3.044,1.612,4.3,2.316,6.853,3.827,10.274,9.321,9.968,13.449" fill="#ffe200"/><path d="M159.586,149.794a89.428,89.428,0,0,1-9.645-.541l-.026,0c-1.088-.176-2.1-.332-3.086-.484-5.108-.787-8.8-1.356-13.288-3.166-2.05-.826-6.3-2.75-8.007-3.661a22.519,22.519,0,0,1-3.977-2.856c-.427-.359-.83-.7-1.247-1.026-4.123-3.241-6.187-6.7-5.969-10a11.284,11.284,0,0,1,3.2-7.077,18.879,18.879,0,0,1,8.418-4.9c3.514-1.052,8.121-1.563,14.086-1.563,3.3,0,6.979.146,11.938.474l.048.006a88.919,88.919,0,0,1,13.53,3.312l1.117.369a53.624,53.624,0,0,1,5.648,2.09c1.146.521,2.39,1.228,3.487,1.852.3.171.584.332.854.483a23.671,23.671,0,0,1,7.833,6.76,11.4,11.4,0,0,1,2.391,7.149c-.081,3.972-2.85,7.268-8.009,9.534C174.044,148.672,167.372,149.794,159.586,149.794Zm-9.524-1.534a88.416,88.416,0,0,0,9.524.534c7.649,0,14.181-1.093,18.891-3.162,3.334-1.464,7.326-4.154,7.411-8.651v-.028c.268-3.609-2.632-9.021-9.713-12.976-.273-.152-.558-.315-.86-.486-1.079-.613-2.3-1.309-3.407-1.811a52.886,52.886,0,0,0-5.547-2.05l-1.12-.37a87.9,87.9,0,0,0-13.354-3.27c-4.923-.325-8.578-.47-11.848-.47-5.866,0-10.379.5-13.8,1.521-6.443,1.929-10.62,6.174-10.9,11.08-.2,2.959,1.737,6.121,5.589,9.149.43.338.858.7,1.273,1.047a21.724,21.724,0,0,0,3.8,2.739c1.682.9,5.882,2.8,7.911,3.615,4.382,1.767,8.025,2.328,13.067,3.105C147.963,147.929,148.976,148.085,150.063,148.26Z"/><path d="M143.5,141.322a.5.5,0,0,1-.13-.017c-1.685-.451-3.408-.883-5.075-1.3-3.468-.869-7.054-1.768-10.506-2.9a.5.5,0,0,1-.34-.547,4.832,4.832,0,0,1,1.385-2.5,5.84,5.84,0,0,0,1-1.418c.06-.138.138-.346.221-.566.418-1.115.728-1.862,1.211-2.079a.693.693,0,0,1,.538-.017.5.5,0,0,1-.149.965,8.2,8.2,0,0,0-.663,1.482c-.091.244-.17.454-.241.617a6.684,6.684,0,0,1-1.163,1.671,4.955,4.955,0,0,0-1.055,1.58c3.285,1.052,6.7,1.907,10,2.735,1.671.419,3.4.852,5.091,1.305a.5.5,0,0,1-.129.983Z"/><path d="M134.046,138.652a.5.5,0,0,1-.4-.8,13.49,13.49,0,0,0,2.215-3.846.5.5,0,1,1,.957.291,14.522,14.522,0,0,1-2.369,4.15A.5.5,0,0,1,134.046,138.652Z"/><path d="M145.938,135.215a.5.5,0,0,1-.239-.061,17.194,17.194,0,0,0-4.563-1.461.5.5,0,0,1-.388-.082l-.5-.1c-.9-.187-1.755-.363-2.558-.579-.349-.094-.7-.166-1.077-.241a12.389,12.389,0,0,1-1.638-.409.5.5,0,0,1-.334-.52c.128-1.345,1.631-2.119,2.353-2.491,1.221-.629,2.5-1.09,3.6.732a6.965,6.965,0,0,1,.712,2.158c.022.1.043.205.065.3a13.508,13.508,0,0,1,3.24-.854,11.7,11.7,0,0,0,1.785-.4.5.5,0,0,1,.345.939,12.259,12.259,0,0,1-1.956.446,20.016,20.016,0,0,0-2.053.437,14.45,14.45,0,0,1,3.451,1.247.5.5,0,0,1-.24.939Zm-10.181-3.742c.337.09.687.161,1.051.234s.76.153,1.14.256c.747.2,1.553.37,2.4.546l-.03-.144a6.14,6.14,0,0,0-.591-1.85c-.61-1.018-1.058-.988-2.282-.358A4.188,4.188,0,0,0,135.756,131.473Z"/><path d="M141.847,123.814h0c.363,0,.741.014,1.189.045a9.9,9.9,0,0,1,2.8.873c1.442.666,2.3,1.4,2.554,2.181a1.712,1.712,0,0,1-.719,1.927,4.135,4.135,0,0,1-2.687.76c-2.532,0-5.652-1.188-6.846-2.578a.922.922,0,0,1-.662-.512c-.208-.486.14-.98.348-1.276C138.481,124.292,139.836,123.814,141.847,123.814Zm3.132,4.787a3.254,3.254,0,0,0,2.048-.53c.537-.446.442-.74.406-.851-.366-1.134-3.566-2.3-4.466-2.364-.424-.029-.78-.043-1.12-.043-1.666,0-2.746.335-3.21,1-.038.055-.117.166-.172.262l.018,0a.5.5,0,0,1,.327.2C139.706,127.468,142.7,128.6,144.979,128.6Z"/><path d="M152.718,126.1a.5.5,0,0,1-.328-.877,3.383,3.383,0,0,0,1.238-2.845,1.371,1.371,0,0,0-1.081-1.024c-1.712-.509-3.445-.963-5.139-1.371a7.492,7.492,0,0,1,1.4,1.212l.151.162c.5.534,1.124,1.2,1.022,1.954a1.426,1.426,0,0,1-.75,1.018c-1.542.939-4.96.156-6.035-.192-2.03-.655-3.317-1.789-3.624-3.193a3.742,3.742,0,0,1,1.255-3.406.5.5,0,0,1,.663.119c3.422.7,7.43,1.575,11.341,2.739a2.33,2.33,0,0,1,1.773,1.771,4.354,4.354,0,0,1-1.56,3.812A.5.5,0,0,1,152.718,126.1Zm-11.635-7.45a3.083,3.083,0,0,0-.533,2.08c.307,1.405,1.982,2.141,2.954,2.455,1.556.5,4.231.884,5.207.29.119-.072.264-.183.28-.3.038-.283-.462-.817-.76-1.135l-.158-.169a8.164,8.164,0,0,0-3.7-2.2,7.531,7.531,0,0,0-1.008-.239A5.487,5.487,0,0,1,141.083,118.646Z"/><path d="M163.266,145.774a.657.657,0,0,1-.166-.022.5.5,0,0,1-.491-.345,20.947,20.947,0,0,0-4.971-1.3c-.659-.117-1.282-.228-1.871-.356-1.138-.247-2.341-.435-3.5-.617a40.05,40.05,0,0,1-5.626-1.159.5.5,0,0,1,.3-.955,39.309,39.309,0,0,0,5.485,1.126c1.177.184,2.394.375,3.561.628.571.124,1.185.233,1.835.349a19.317,19.317,0,0,1,5.662,1.6.5.5,0,0,1,.193.187.57.57,0,0,1,0,.672A.506.506,0,0,1,163.266,145.774Z"/><path d="M154.922,143.423a.5.5,0,0,1-.343-.136,7.538,7.538,0,0,0-.725-.574l-.183-.134a45.065,45.065,0,0,1-4.218-3.68l-.126-.12c-.109-.1-.211-.216-.309-.325a1.7,1.7,0,0,0-.659-.541.5.5,0,0,1,.285-.958,2.517,2.517,0,0,1,1.117.831c.089.1.173.192.254.269l.126.12a43.644,43.644,0,0,0,4.124,3.6l.179.131c.192.14.388.283.575.438a11.04,11.04,0,0,1,1.716-.439c.332-.066.645-.129.946-.206,1.483-.383,2.989-.69,4.446-.987l.745-.152a15.369,15.369,0,0,1,2.2-.312.5.5,0,0,1,.072,1,14.471,14.471,0,0,0-2.07.294l-.747.153c-1.511.308-2.938.6-4.4.976-.328.085-.67.153-1,.219a8.511,8.511,0,0,0-1.8.494A.5.5,0,0,1,154.922,143.423Z"/><path d="M165.646,139.852a.5.5,0,0,1-.114-.013c-.179-.042-.357-.088-.534-.137-.631-.157-1.27-.3-1.892-.437-.874-.194-1.777-.394-2.666-.638a10.16,10.16,0,0,1-1.824-.7l-.527-.114c-1.393-.3-2.834-.612-4.228-1.021a.5.5,0,1,1,.281-.96c.635.186,1.283.352,1.934.507-1.111-.835-1.612-1.531-1.574-2.185a1.231,1.231,0,0,1,.7-1.011,4.5,4.5,0,0,1,3.1-.126l.342.066c1.689.313,3.339.743,4.884,1.157.553.149,1.1.315,1.633.476.494.15,1,.3,1.511.443l.094.025a.5.5,0,0,1-.263.965l-.091-.024-.018,0-.091-.024-.027-.008c-.476-.132-.948-.275-1.406-.414-.523-.159-1.064-.323-1.6-.467-1.526-.408-3.154-.833-4.807-1.139-.114-.021-.233-.045-.354-.069a3.746,3.746,0,0,0-2.414.014c-.072.041-.193.122-.2.2,0,.045.01.47,1.26,1.389a15.784,15.784,0,0,0,2.191,1.375c1.071.233,2.162.48,3.228.779.524.147,1.048.325,1.555.5s1.012.344,1.52.486q.26.065.519.133a.5.5,0,0,1-.128.983Z"/><path d="M159.48,128.419h0a14.838,14.838,0,0,1,6.725,1.748c.767.436,2.8,2.017,2.1,3.508a1.681,1.681,0,0,1-1.712.855,6.9,6.9,0,0,1-1.462-.2l-.468-.1a29.082,29.082,0,0,1-5.982-1.8,6.009,6.009,0,0,1-2.574-1.873.5.5,0,0,1-.074-.191c-.16-.959.678-1.528,1.444-1.725A8.138,8.138,0,0,1,159.48,128.419Zm7.117,5.111c.308,0,.7-.048.806-.278.3-.65-.94-1.788-1.692-2.215a13.746,13.746,0,0,0-6.23-1.618h0a7.143,7.143,0,0,0-1.752.2c-.072.019-.664.18-.707.5a5.774,5.774,0,0,0,2.093,1.412,28.36,28.36,0,0,0,5.771,1.723l.47.105A5.967,5.967,0,0,0,166.6,133.53Z"/><path d="M157.745,127.386a.5.5,0,0,1-.175-.969,10.833,10.833,0,0,1,3.629-.515c.512-.013,1.042-.026,1.562-.074.3-.028.6-.058.9-.088a25.959,25.959,0,0,1,3.758-.194,8.245,8.245,0,0,0,1.436-.115c.214-.03.415-.057.609-.076a.5.5,0,0,1,.1,1c-.174.017-.366.044-.57.072a9.128,9.128,0,0,1-1.614.123,25.206,25.206,0,0,0-3.617.19c-.3.03-.6.06-.907.088-.553.051-1.1.064-1.629.078a9.92,9.92,0,0,0-3.3.452A.5.5,0,0,1,157.745,127.386Z"/><path d="M168.835,130.586a.5.5,0,0,1-.355-.148,4.164,4.164,0,0,0-.829-.541,8.119,8.119,0,0,1-.744-.449q-.475-.338-.947-.676c-1.094-.783-2.226-1.593-3.374-2.344l-.256-.167a26.077,26.077,0,0,1-3.2-2.325c-.049-.044-.1-.081-.153-.121a1.341,1.341,0,0,1-.508-.6.5.5,0,1,1,.926-.379c.026.063.051.085.178.18.063.047.142.105.226.18a25.337,25.337,0,0,0,3.075,2.232l.257.168c1.165.762,2.305,1.579,3.408,2.368q.471.337.944.674a7.418,7.418,0,0,0,.652.391,4.746,4.746,0,0,1,1.054.711.5.5,0,0,1-.355.852Z"/><path d="M138.622,156.068a.5.5,0,0,1-.186-.036c-1.5-.6-3.071-1.136-4.585-1.652-1.572-.535-3.2-1.088-4.77-1.725a31.743,31.743,0,0,1-6.686-3.934.5.5,0,0,1,.581-.814,30.909,30.909,0,0,0,6.48,3.82c1.547.626,3.159,1.174,4.717,1.705,1.527.52,3.105,1.057,4.635,1.67a.5.5,0,0,1-.186.964Z" fill="#fff"/><path d="M148.618,156.618a.5.5,0,0,1-.151-.024,36.875,36.875,0,0,0-4.9-1.075,24.083,24.083,0,0,1-7.733-2.261.5.5,0,0,1,.48-.877,22.976,22.976,0,0,0,7.422,2.153,37.633,37.633,0,0,1,5.029,1.107.5.5,0,0,1-.151.977Z" fill="#fff"/><path d="M144.275,118.335c.386,11.213-16.7,17.324-38.14,15.659-7.232-.979-11.806-1.26-17.591-3.553-2.188-.868-6.838-2.951-8.721-3.957a37.05,37.05,0,0,1-5.734-4.319c-4.291-3.416-6.786-7.241-6.755-11.109,0-2.786-1.395-7.582.4-10.016,1.894-2.568,7.079-2.737,10.916-4.206,6.976-2.672,17.226-2.774,27.533-2.461a87.388,87.388,0,0,1,14.568,3.294,66.9,66.9,0,0,1,7.32,2.589c1.571.709,3.349,1.776,4.737,2.554,6.147,3.445,9.5,2.764,10.656,7.107.264.993.825,7.5.811,8.418" fill="#ffe200"/><path d="M112.979,135.265c-2.254,0-4.583-.092-6.922-.274l-.057-.006c-1.169-.158-2.261-.3-3.318-.432-5.541-.705-9.544-1.215-14.508-3.183-2.252-.894-6.936-3-8.824-4a25.006,25.006,0,0,1-4.5-3.263c-.476-.405-.926-.789-1.387-1.155-4.7-3.739-7.163-7.852-7.133-11.895a24.826,24.826,0,0,0-.226-2.645c-.327-2.766-.7-5.9.821-7.962,1.472-2,4.313-2.678,7.322-3.4A33.526,33.526,0,0,0,78.292,95.9c4.722-1.809,11.3-2.651,20.693-2.651,2.136,0,4.433.04,7.228.124l.054,0,.053.007a88.194,88.194,0,0,1,14.736,3.332q.622.2,1.215.386a54.643,54.643,0,0,1,6.211,2.243c1.274.575,2.653,1.362,3.87,2.057q.5.285.944.536a39.146,39.146,0,0,0,5.2,2.382c2.928,1.151,5.044,1.983,5.937,5.34a85.27,85.27,0,0,1,.845,8.663,11.449,11.449,0,0,1-3.464,8.551,19.818,19.818,0,0,1-4.968,3.634,34.137,34.137,0,0,1-6.653,2.616A64.061,64.061,0,0,1,112.979,135.265ZM106.241,133c2.278.176,4.545.266,6.739.266a62.053,62.053,0,0,0,16.663-2.064c4.7-1.342,8.414-3.319,10.731-5.716a9.52,9.52,0,0,0,2.9-7.115v-.05c.013-.829-.543-7.265-.778-8.146-.633-2.379-1.919-2.885-4.737-3.993a41.4,41.4,0,0,1-5.442-2.5c-.3-.171-.622-.352-.958-.544-1.178-.673-2.514-1.435-3.7-1.971a53.158,53.158,0,0,0-5.993-2.16q-.6-.189-1.221-.389A86.165,86.165,0,0,0,106.1,95.371c-2.75-.083-5.011-.122-7.113-.122-9.143,0-15.491.8-19.978,2.519a34.97,34.97,0,0,1-4.29,1.223c-2.644.635-5.141,1.234-6.179,2.642-1.05,1.423-.728,4.142-.445,6.54a26.009,26.009,0,0,1,.24,2.883v.008c-.027,3.407,2.178,6.975,6.378,10.319.487.387.97.8,1.438,1.2a23.428,23.428,0,0,0,4.145,3.022c1.836.981,6.412,3.034,8.618,3.909,4.729,1.875,8.628,2.371,14.023,3.058C103.987,132.7,105.075,132.841,106.241,133Z"/><path d="M143.72,111.9c.386,11.213-16.7,17.324-38.14,15.659-7.232-.979-11.806-1.26-17.591-3.553-2.188-.868-6.838-2.951-8.721-3.957a37.05,37.05,0,0,1-5.734-4.319c-4.291-3.416-6.786-7.241-6.755-11.109,0-5.725,3.842-11.36,11.316-14.222,6.976-2.672,17.226-2.774,27.533-2.461A87.388,87.388,0,0,1,120.2,91.236a66.9,66.9,0,0,1,7.32,2.589c1.571.709,3.349,1.776,4.737,2.554,7.552,4.233,11.541,10.605,11.467,15.525" fill="#ffe200"/><path d="M112.424,128.834c-2.254,0-4.583-.092-6.922-.274l-.057-.006c-1.169-.158-2.261-.3-3.318-.432-5.541-.705-9.544-1.215-14.508-3.183-2.252-.894-6.936-3-8.824-4a25.006,25.006,0,0,1-4.5-3.263c-.476-.405-.926-.789-1.387-1.155-4.7-3.739-7.163-7.852-7.133-11.9a14.429,14.429,0,0,1,3.061-8.788,20.107,20.107,0,0,1,8.9-6.364c4.722-1.809,11.3-2.651,20.693-2.651,2.136,0,4.433.04,7.228.124l.054,0,.053.007A88.2,88.2,0,0,1,120.5,90.284q.622.2,1.215.386a54.644,54.644,0,0,1,6.211,2.243c1.274.575,2.653,1.362,3.87,2.057q.5.285.944.536a27.093,27.093,0,0,1,8.921,7.8,15.075,15.075,0,0,1,3.057,8.587,11.451,11.451,0,0,1-3.464,8.549,19.818,19.818,0,0,1-4.968,3.634,34.136,34.136,0,0,1-6.653,2.616A64.061,64.061,0,0,1,112.424,128.834Zm-6.739-2.266c2.278.176,4.545.266,6.739.266a62.054,62.054,0,0,0,16.663-2.064c4.7-1.342,8.414-3.319,10.731-5.716a9.52,9.52,0,0,0,2.9-7.115v-.049c.063-4.194-3.3-10.346-10.956-14.638-.3-.171-.622-.352-.958-.544-1.178-.673-2.514-1.435-3.7-1.971a53.157,53.157,0,0,0-5.993-2.16q-.6-.189-1.221-.389a86.176,86.176,0,0,0-14.347-3.248c-2.75-.083-5.011-.122-7.113-.122-9.143,0-15.491.8-19.978,2.519-6.583,2.521-10.673,7.613-10.674,13.288v.008c-.027,3.407,2.178,6.975,6.378,10.319.487.387.97.8,1.438,1.2a23.429,23.429,0,0,0,4.145,3.022c1.836.981,6.412,3.034,8.618,3.909,4.729,1.875,8.628,2.371,14.023,3.058C103.433,126.272,104.52,126.41,105.686,126.568Z"/><path d="M141.389,111.991c-.178,9.428-16.441,13.94-36.393,11.765-6.712-1.084-10.972-1.485-16.267-3.62-2-.808-6.248-2.725-7.959-3.638a33.6,33.6,0,0,1-5.15-3.834c-3.846-3.023-5.994-6.325-5.779-9.571.277-4.806,4.137-9.4,11.259-11.53,6.648-1.99,16.23-1.705,25.847-1.069A88.614,88.614,0,0,1,120.4,93.787a66.18,66.18,0,0,1,6.716,2.439c1.434.652,3.044,1.612,4.3,2.316,6.853,3.827,10.274,9.321,9.968,13.449" fill="#ffe200"/><path d="M114.586,124.794a89.432,89.432,0,0,1-9.645-.541l-.026,0c-1.088-.176-2.1-.332-3.086-.484-5.108-.787-8.8-1.356-13.288-3.166-2.05-.826-6.3-2.75-8.007-3.661a22.519,22.519,0,0,1-3.977-2.856c-.427-.359-.83-.7-1.247-1.026-4.123-3.241-6.187-6.7-5.969-10a11.284,11.284,0,0,1,3.2-7.077,18.879,18.879,0,0,1,8.418-4.9c3.514-1.052,8.121-1.563,14.086-1.563,3.3,0,6.979.146,11.938.474l.048.006a88.92,88.92,0,0,1,13.53,3.312l1.117.369a53.625,53.625,0,0,1,5.648,2.09c1.146.521,2.39,1.228,3.487,1.852.3.171.584.332.854.483a23.672,23.672,0,0,1,7.833,6.76,11.4,11.4,0,0,1,2.391,7.149c-.081,3.972-2.85,7.268-8.009,9.534C129.044,123.672,122.372,124.794,114.586,124.794Zm-9.524-1.534a88.414,88.414,0,0,0,9.524.534c7.649,0,14.181-1.093,18.891-3.162,3.334-1.464,7.326-4.154,7.411-8.651v-.028c.268-3.609-2.632-9.021-9.713-12.976-.273-.152-.558-.315-.86-.486-1.079-.613-2.3-1.309-3.407-1.811a52.885,52.885,0,0,0-5.547-2.05l-1.12-.37a87.9,87.9,0,0,0-13.354-3.27c-4.923-.325-8.578-.47-11.848-.47-5.866,0-10.379.5-13.8,1.521-6.443,1.929-10.62,6.174-10.9,11.08-.2,2.959,1.737,6.121,5.589,9.149.43.338.858.7,1.273,1.047a21.724,21.724,0,0,0,3.8,2.739c1.682.9,5.883,2.8,7.911,3.615,4.382,1.767,8.025,2.328,13.067,3.105C102.963,122.929,103.976,123.085,105.063,123.26Z"/><path d="M98.5,116.322a.5.5,0,0,1-.13-.017c-1.685-.451-3.408-.883-5.075-1.3-3.468-.869-7.054-1.768-10.506-2.9a.5.5,0,0,1-.34-.547,4.832,4.832,0,0,1,1.385-2.5,5.839,5.839,0,0,0,1-1.418c.06-.138.138-.346.221-.566.418-1.115.728-1.862,1.211-2.079a.693.693,0,0,1,.538-.017.5.5,0,0,1-.149.965A8.205,8.205,0,0,0,86,107.432c-.091.244-.17.454-.241.617a6.683,6.683,0,0,1-1.163,1.671,4.955,4.955,0,0,0-1.055,1.58c3.285,1.052,6.7,1.907,10,2.735,1.671.419,3.4.852,5.091,1.305a.5.5,0,0,1-.129.983Z"/><path d="M89.046,113.652a.5.5,0,0,1-.4-.8,13.491,13.491,0,0,0,2.215-3.846.5.5,0,0,1,.957.291,14.522,14.522,0,0,1-2.369,4.15A.5.5,0,0,1,89.046,113.652Z"/><path d="M100.938,110.215a.5.5,0,0,1-.239-.061,17.2,17.2,0,0,0-4.563-1.461.5.5,0,0,1-.388-.082l-.5-.1c-.9-.187-1.754-.363-2.558-.579-.349-.094-.7-.166-1.077-.241a12.388,12.388,0,0,1-1.638-.409.5.5,0,0,1-.334-.52c.128-1.345,1.631-2.119,2.353-2.491,1.221-.629,2.5-1.09,3.6.732a6.964,6.964,0,0,1,.712,2.158c.022.1.043.205.065.3a13.505,13.505,0,0,1,3.24-.854,11.7,11.7,0,0,0,1.785-.4.5.5,0,0,1,.345.939,12.257,12.257,0,0,1-1.956.446,20.021,20.021,0,0,0-2.053.437,14.451,14.451,0,0,1,3.451,1.247.5.5,0,0,1-.24.939Zm-10.181-3.742c.337.09.687.161,1.051.234s.76.153,1.14.256c.747.2,1.553.37,2.4.546l-.03-.144a6.14,6.14,0,0,0-.591-1.85c-.61-1.018-1.058-.988-2.282-.358A4.188,4.188,0,0,0,90.756,106.473Z"/><path d="M96.847,98.814h0c.363,0,.741.014,1.189.045a9.9,9.9,0,0,1,2.8.873c1.442.666,2.3,1.4,2.554,2.181a1.712,1.712,0,0,1-.719,1.927,4.135,4.135,0,0,1-2.687.76c-2.532,0-5.652-1.188-6.846-2.578a.922.922,0,0,1-.662-.512c-.208-.486.14-.98.348-1.276C93.481,99.292,94.836,98.814,96.847,98.814Zm3.132,4.787a3.253,3.253,0,0,0,2.048-.53c.537-.446.442-.74.406-.851-.366-1.134-3.566-2.3-4.466-2.364-.424-.029-.78-.043-1.12-.043-1.666,0-2.746.335-3.21,1-.038.055-.117.166-.172.262l.018,0a.5.5,0,0,1,.327.2C94.706,102.468,97.7,103.6,99.979,103.6Z"/><path d="M107.718,101.1a.5.5,0,0,1-.328-.877,3.383,3.383,0,0,0,1.238-2.845,1.371,1.371,0,0,0-1.081-1.024c-1.712-.509-3.445-.963-5.139-1.371a7.49,7.49,0,0,1,1.4,1.212l.151.162c.5.534,1.124,1.2,1.022,1.954a1.426,1.426,0,0,1-.75,1.018c-1.542.939-4.96.156-6.035-.192-2.03-.655-3.317-1.789-3.624-3.193a3.742,3.742,0,0,1,1.255-3.406.5.5,0,0,1,.663.119c3.422.7,7.43,1.575,11.341,2.739a2.33,2.33,0,0,1,1.773,1.771,4.354,4.354,0,0,1-1.56,3.812A.5.5,0,0,1,107.718,101.1Zm-11.635-7.45a3.083,3.083,0,0,0-.533,2.08c.307,1.405,1.982,2.141,2.954,2.455,1.556.5,4.231.884,5.207.29.119-.072.264-.183.28-.3.038-.283-.462-.817-.76-1.135l-.158-.169a8.164,8.164,0,0,0-3.7-2.2,7.531,7.531,0,0,0-1.008-.239A5.487,5.487,0,0,1,96.083,93.646Z"/><path d="M118.267,120.775a.655.655,0,0,1-.168-.023.5.5,0,0,1-.489-.344,20.907,20.907,0,0,0-4.97-1.3c-.66-.117-1.283-.228-1.873-.356-1.138-.247-2.34-.435-3.5-.617a40.108,40.108,0,0,1-5.628-1.16.5.5,0,1,1,.3-.955,39.366,39.366,0,0,0,5.487,1.127c1.177.184,2.393.375,3.559.628.571.124,1.186.233,1.836.349a19.283,19.283,0,0,1,5.661,1.6.5.5,0,0,1,.192.187.57.57,0,0,1,0,.673A.506.506,0,0,1,118.267,120.775Z"/><path d="M109.922,118.423a.5.5,0,0,1-.343-.136,7.531,7.531,0,0,0-.725-.574l-.183-.134a45.059,45.059,0,0,1-4.217-3.679l-.127-.12c-.109-.1-.211-.216-.309-.325a1.706,1.706,0,0,0-.659-.542.5.5,0,0,1,.286-.958,2.523,2.523,0,0,1,1.116.831c.089.1.173.192.254.269l.127.12a43.641,43.641,0,0,0,4.123,3.6l.179.131c.192.14.388.283.575.438a11.04,11.04,0,0,1,1.716-.439c.332-.066.645-.129.946-.206,1.483-.383,2.99-.69,4.446-.987l.745-.152a15.371,15.371,0,0,1,2.2-.312.5.5,0,1,1,.072,1,14.47,14.47,0,0,0-2.07.294l-.746.153c-1.511.308-2.938.6-4.4.976-.328.085-.67.153-1,.219a8.511,8.511,0,0,0-1.8.494A.5.5,0,0,1,109.922,118.423Z"/><path d="M120.646,114.852a.5.5,0,0,1-.114-.013c-.179-.042-.357-.088-.534-.137-.631-.157-1.27-.3-1.892-.437-.874-.194-1.777-.394-2.666-.638a10.159,10.159,0,0,1-1.824-.7l-.527-.114c-1.393-.3-2.834-.612-4.228-1.021a.5.5,0,0,1,.281-.96c.635.186,1.283.352,1.934.507-1.111-.835-1.612-1.531-1.574-2.185a1.231,1.231,0,0,1,.7-1.011,4.5,4.5,0,0,1,3.1-.126l.342.066c1.689.313,3.339.743,4.884,1.157.553.149,1.1.315,1.633.476.493.15,1,.3,1.509.442l.1.026a.5.5,0,0,1-.263.965l-.093-.025-.016,0-.09-.024-.026-.008c-.476-.132-.948-.275-1.407-.414-.523-.159-1.064-.323-1.6-.467-1.526-.408-3.154-.833-4.807-1.139-.114-.021-.233-.045-.354-.069a3.746,3.746,0,0,0-2.414.014c-.072.041-.193.122-.2.2,0,.045.01.47,1.26,1.389a15.783,15.783,0,0,0,2.191,1.375c1.071.233,2.162.48,3.228.779.524.147,1.048.325,1.555.5s1.012.344,1.52.486q.26.065.519.134a.5.5,0,0,1-.128.983Z"/><path d="M114.48,103.419h0a14.838,14.838,0,0,1,6.725,1.748c.767.436,2.8,2.017,2.1,3.508a1.681,1.681,0,0,1-1.712.855,6.9,6.9,0,0,1-1.462-.2l-.468-.1a29.083,29.083,0,0,1-5.982-1.8,6.009,6.009,0,0,1-2.574-1.873.5.5,0,0,1-.074-.191c-.16-.959.678-1.528,1.444-1.725A8.138,8.138,0,0,1,114.48,103.419Zm7.117,5.111c.308,0,.7-.048.806-.278.3-.65-.94-1.788-1.692-2.215a13.746,13.746,0,0,0-6.23-1.618h0a7.144,7.144,0,0,0-1.752.2c-.072.019-.664.18-.707.5a5.775,5.775,0,0,0,2.093,1.412,28.359,28.359,0,0,0,5.771,1.723l.47.105A5.966,5.966,0,0,0,121.6,108.53Z"/><path d="M112.745,102.386a.5.5,0,0,1-.175-.969,10.832,10.832,0,0,1,3.629-.515c.512-.013,1.042-.026,1.562-.074.3-.028.6-.058.9-.088a25.962,25.962,0,0,1,3.758-.194,8.241,8.241,0,0,0,1.436-.115c.214-.03.415-.057.609-.076a.5.5,0,1,1,.1,1c-.174.017-.366.044-.57.072a9.136,9.136,0,0,1-1.614.123,25.2,25.2,0,0,0-3.617.19c-.3.03-.6.06-.907.088-.553.051-1.1.064-1.629.078a9.92,9.92,0,0,0-3.3.452A.5.5,0,0,1,112.745,102.386Z"/><path d="M123.835,105.586a.5.5,0,0,1-.355-.148,4.164,4.164,0,0,0-.83-.541,8.119,8.119,0,0,1-.744-.449q-.475-.338-.947-.676c-1.094-.783-2.226-1.593-3.374-2.344l-.256-.167a26.075,26.075,0,0,1-3.2-2.325c-.049-.044-.1-.081-.153-.121a1.341,1.341,0,0,1-.508-.6.5.5,0,1,1,.925-.379c.026.063.051.085.178.18.063.047.142.105.226.18a25.335,25.335,0,0,0,3.075,2.232l.257.168c1.165.762,2.305,1.579,3.408,2.368q.471.337.944.674a7.415,7.415,0,0,0,.652.391,4.747,4.747,0,0,1,1.054.711.5.5,0,0,1-.355.852Z"/><path d="M93.622,131.068a.5.5,0,0,1-.186-.036c-1.5-.6-3.071-1.136-4.585-1.652-1.572-.535-3.2-1.088-4.77-1.725a31.743,31.743,0,0,1-6.686-3.934.5.5,0,0,1,.581-.814,30.91,30.91,0,0,0,6.48,3.82c1.547.626,3.159,1.174,4.717,1.705,1.527.52,3.105,1.057,4.635,1.67a.5.5,0,0,1-.186.964Z" fill="#fff"/><path d="M103.618,131.618a.5.5,0,0,1-.151-.024,36.875,36.875,0,0,0-4.9-1.075,24.083,24.083,0,0,1-7.733-2.261.5.5,0,0,1,.48-.877,22.975,22.975,0,0,0,7.422,2.153,37.632,37.632,0,0,1,5.029,1.107.5.5,0,0,1-.151.977Z" fill="#fff"/></g></svg>