<?xml version="1.0" encoding="UTF-8"?>
<svg xmlns="http://www.w3.org/2000/svg" version="1.1" xmlns:xlink="http://www.w3.org/1999/xlink" viewBox="0 0 238.4 41">
  <defs>
    <style>
      .cls-1 {
        fill: #fff;
        fill-rule: evenodd;
      }

      .cls-2 {
        fill: none;
      }

      .cls-3 {
        clip-path: url(#clippath-1);
      }

      .cls-4 {
        opacity: .9;
      }

      .cls-5 {
        clip-path: url(#clippath-2);
      }

      .cls-6 {
        clip-path: url(#clippath);
      }
    </style>
    <clipPath id="clippath">
      <rect class="cls-2" y="0" width="238.4" height="41"/>
    </clipPath>
    <clipPath id="clippath-1">
      <rect class="cls-2" y="0" width="238.4" height="41"/>
    </clipPath>
    <clipPath id="clippath-2">
      <rect class="cls-2" y="0" width="238.4" height="41"/>
    </clipPath>
  </defs>
  <!-- Generator: Adobe Illustrator 28.7.4, SVG Export Plug-In . SVG Version: 1.2.0 Build 166)  -->
  <g>
    <g id="Layer_1">
      <g class="cls-6">
        <g class="cls-3">
          <g class="cls-4">
            <g class="cls-5">
              <path class="cls-1" d="M35.1,24.5c-.7.4-1.5.5-2.2.1-.8-.5-1.3-1.5-1.3-3v-4.5c0-2.2-.9-3.7-2.3-4.1-2.4-.7-4.2,2.3-4.9,3.4l-4.3,6.9v-8.5c0-1.9-.7-3.1-1.9-3.5-.8-.2-2-.1-3.1,1.6l-9.6,15.4c-1.3-2.4-1.9-5.1-1.9-7.9,0-9.2,7.3-16.7,16.5-16.8,9.2,0,16.6,7.6,16.5,16.8,0,0,0,0,0,0s0,0,0,0c.2,1.5-.4,3-1.6,3.9h0ZM40.4,20.5h0C40.4,9.2,31.4,0,20.2,0,9,0,0,9.3,0,20.5c0,11.2,9,20.4,20.2,20.5,5.1,0,10-2,13.7-5.5.7-.7.8-1.9,0-2.6-.7-.7-1.8-.8-2.6-.1,0,0,0,0,0,0h0c-6.5,6.2-16.9,5.9-23.1-.6-.1-.2-.3-.3-.4-.5l8.6-13.8v6.4c0,3.1,1.2,4.1,2.2,4.3s2.5,0,4.1-2.5l4.7-7.7c.2-.2.3-.5.4-.6v3.9c0,2.9,1.1,5.2,3.1,6.3,1.9,1,4.1.9,5.9-.2,2.2-1.4,3.4-4,3.3-7.2M68.5,13.5c.5.3.9.9.9,1.5,0,.9-.8,1.7-1.7,1.7-.2,0-.4,0-.6-.1-1.1-.8-2.5-1.3-3.8-1.3-3.4,0-5.7,2.8-5.7,6.2s2.3,6.1,5.7,6.1c1.6,0,3.1-.6,4.3-1.7.3-.2.6-.3,1-.3.9,0,1.6.7,1.6,1.6,0,0,0,0,0,0,0,.6-.3,1.1-.8,1.4-1.7,1.5-3.8,2.3-6.1,2.3-5.3,0-9.5-4.4-9.4-9.6,0-5.1,4.2-9.3,9.4-9.4,1.9,0,3.7.6,5.3,1.6M78,17.5c3.6,0,6.5,3,6.5,6.7,0,3.6-2.8,6.7-6.5,6.8-3.7,0-6.7-3.1-6.8-6.8,0-3.7,3.1-6.7,6.8-6.7M77.9,27.6c1.6,0,2.9-1.5,2.9-3.5.2-1.6-1.1-3.1-2.7-3.2,0,0-.1,0-.2,0-1.7,0-3.1,1.3-3.1,3,0,0,0,.2,0,.3-.1,1.8,1.2,3.3,3,3.5,0,0,0,0,0,0M86.7,28.9v-9.4c0-1,.8-1.8,1.8-1.9,1,0,1.8.8,1.8,1.9v9.4c0,1-.8,1.9-1.8,1.9-1,0-1.8-.9-1.8-1.9M86.4,14.1c0-1.2.9-2.2,2.1-2.2,0,0,0,0,0,0,1.2,0,2.2,1,2.2,2.2,0,0,0,0,0,0,0,1.2-1,2.1-2.2,2.1,0,0,0,0,0,0-1.2,0-2.1-1-2.1-2.1,0,0,0,0,0,0M97.3,23.8v5.1c0,1-.8,1.9-1.8,1.9-1,0-1.8-.9-1.8-1.9v-9.8c0-.8.6-1.4,1.4-1.4.8,0,1.4.7,1.4,1.4,1.1-1.1,2.5-1.7,4-1.6,3.7,0,5.3,2.8,5.3,5.9v5.5c0,1-.8,1.9-1.8,1.9-1,0-1.8-.9-1.8-1.9v-5.1c0-1.6-.2-3-2.5-3s-2.3,1.3-2.3,3h0ZM117.6,25.7c-.4,0-.7-.2-.9-.5l-4.3-4.6v8.2c0,1-.8,1.9-1.8,1.9-1,0-1.8-.9-1.8-1.9V12.6c.1-.3.4-.5.7-.5.3,0,.6.2.8.5l6.8,7.6c.2.3.5.5.9.3.1,0,.2-.2.3-.3l6.8-7.6c.2-.2.5-.4.8-.5.3,0,.6.2.7.5v16.3c0,1-.8,1.8-1.8,1.9-1,0-1.8-.8-1.8-1.9v-8.2l-4.3,4.6c-.2.3-.5.4-.9.5h0ZM135.2,27.6c1.8-.1,3.2-1.7,3-3.4,0,0,0,0,0,0,.1-1.7-1.2-3.2-2.9-3.3,0,0,0,0-.1,0-1.7,0-3,1.5-2.9,3.2,0,0,0,.1,0,.2-.2,1.8,1.1,3.3,2.9,3.5M139.1,29.3v-.4c-.8,1.4-3,2-4.5,2-3.4,0-5.9-3.1-5.9-6.8s2.6-6.7,6.1-6.7c1.6,0,3.2.8,4.2,2v-.4c0-.8.7-1.4,1.5-1.4.8,0,1.4.7,1.4,1.4v10.2c0,.8-.6,1.4-1.4,1.4-.8,0-1.4-.7-1.4-1.4h0ZM152,20.8h-.4c-2.3.1-2.7,1.4-2.7,3v5.1c0,1-.8,1.9-1.8,1.9-1,0-1.8-.9-1.8-1.9v-9.8c0-.8.6-1.4,1.4-1.4.8,0,1.4.7,1.4,1.4.9-1,2.2-1.6,3.6-1.6h.4c.9,0,1.7.7,1.7,1.7,0,.9-.7,1.7-1.7,1.7h0ZM166.1,28c.2.3.3.6.3.9,0,1-.8,1.8-1.8,1.8-.7,0-1.3-.5-1.6-1l-4.2-4.9v4c0,1-.8,1.9-1.8,1.9-1,0-1.8-.9-1.8-1.9v-14.9c0-1,.8-1.8,1.8-1.9,1,0,1.8.8,1.8,1.9v9.3l4.2-4.7c.4-.5.9-.9,1.6-1,1,0,1.7.8,1.7,1.8,0,.3,0,.6-.2.9l-3.3,3.6,3.4,4.1h0ZM173.2,20.9c-1,0-2.6.5-2.6,2.1h5.3c0-1.6-1.7-2.1-2.6-2.1h0ZM178,25.3h-7.4c0,2.2,2.1,2.5,3,2.5.8,0,1.6-.2,2.4-.5.3-.2.6-.3.9-.3.8,0,1.5.7,1.5,1.5,0,.5-.3,1-.8,1.3-1.2.7-2.6,1.1-4,1-3.7,0-6.8-2-6.8-6.6s1.9-6.8,6.2-6.8,6.2,2.3,6.3,6.4c0,.8-.6,1.4-1.4,1.4h0ZM188.2,30.9h-1c-2.8,0-4.4-1.2-4.4-5.6v-4.5h-.9c-.9,0-1.7-.8-1.6-1.7,0-.9.7-1.6,1.6-1.6h.9v-3.5c0-1,.8-1.8,1.8-1.9,1,0,1.8.8,1.8,1.9v3.5h1.5c.9,0,1.7.8,1.7,1.7s-.8,1.7-1.7,1.7h-1.5v3.8c0,2.5.1,3,1.2,3h.5c.9,0,1.6.7,1.6,1.6,0,.9-.7,1.6-1.6,1.6h0ZM205.9,13.5c.5.3.9.9.9,1.5,0,.9-.8,1.7-1.7,1.7-.2,0-.4,0-.6-.1-1.1-.8-2.5-1.3-3.8-1.3-3.4,0-5.7,2.8-5.7,6.2s2.3,6.1,5.7,6.1c1.6,0,3.1-.6,4.3-1.7.3-.2.6-.3,1-.3.9,0,1.6.7,1.6,1.6,0,0,0,0,0,0,0,.6-.3,1.1-.8,1.4-1.7,1.5-3.8,2.3-6.1,2.3-5.3,0-9.5-4.4-9.4-9.6,0-5.1,4.2-9.3,9.4-9.4,1.9,0,3.7.6,5.3,1.6ZM215.1,27.6c1.8-.1,3.2-1.7,3-3.4,0,0,0,0,0,0,.1-1.7-1.2-3.2-2.9-3.3,0,0,0,0-.1,0-1.7,0-3,1.5-2.9,3.2,0,0,0,.1,0,.2-.2,1.8,1.1,3.3,2.9,3.5h0ZM219,29.3v-.4c-.8,1.4-3,2-4.5,2-3.4,0-5.9-3.1-5.9-6.8s2.6-6.7,6.1-6.7c1.6,0,3.2.8,4.2,2v-.4c0-.8.7-1.4,1.5-1.4.8,0,1.4.7,1.4,1.4v10.2c0,.8-.6,1.4-1.4,1.4-.8,0-1.4-.7-1.4-1.4M231.9,27.6c1.8-.2,3.1-1.7,2.9-3.5.2-1.7-1.1-3.2-2.8-3.3,0,0-.1,0-.2,0-1.7,0-3.1,1.5-3,3.2,0,0,0,0,0,.1-.1,1.8,1.2,3.3,3,3.5,0,0,0,0,0,0M228.8,29.8v4.7c0,1-.8,1.9-1.8,1.9-1,0-1.8-.9-1.8-1.9v-15.4c0-.8.6-1.4,1.4-1.4.8,0,1.4.6,1.4,1.4,0,0,0,.1,0,.2,1.1-1.1,2.7-1.8,4.3-1.7,3.6,0,6.1,3,6.1,6.7s-2.5,6.8-5.9,6.8c-1.3,0-2.6-.4-3.7-1.1h0Z"/>
            </g>
          </g>
        </g>
      </g>
    </g>
  </g>
</svg>