<?xml version="1.0" encoding="UTF-8"?>
<svg xmlns="http://www.w3.org/2000/svg" version="1.1" viewBox="0 0 165 39">
  <defs>
    <style>
      .cls-1 {
        fill: #fff;
      }
    </style>
  </defs>
  <!-- Generator: Adobe Illustrator 28.7.4, SVG Export Plug-In . SVG Version: 1.2.0 Build 166)  -->
  <g>
    <g id="Layer_1">
      <path class="cls-1" d="M24.4,27.9l-6.8,3v-.3c-1.3.3-2.8.5-4.2.6-6.4,0-11.5-3.4-11.6-7.4v-1.5c2.1,3.1,6.4,5.1,11.6,5.1,1.7,0,3.6-.2,5.1-.6l.6-1.5c-1.8.5-3.7.9-5.7.9-6.4,0-11.5-3.4-11.6-7.4v-1.2c2.1,2.8,6.4,4.9,11.6,4.8,2.3.1,4.6-.4,6.6-1.2l.3-1.5c-1.9,1-4.3,1.6-6.8,1.5-6.4,0-11.5-3.3-11.6-7.4v-1.2c2.1,2.9,6.4,5,11.6,5.1,2.9,0,5.7-.9,8-2.1l.3-1.8c-2.1,1.5-5.1,2.5-8.3,2.7-6.4-.1-11.5-3.5-11.6-7.7,0-4,5.2-7.4,11.6-7.4,3.8,0,7.4,1.4,9.5,3.6l.2.4h1.5l-.2-.4C22.4,1.9,18.1,0,13.5,0,6.3,0,.6,3.9.6,8.6v15.5c.2,4.6,5.8,8.3,12.8,8.3,4.6,0,8.8-1.8,11-4.5Z"/>
      <path class="cls-1" d="M21.6,38.4l2.4-10.2-6.9,3,4.2-17.7h-8.1l2.1-8.7h25.8l-2.1,8.7h-8.4l-1.8,4.8,9.3-3.9-16.5,24ZM25.8,26.1l-1.2,6,9.9-15-8.1,3.6,3.6-8.4h8.1l1.5-6.3h-23.4l-1.5,6.3h8.1l-3.9,16.8,6.9-3Z"/>
      <path class="cls-1" d="M58.3,10.6h0c0,1-.3,1.7-.9,2.3-.6.5-1.4.8-2.5.8s-1.9-.4-2.6-1c-.7-.7-1-1.6-1-2.7v-1.8c0-1.1.3-2,1-2.7.7-.7,1.5-1,2.5-1s1.9.3,2.6.8c.6.5.9,1.3.9,2.2h0s-1.7,0-1.7,0c0-.6-.1-1-.4-1.3-.3-.3-.7-.4-1.3-.4s-1,.2-1.3.7c-.3.4-.5,1-.5,1.7v1.8c0,.7.2,1.3.5,1.7.3.4.8.7,1.3.7s.9-.1,1.2-.4c.3-.3.4-.7.4-1.3h1.7ZM68.2,9.9c0,1.1-.4,2-1,2.7s-1.6,1.1-2.7,1.1-2-.4-2.7-1.1c-.7-.7-1-1.6-1-2.7v-1.6c0-1.1.4-2,1-2.7.7-.7,1.6-1.1,2.7-1.1s2,.4,2.7,1.1c.7.7,1,1.6,1,2.7v1.6h0ZM66.4,8.2c0-.7-.2-1.3-.5-1.7-.4-.4-.8-.7-1.4-.7s-1.1.2-1.4.7c-.3.4-.5,1-.5,1.7v1.6c0,.7.2,1.3.5,1.7.3.4.8.7,1.4.7s1.1-.2,1.4-.7c.4-.4.5-1,.5-1.7v-1.6ZM72.8,13.5h-1.8V4.6h1.8v9ZM83.2,13.5h-1.8l-3.6-6h0v6h-1.8V4.6h1.8l3.6,6h0v-6h1.8v9ZM92.2,6h-2.6v7.6h-1.8v-7.6h-2.5v-1.4h6.9v1.4ZM99.6,9.6h-3.3v2.6h4v1.4h-5.7V4.6h5.7v1.4h-3.9v2.2h3.3v1.4h0ZM104.6,12.2h4v1.4h-5.8V4.6h1.8v7.6ZM116.3,9.6h-3.3v2.6h4v1.4h-5.7V4.6h5.7v1.4h-3.9v2.2h3.3v1.4h0ZM126.4,12.3c-.3.4-.7.7-1.3,1-.5.3-1.3.4-2.1.4s-2-.3-2.6-1c-.7-.7-1-1.6-1-2.6v-1.9c0-1.1.3-2,1-2.6.7-.7,1.5-1,2.6-1s1.9.3,2.5.8c.6.5.9,1.2.8,2.1h0s-1.7,0-1.7,0c0-.5-.1-.8-.4-1.1-.3-.3-.7-.4-1.2-.4s-1,.2-1.3.6c-.3.4-.5,1-.5,1.6v1.9c0,.7.2,1.2.5,1.7.4.4.8.6,1.4.6s.8,0,1-.1c.2,0,.4-.2.6-.3v-1.7h-1.7v-1.3h3.5v3.5h0ZM131,10v3.6h-1.8V4.6h3.1c1,0,1.8.2,2.4.7.6.5.9,1.1.9,1.9s-.1.8-.4,1.2c-.2.3-.6.6-1.1.8.5.2.9.4,1.1.8.2.4.4.8.4,1.4v.7c0,.2,0,.5.1.8,0,.3.2.5.4.6h0c0,.1-1.9.1-1.9.1-.2-.1-.3-.4-.3-.7,0-.3,0-.6,0-.9v-.6c0-.4-.1-.8-.4-1-.2-.2-.6-.4-1-.4h-1.5ZM131,8.6h1.3c.5,0,.9-.1,1.1-.3.2-.2.4-.5.4-1s-.1-.7-.4-1c-.2-.2-.6-.4-1.1-.4h-1.3v2.6ZM143.2,11.6h-2.9l-.6,1.9h-1.9l3-9h1.8l3,9h-1.9l-.6-1.9ZM140.7,10.2h2l-1-3.2h0l-1,3.2ZM149.7,10.3v3.2h-1.8V4.6h3.4c1,0,1.8.3,2.4.8.6.5.9,1.2.9,2.1s-.3,1.6-.9,2.1c-.6.5-1.4.8-2.4.8h-1.6ZM149.7,8.9h1.6c.5,0,.9-.1,1.1-.4.2-.3.4-.6.4-1s-.1-.8-.4-1.1c-.2-.3-.6-.4-1.1-.4h-1.6v2.9ZM164.5,13.5h-1.8v-3.7h-3.7v3.7h-1.8V4.6h1.8v3.9h3.7v-3.9h1.8v9Z"/>
      <path class="cls-1" d="M54.6,28.2h-1.1v-5.9h-2v-1h5.2v1h-2v5.9ZM62.1,28.2h-1.1v-3.2c0-.4,0-.7-.2-.9-.2-.2-.4-.3-.8-.3s-.8.1-1,.4c-.2.3-.3.7-.3,1.4v2.6h-1.1v-7.3h1.1v1.9c0,.3,0,.6,0,1h0c.1-.2.4-.4.6-.6.3-.1.6-.2.9-.2,1.3,0,1.9.6,1.9,1.9v3.4ZM65.9,28.3c-.8,0-1.4-.2-1.9-.7-.5-.5-.7-1.1-.7-1.9s.2-1.5.6-2c.4-.5,1-.7,1.7-.7s1.2.2,1.6.6c.4.4.6,1,.6,1.7v.6h-3.5c0,.5.2.9.4,1.1.2.3.6.4,1.1.4s.6,0,.8,0c.3,0,.5-.2.8-.3v.9c-.3.1-.5.2-.8.3-.2,0-.6,0-.9,0ZM65.7,23.7c-.4,0-.6.1-.8.3-.2.2-.3.5-.4,1h2.3c0-.4-.1-.8-.3-1-.2-.2-.5-.3-.8-.3ZM74.3,23.8h-1.3v4.4h-1.1v-4.4h-.8v-.5l.8-.3v-.3c0-.6.1-1.1.4-1.4.3-.3.7-.4,1.3-.4s.8,0,1.1.2l-.3.8c-.3,0-.5-.1-.8-.1s-.4,0-.5.2c-.1.2-.2.4-.2.7v.3h1.3v.8h0ZM78.8,28.2l-.2-.7h0c-.2.2-.4.4-.7.6-.3.1-.6.2-1,.2-.6,0-1.1-.2-1.4-.5s-.5-.8-.5-1.4v-3.4h1.1v3.2c0,.4,0,.7.2.9.2.2.4.3.8.3s.8-.1,1-.4.3-.7.3-1.4v-2.6h1.1v5.2h-.9ZM83.2,27.4c.3,0,.5,0,.8-.1v.8c-.1,0-.3.1-.5.1-.2,0-.4,0-.6,0-1,0-1.6-.5-1.6-1.6v-2.8h-.7v-.5l.8-.4.4-1.1h.7v1.1h1.5v.8h-1.5v2.8c0,.3,0,.5.2.6,0,.1.3.2.5.2ZM88.7,28.2l-.2-.7h0c-.2.2-.4.4-.7.6-.3.1-.6.2-1,.2-.6,0-1.1-.2-1.4-.5-.3-.3-.5-.8-.5-1.4v-3.4h1.1v3.2c0,.4,0,.7.2.9.2.2.4.3.8.3s.8-.1,1-.4c.2-.3.3-.7.3-1.4v-2.6h1.1v5.2h-.9ZM93.8,22.9c.2,0,.4,0,.5,0v1c-.3,0-.4,0-.6,0-.4,0-.8.1-1.1.4-.3.3-.4.7-.4,1.1v2.7h-1.1v-5.2h.9v.9h.2c.2-.3.4-.5.7-.7.2-.2.5-.3.9-.3ZM97.4,28.3c-.8,0-1.4-.2-1.9-.7-.5-.5-.7-1.1-.7-1.9s.2-1.5.6-2c.4-.5,1-.7,1.7-.7s1.2.2,1.6.6c.4.4.6,1,.6,1.7v.6h-3.5c0,.5.2.9.4,1.1.2.3.6.4,1.1.4s.6,0,.8,0c.3,0,.5-.2.8-.3v.9c-.3.1-.5.2-.8.3-.3,0-.6,0-.9,0ZM97.2,23.7c-.4,0-.6.1-.8.3-.2.2-.3.5-.4,1h2.3c0-.4-.1-.8-.3-1-.2-.2-.5-.3-.8-.3ZM107.7,25.6c0,.8-.2,1.5-.7,2-.4.5-1,.7-1.8.7s-.9-.1-1.3-.3c-.4-.2-.7-.5-.8-1-.2-.4-.3-.9-.3-1.4,0-.8.2-1.5.7-2,.4-.5,1-.7,1.8-.7s1.3.2,1.8.7c.4.5.6,1.1.6,1.9ZM103.9,25.6c0,1.2.4,1.8,1.3,1.8s1.3-.6,1.3-1.8-.4-1.8-1.3-1.8-.8.2-1,.5c-.2.3-.3.7-.3,1.3ZM111.6,23.8h-1.3v4.4h-1.1v-4.4h-.8v-.5l.8-.3v-.3c0-.6.1-1.1.4-1.4.3-.3.7-.4,1.3-.4s.8,0,1.1.2l-.3.8c-.3,0-.5-.1-.8-.1s-.4,0-.5.2c-.1.1-.2.4-.2.7v.3h1.3v.8h0ZM119.3,28.2h-1.1v-3.2c0-.4,0-.7-.2-.9-.1-.2-.4-.3-.7-.3s-.7.1-.9.4c-.2.3-.3.7-.3,1.4v2.6h-1.1v-5.2h.9l.2.7h0c.1-.2.4-.4.6-.6.3-.1.6-.2.9-.2.8,0,1.3.3,1.6.8h0c.2-.2.4-.5.7-.6.3-.1.6-.2,1-.2.6,0,1.1.2,1.4.5.3.3.4.8.4,1.4v3.4h-1.1v-3.2c0-.4,0-.7-.2-.9-.2-.2-.4-.3-.7-.3s-.7.1-.9.4c-.2.3-.3.7-.3,1.2v2.8h0ZM128.7,25.6c0,.8-.2,1.5-.7,2-.4.5-1,.7-1.8.7s-.9-.1-1.3-.3c-.4-.2-.7-.5-.8-1-.2-.4-.3-.9-.3-1.4,0-.8.2-1.5.7-2,.4-.5,1-.7,1.8-.7s1.3.2,1.8.7c.4.5.6,1.1.6,1.9ZM125,25.6c0,1.2.4,1.8,1.3,1.8s1.3-.6,1.3-1.8-.4-1.8-1.3-1.8-.8.2-1,.5c-.2.3-.3.7-.3,1.3ZM134.6,28.2h-1.1v-3.2c0-.4,0-.7-.2-.9-.2-.2-.4-.3-.8-.3s-.8.1-1,.4c-.2.3-.3.7-.3,1.4v2.6h-1.1v-5.2h.9l.2.7h0c.2-.2.4-.4.7-.6.3-.1.6-.2,1-.2,1.3,0,1.9.6,1.9,1.9v3.4ZM138.4,28.3c-.8,0-1.4-.2-1.9-.7-.5-.5-.7-1.1-.7-1.9s.2-1.5.6-2c.4-.5,1-.7,1.7-.7s1.2.2,1.6.6c.4.4.6,1,.6,1.7v.6h-3.5c0,.5.2.9.4,1.1.2.3.6.4,1.1.4s.6,0,.8,0,.5-.2.8-.3v.9c-.3.1-.5.2-.8.3-.3,0-.6,0-.9,0ZM138.1,23.7c-.4,0-.6.1-.8.3-.2.2-.3.5-.4,1h2.3c0-.4-.1-.8-.3-1-.2-.2-.5-.3-.8-.3ZM140.7,23h1.2l1.1,2.9c.2.4.3.8.3,1.2h0c0-.2,0-.4.2-.6,0-.2.5-1.4,1.2-3.5h1.2l-2.2,5.9c-.4,1.1-1.1,1.6-2,1.6s-.5,0-.7,0v-.9c.2,0,.4,0,.6,0,.5,0,.9-.3,1.1-.9l.2-.5-2.1-5.2Z"/>
    </g>
  </g>
</svg>