<svg width="50" height="50" viewBox="0 0 50 50" fill="none" xmlns="http://www.w3.org/2000/svg">
<path d="M24.6967 49.5432C38.3363 49.5432 49.3933 38.4529 49.3933 24.7716C49.3933 11.0902 38.3363 0 24.6967 0C11.0571 0 0 11.0902 0 24.7716C0 38.4529 11.0571 49.5432 24.6967 49.5432Z" fill="#627EEA"/>
<path d="M24.4967 43.1054C34.7121 43.1054 42.9934 34.7994 42.9934 24.5527C42.9934 14.3059 34.7121 6 24.4967 6C14.2812 6 6 14.3059 6 24.5527C6 34.7994 14.2812 43.1054 24.4967 43.1054Z" fill="#627EEA"/>
<g clip-path="url(#clip0_58_897)">
<path d="M25.0469 11.375V21.1094L33.25 24.7188L25.0469 11.375Z" fill="white" fill-opacity="0.6"/>
<path d="M25.0469 11.375L16.8438 24.7188L25.0469 21V11.375Z" fill="white"/>
<path d="M25.0469 31.0625V37.625L33.25 26.25L25.0469 31.0625Z" fill="white" fill-opacity="0.6"/>
<path d="M25.0469 37.625V31.0625L16.8438 26.25L25.0469 37.625Z" fill="white"/>
<path d="M25.0469 29.5313L33.25 24.7188L25.0469 21.1094V29.5313Z" fill="white" fill-opacity="0.2"/>
<path d="M16.8438 24.7188L25.0469 29.5313V21.1094L16.8438 24.7188Z" fill="white" fill-opacity="0.6"/>
</g>
<defs>
<clipPath id="clip0_58_897">
<rect width="18" height="27" fill="white" transform="translate(16 11)"/>
</clipPath>
</defs>
</svg>
