<svg xmlns="http://www.w3.org/2000/svg" xmlns:xlink="http://www.w3.org/1999/xlink" width="16" height="16" viewBox="0 0 16 16"><defs><clipPath id="a"><rect width="16" height="16" fill="none"/></clipPath></defs><g clip-path="url(#a)"><path d="M11.111,16H2.556A2.558,2.558,0,0,1,0,13.444V4.889A2.559,2.559,0,0,1,2.556,2.333H7.223a1,1,0,0,1,0,2H2.556A.557.557,0,0,0,2,4.889v8.555A.556.556,0,0,0,2.556,14h8.555a.557.557,0,0,0,.556-.555V8.778a1,1,0,0,1,2,0v4.667A2.56,2.56,0,0,1,11.111,16M6.444,10.556a1,1,0,0,1-.707-1.707L12.586,2H10.333a1,1,0,1,1,0-2H15a1,1,0,0,1,1,1v4.67a1,1,0,0,1-2,0V3.414L7.151,10.263a1,1,0,0,1-.707.293"/></g></svg>