<svg xmlns="http://www.w3.org/2000/svg" xmlns:xlink="http://www.w3.org/1999/xlink" width="579.967" height="514.448" viewBox="0 0 579.967 514.448"><defs><clipPath id="a"><rect width="579.967" height="514.448" fill="none"/></clipPath></defs><g clip-path="url(#a)"><path d="M525.257,362.266c-6.332,31.659-7.106,29.04-16.252,41s-6.227,8.825-15.373,22.9-5.233,14.065-11.291,38.117c-4.417,17.541-.7,18.292-1.407,25.328s.7,19.7.7,19.7l-22.513,2.11s-1.407-8.442,0-30.955,3.565-18.523,6.379-38.926,13.871-19.13-3.56-45.245c-7.584-11.361-11.771-8.053-28.03-25.1-16.478-18.073-17.7-24.4-19.815-41.285s-7.739-45.026-7.739-45.026l34.61,40.073s7.135,36.188,30.581,48.421,31.091,10.194,35.169-13.252,18.537,2.146,18.537,2.146" fill="#c5cc81"/><path d="M406.36,283.878a1,1,0,0,1,.757.346l34.61,40.073a1,1,0,0,1,.224.46,102.484,102.484,0,0,0,6.448,19.449c4.235,9.49,11.77,22.1,23.614,28.279,9.628,5.023,15.952,7.263,20.5,7.263a9.284,9.284,0,0,0,8.3-4.51c2.081-3.115,3.642-7.973,4.915-15.29.637-3.666,1.538-6.315,2.752-8.1a5.224,5.224,0,0,1,4.38-2.621c2.637,0,5.69,2.152,9.073,6.4a52.258,52.258,0,0,1,4.188,6.15,1,1,0,0,1,.11.688c-2.908,14.541-4.555,21.348-6.291,26.012-1.851,4.972-3.775,7.374-6.963,11.354-.933,1.165-1.991,2.486-3.184,4.046-5.884,7.694-6.753,9.116-9.075,12.916-1.273,2.083-3.016,4.935-6.254,9.916-5.721,8.8-6.21,11.864-7.391,19.264-.661,4.139-1.566,9.807-3.768,18.552-2.891,11.48-2.255,15.538-1.695,19.119a21.6,21.6,0,0,1,.313,6.065c-.685,6.851.689,19.363.7,19.489a1,1,0,0,1-.9,1.106l-22.513,2.11a1,1,0,0,1-1.08-.831,62.977,62.977,0,0,1-.541-7.164c-.161-4.516-.2-12.348.529-24.018.815-13.035,1.912-17.376,3.182-22.4a132.66,132.66,0,0,0,3.2-16.6,59.862,59.862,0,0,1,3.784-13.952c3.082-8.173,4.78-12.675-7.185-30.6-3.711-5.559-6.592-7.508-10.58-10.205a93.145,93.145,0,0,1-17.342-14.76l-.015-.016c-8.315-9.12-12.8-15.308-15.471-21.358-2.65-6-3.5-11.737-4.6-20.477-2.082-16.655-7.671-44.673-7.727-44.954a1,1,0,0,1,.98-1.2Zm33.684,41.531-31.978-37.025c1.594,8.22,5.387,28.294,7.025,41.4,2.121,16.97,3.556,23.179,19.554,40.727a91.369,91.369,0,0,0,17.008,14.476c4.176,2.825,7.194,4.866,11.123,10.751,5.871,8.8,8.824,14.94,9.573,19.92a17.324,17.324,0,0,1-.23,6.5,44.265,44.265,0,0,1-1.95,5.994,57.361,57.361,0,0,0-3.674,13.52,134.4,134.4,0,0,1-3.247,16.815c-1.3,5.133-2.322,9.188-3.125,22.037-.721,11.536-.686,19.275-.529,23.737.107,3.046.283,5.02.4,6.07l20.545-1.926c-.319-3.168-1.2-12.921-.6-18.9a19.69,19.69,0,0,0-.3-5.556,31.5,31.5,0,0,1-.469-6.93,66.848,66.848,0,0,1,2.2-12.987c2.181-8.66,3.078-14.278,3.733-18.379,1.193-7.471,1.737-10.881,7.689-20.038,3.223-4.958,4.957-7.8,6.224-9.869,2.362-3.865,3.246-5.311,9.193-13.088,1.206-1.577,2.272-2.908,3.212-4.081,6.1-7.613,7.389-9.226,12.78-36.136a51.7,51.7,0,0,0-3.841-5.59,24.851,24.851,0,0,0-3.83-3.966,6.316,6.316,0,0,0-3.664-1.658c-2.963,0-4.442,4.929-5.161,9.063-1.322,7.6-2.981,12.7-5.222,16.058a11.269,11.269,0,0,1-9.966,5.4,27.994,27.994,0,0,1-9.288-1.956,101.151,101.151,0,0,1-12.14-5.534,46.424,46.424,0,0,1-15-13,79.117,79.117,0,0,1-9.536-16.277A105.976,105.976,0,0,1,440.044,325.409Z"/><path d="M457.053,494.289c.232,7.171,1.162,12.094,2.41,19.159a150.11,150.11,0,0,0,24.373-3.1c.422-3.827-.867-7.511-1.187-11.286-.2-2.378.818-7.183-1.571-8.577-1.884-1.1-24.017,4.046-24.025,3.808" fill="#316600"/><path d="M480,489.327h0a3.1,3.1,0,0,1,1.582.291c2.294,1.338,2.172,4.626,2.074,7.268a19.294,19.294,0,0,0-.01,2.088c.112,1.32.355,2.674.589,3.983a25.989,25.989,0,0,1,.6,7.5,1,1,0,0,1-.787.869,151.474,151.474,0,0,1-24.535,3.125,1,1,0,0,1-1.029-.825l-.2-1.105a115.577,115.577,0,0,1-2.229-18.194.006.006,0,0,1,0,0,1,1,0,0,1,.967-1.032c.032,0,.064,0,.1,0,.456-.06,2.277-.435,4.2-.83C467.018,491.289,476.565,489.327,480,489.327Zm.614,2.043a3,3,0,0,0-.614-.043c-3.231,0-12.654,1.936-18.283,3.094-1.855.381-2.957.606-3.632.732a117.186,117.186,0,0,0,2.166,17.016l.042.24a149.542,149.542,0,0,0,22.606-2.889,27.017,27.017,0,0,0-.635-6.209c-.243-1.354-.494-2.754-.613-4.167a20.464,20.464,0,0,1,0-2.331C481.735,494.726,481.831,492.136,480.614,491.369Z"/><path d="M568.881,334.933c6.566,19.781,16.877,36.5,3.752,34.585-59.721.789-99.355-3.7-110.388-9.815-33.453-7.833-39.547-40.69-61.52-75.5-21.973-35.783-66.343-38.618-146.911-52.784-80.567-9.262-173.5-9.819-203.874-6.717-30.371-.252-32.648,4.223-33.408,12.309-.759,4.445-10.63,8.12-14.426-2.49-3.8-.417,2.278-15.124,16.7-24.391,0-1.9,17.14-26.476,34.712-57.957C105.4,47.118,176.149,17.186,259.276,6.268,310.187-6.466,378.3,3.922,438.045,37.014c11.876,6.578,12.634,7.93,23.647,16.3,7.882,5.991,26.279,18.564,33.543,25.47A252.256,252.256,0,0,1,534.908,127c10.933,16.577,18.681,35.9,24.12,55.971,4.42,16.3,10.408,32.357,12.25,48.566,1.531,13.471-.759,27.28-.414,39.324.417,14.584,1.692,29.818,1.245,40.308a121.245,121.245,0,0,1-3.228,23.762" fill="#316600"/><path d="M574.51,370.668a14.02,14.02,0,0,1-1.942-.149c-4.5.059-8.988.089-13.338.089-24.852,0-47.111-.982-64.371-2.84-16.218-1.746-27.614-4.208-32.977-7.122a49.979,49.979,0,0,1-16.034-6.756,54.625,54.625,0,0,1-12.179-11.012,101.075,101.075,0,0,1-9.74-14.273c-3.017-5.193-5.89-10.761-8.932-16.656-4.531-8.78-9.215-17.858-15.118-27.209l-.007-.01c-8.947-14.57-21.995-24.231-42.306-31.323-19.248-6.721-43.978-10.867-75.286-16.115-9.1-1.526-18.514-3.1-28.611-4.879-24.7-2.839-51.841-5.019-80.671-6.481-24.821-1.258-49.987-1.923-72.78-1.923-21.676,0-39.5.6-50.177,1.692a1.037,1.037,0,0,1-.11.005c-.8-.007-1.6-.01-2.368-.01a132.521,132.521,0,0,0-16.48.81,28.174,28.174,0,0,0-8.853,2.291,7.482,7.482,0,0,0-3.595,3.413,14,14,0,0,0-1.109,4.9c0,.025-.006.05-.01.075a5.891,5.891,0,0,1-2.58,3.72,8.49,8.49,0,0,1-4.834,1.521,8.156,8.156,0,0,1-5.032-1.746,12.139,12.139,0,0,1-3.726-5.33A2.227,2.227,0,0,1,.1,233.734c-.52-2.215,1.041-6.365,4.075-10.832A50.048,50.048,0,0,1,17.931,209.51a26.741,26.741,0,0,1,2.142-3.956c1.366-2.268,3.3-5.335,5.747-9.218,6.632-10.522,16.654-26.422,26.816-44.626A358.048,358.048,0,0,1,73.01,115.647,278,278,0,0,1,95.11,85.94a231.834,231.834,0,0,1,23.739-23.975,212.589,212.589,0,0,1,25.3-18.89A217.121,217.121,0,0,1,170.91,28.621a246.687,246.687,0,0,1,28.145-10.677c17.7-5.535,37.34-9.677,60.034-12.66A189.325,189.325,0,0,1,304.834,0a244.49,244.49,0,0,1,32.722,2.267,277,277,0,0,1,33.793,6.789,296.286,296.286,0,0,1,67.18,27.083,105.069,105.069,0,0,1,17.743,11.729c1.684,1.313,3.593,2.8,6.024,4.648,2.343,1.781,5.556,4.1,9.275,6.785,8.557,6.177,19.207,13.865,24.352,18.756a253.71,253.71,0,0,1,39.825,48.4,167.259,167.259,0,0,1,14.2,26.828,230.57,230.57,0,0,1,10.044,29.423c1.241,4.579,2.63,9.216,3.973,13.7,3.428,11.447,6.973,23.283,8.306,35.015.928,8.164.471,16.377.029,24.32-.3,5.3-.574,10.311-.437,15.089.148,5.191.406,10.476.656,15.587.452,9.255.878,18,.589,24.792a113.907,113.907,0,0,1-2.932,22.358c-.115.493-.233,1-.278,1.252,1.513,4.535,3.253,8.993,4.791,12.933,3.948,10.112,6.8,17.419,4.393,20.943C578.19,370.005,576.652,370.668,574.51,370.668Zm-1.877-2.15a1,1,0,0,1,.144.01,12.172,12.172,0,0,0,1.733.139c1.461,0,2.417-.359,2.921-1.1.781-1.143.71-3.368-.216-6.8-.914-3.385-2.524-7.51-4.388-12.286-1.57-4.022-3.35-8.581-4.895-13.236a1,1,0,0,1-.051-.315,10.094,10.094,0,0,1,.347-1.816,112,112,0,0,0,2.881-21.989c.286-6.7-.139-15.4-.588-24.609-.25-5.121-.508-10.416-.657-15.628-.139-4.862.142-9.911.439-15.257.437-7.86.89-15.987-.019-23.983-1.313-11.556-4.832-23.305-8.235-34.668-1.346-4.5-2.739-9.145-3.987-13.75-5.895-21.75-13.966-40.484-23.99-55.682l-.011-.017a251.718,251.718,0,0,0-39.516-48.028C489.5,74.71,478.91,67.066,470.4,60.924c-3.73-2.693-6.952-5.018-9.315-6.815-2.441-1.855-4.355-3.347-6.044-4.663A103.526,103.526,0,0,0,437.56,37.889C395.78,14.745,348.644,2,304.834,2a187.278,187.278,0,0,0-45.316,5.239.979.979,0,0,1-.112.021c-73.982,9.717-150.02,34.052-204.988,145.358l-.023.045c-10.193,18.261-20.237,34.2-26.883,44.74-2.348,3.725-4.2,6.668-5.551,8.893a24.91,24.91,0,0,0-2.154,3.911,1,1,0,0,1-.457.767A48.028,48.028,0,0,0,5.83,224.025c-2.905,4.277-4.1,7.891-3.783,9.251.057.241.111.247.168.253a1,1,0,0,1,.832.657c1.941,5.427,5.254,6.236,7.056,6.236,2.829,0,5.124-1.861,5.437-3.544.364-3.849,1.093-7.5,5.789-9.869,4.541-2.293,12.632-3.316,26.235-3.316.755,0,1.538,0,2.329.01,10.752-1.094,28.621-1.7,50.325-1.7,22.825,0,48.027.666,72.881,1.926,28.885,1.464,56.08,3.649,80.828,6.495l.059.009c10.1,1.776,19.517,3.355,28.624,4.881,31.4,5.264,56.206,9.422,75.615,16.2,10.169,3.551,18.45,7.7,25.316,12.669a66.732,66.732,0,0,1,18.033,19.492c5.947,9.422,10.651,18.538,15.2,27.353,12.133,23.512,21.716,42.083,45.7,47.7a1,1,0,0,1,.257.1c2.471,1.37,6.452,2.658,11.832,3.828a199.932,199.932,0,0,0,20.512,3.123c17.19,1.851,39.375,2.829,64.157,2.829,4.366,0,8.871-.03,13.389-.09Z"/><path d="M538.127,342.836a.5.5,0,0,1-.041-1,97.993,97.993,0,0,0,30.407-7.531.5.5,0,1,1,.392.92,98.99,98.99,0,0,1-30.717,7.607Z"/><path d="M419.691,274.544a.5.5,0,0,1-.421-.23,137.533,137.533,0,0,0-23.247-27.475.5.5,0,1,1,.672-.74,138.532,138.532,0,0,1,23.417,27.675.5.5,0,0,1-.42.77Z"/><path d="M351.305,230.883a.5.5,0,0,1-.14-.02c-47.943-13.984-90.027-17.626-129.023-20.158-6.4-.415-12.749-.844-18.893-1.259-31.764-2.144-61.767-4.168-99.545-4.588q-4.132-.046-8.053-.045c-44.644,0-68.34,4.272-76.728,6.193a.5.5,0,0,1-.223-.975,229.161,229.161,0,0,1,30.284-4.362c16.069-1.426,34.483-2.035,54.732-1.81,37.806.42,67.822,2.446,99.6,4.59,6.143.415,12.5.843,18.891,1.258,17.833,1.158,38.726,2.652,61.008,5.741A473.248,473.248,0,0,1,351.445,229.9a.5.5,0,0,1-.14.98Z"/><path d="M526.959,344.389a.5.5,0,0,1-.061-1l1.184-.148,1.343-.168a.5.5,0,0,1,.124.992l-1.342.168-1.185.148A.5.5,0,0,1,526.959,344.389Z"/><path d="M175.99,156.744a139.39,139.39,0,0,0,33.892,3.13,6.156,6.156,0,0,0,2.567-.458c2.1-1.041,2.347-3.866,2.448-6.205a61.179,61.179,0,0,1,4.609-20.765,108.428,108.428,0,0,1,25.045,1.183l6.612-16.508a2.9,2.9,0,0,0,.239-2.3c-.458-.936-1.709-1.081-2.751-1.1l-20.1-.376c.413-3.026.847-6.119,2.245-8.834s3.969-5.027,7.014-5.259a13.546,13.546,0,0,1,5.387,1.079l20.288,7.051a3.781,3.781,0,0,0,2.559.258,3.73,3.73,0,0,0,1.717-1.968A133.41,133.41,0,0,0,279.335,73.26l-35.465.878-17.5.433c-3.733.093-11.228-1.21-14.305,1.408-2.533,2.156-3.06,8.329-4.172,11.349-1.632,4.429-3.554,8.745-5.617,12.988-4.393,9.035-9.475,17.71-14.136,26.6-1.239,2.364-13.442,29.542-12.153,29.823" fill="#ffe200"/><path d="M205.658,160.938a140.519,140.519,0,0,1-29.881-3.217,1.093,1.093,0,0,1-.76-.614c-.211-.453-.153-1.036.231-2.31.252-.836.654-1.981,1.2-3.4.931-2.445,2.265-5.7,3.964-9.66,2.865-6.684,6.194-14.026,6.85-15.277,1.772-3.382,3.633-6.784,5.433-10.074,2.936-5.368,5.973-10.918,8.689-16.5,2.3-4.721,4.12-8.939,5.578-12.9a31.58,31.58,0,0,0,.906-3.381c.73-3.132,1.556-6.682,3.556-8.384s5.364-1.89,7.729-1.89c1.361,0,2.752.074,3.979.14,1.041.056,2.023.108,2.831.108.137,0,.268,0,.389,0l17.5-.433,17.726-.439,17.739-.439,1.272-.032-.27,1.243a134.29,134.29,0,0,1-11.664,32.656,4.666,4.666,0,0,1-2.245,2.445,3.154,3.154,0,0,1-1.146.207,6.44,6.44,0,0,1-2.1-.452l-5.563-1.933-14.725-5.118a14.224,14.224,0,0,0-4.518-1.044c-.157,0-.313.006-.464.017-2.894.221-5.1,2.583-6.2,4.72a23.141,23.141,0,0,0-1.989,7.4l8.922.167,10.054.188c.777.014,2.844.052,3.631,1.66a3.841,3.841,0,0,1-.209,3.11l-6.911,17.254-.792-.13a107.693,107.693,0,0,0-17.446-1.425c-2.242,0-4.509.071-6.748.212a59.836,59.836,0,0,0-4.3,19.852,16.031,16.031,0,0,1-.516,3.832,4.968,4.968,0,0,1-2.486,3.225,7.119,7.119,0,0,1-2.981.562C208.5,160.916,207.07,160.938,205.658,160.938Zm-28.657-5a138.533,138.533,0,0,0,28.657,3c1.392,0,2.8-.021,4.194-.064a5.272,5.272,0,0,0,2.153-.354c1.567-.778,1.8-3.171,1.893-5.352a62.179,62.179,0,0,1,4.684-21.105l.237-.572.617-.043c2.485-.171,5.01-.258,7.506-.258a109.741,109.741,0,0,1,16.977,1.324l6.315-15.765c.157-.392.448-1.122.269-1.487-.166-.339-.8-.521-1.871-.54l-10.055-.188-10.049-.188-1.124-.021.152-1.114c.4-2.933.854-6.258,2.347-9.157a11.92,11.92,0,0,1,3.159-3.888,8.628,8.628,0,0,1,4.669-1.911c.2-.015.409-.023.617-.023a15.954,15.954,0,0,1,5.174,1.155l14.725,5.118,5.563,1.933a4.837,4.837,0,0,0,1.447.341,1.151,1.151,0,0,0,.422-.071c.49-.19.856-.841,1.189-1.491a132.3,132.3,0,0,0,11.214-30.926L261.62,74.7l-17.726.439-17.5.433c-.138,0-.285.005-.439.005-.861,0-1.87-.054-2.938-.111-1.261-.067-2.565-.137-3.872-.137-3.211,0-5.315.462-6.432,1.413-1.5,1.275-2.278,4.624-2.9,7.315a32.73,32.73,0,0,1-.977,3.618c-1.481,4.02-3.332,8.3-5.656,13.08-2.737,5.63-5.786,11.2-8.733,16.59-1.8,3.282-3.653,6.676-5.416,10.042-.6,1.146-3.675,7.909-6.531,14.548C178.415,151.427,177.3,154.775,177,155.939Z"/><path d="M472.847,444.827h-.031a.5.5,0,0,1-.468-.53,65.54,65.54,0,0,1,3.529-16.033q.125-.381.25-.763a35.766,35.766,0,0,0,2.076-8.67c.408-6.2-2.475-12.118-5.651-17.591a.5.5,0,1,1,.865-.5c3.255,5.61,6.209,11.692,5.783,18.159a36.513,36.513,0,0,1-2.124,8.917q-.125.381-.25.761a64.638,64.638,0,0,0-3.481,15.783A.5.5,0,0,1,472.847,444.827Z"/></g></svg>