<svg xmlns="http://www.w3.org/2000/svg" xmlns:xlink="http://www.w3.org/1999/xlink" width="583.286" height="486.809" viewBox="0 0 583.286 486.809"><defs><clipPath id="a"><rect width="583.286" height="486.809" fill="none"/></clipPath></defs><g clip-path="url(#a)"><path d="M88.025,320.039c-6.12,31.287-2,32.231,1.853,46.59s1.437,11.109,4.5,27.394-2.758,17.646-5.516,35.292-6.234,16.966-8.236,23.654-8.048,17.722-8.048,17.722l19.763,10.39s4.458-7.179,11.637-28.264,3.966-22.407,9.067-42.093,10.05-24.41,21.347-31.779,2.265-3.008,23.519-12.461c21.84-10.307,35.5-19.583,43.776-34.207s23.992-38.2,23.992-38.2l-46.665,23.578s-20.119,30.359-46.125,32.715-32.22-2.381-27.129-25.321-17.733-5.008-17.733-5.008" fill="#c5cc81"/><path d="M225.675,290.075a4,4,0,0,1,3.33,6.219c-.156.235-15.733,23.627-23.839,37.953-9.2,16.258-24.863,26.091-45.55,35.855l-7.128,3.16c-8.006,3.539-8.006,3.539-10.074,5.033-1.112.8-2.723,1.968-5.839,4-10.729,7-14.907,11.084-19.66,29.432a126.357,126.357,0,0,0-3.366,17.788c-.81,6.283-1.574,12.218-5.786,24.591-7.243,21.273-11.834,28.776-12.025,29.085a4,4,0,0,1-5.259,1.43l-19.763-10.39a4,4,0,0,1-1.647-5.462c.058-.107,5.868-10.746,7.724-16.947a25.1,25.1,0,0,1,2.819-6.1c1.68-2.837,3.583-6.053,5.3-17.022a83.052,83.052,0,0,1,4-15.515c2.014-5.859,3.229-9.4,1.533-18.421a116.527,116.527,0,0,1-1.923-13.829c-.269-3.282-.463-5.654-2.507-13.267-.7-2.617-1.415-4.774-2.068-6.753-3.021-9.16-5.017-15.212.153-41.642a4,4,0,0,1,1.454-2.377c1.6-1.257,9.907-7.525,16.429-7.525a7.752,7.752,0,0,1,6.439,2.909c2.281,2.843,2.675,7.175,1.242,13.635-2.085,9.394-2.057,15.015.088,17.688,1.812,2.258,5.885,3.31,12.818,3.31,2.914,0,6.225-.189,9.957-.527,23.754-2.152,42.962-30.656,43.153-30.943a4.011,4.011,0,0,1,1.529-1.358L223.873,290.5A3.991,3.991,0,0,1,225.675,290.075ZM90.658,475.678a216.6,216.6,0,0,0,9.532-24.15c3.953-11.612,4.635-16.906,5.425-23.035a134.89,134.89,0,0,1,3.556-18.772c5.391-20.811,11.159-26.38,23.034-34.126,2.948-1.923,4.473-3.024,5.524-3.784,2.749-1.987,3.079-2.132,11.524-5.866l7.03-3.115c23.368-11.029,34.752-19.854,41.92-32.522,4.417-7.807,10.84-18,15.954-25.93L181.73,320.761c-3.72,5.3-23.171,31.3-48.482,33.59-4,.362-7.554.56-10.679.56-6.518,0-14.575-.716-19.058-6.3-3.887-4.845-4.383-12.15-1.659-24.428,1.213-5.465.335-6.887.325-6.9-2.63.078-7.385,2.785-10.519,5.033-4.408,23.08-2.778,28.02-.115,36.094.695,2.106,1.45,4.4,2.2,7.185,2.232,8.313,2.462,11.126,2.754,14.689a108.229,108.229,0,0,0,1.812,13c2.087,11.1.359,16.133-1.83,22.5a75.079,75.079,0,0,0-3.665,14.149c-1.951,12.487-4.372,16.577-6.317,19.863a17.471,17.471,0,0,0-2.039,4.321,103.249,103.249,0,0,1-6.475,14.9Z"/><path d="M101.336,464.114a149.025,149.025,0,0,1-10.071,18.694,148.147,148.147,0,0,1-21.087-12c1.053-3.653,3.615-6.532,5.327-9.859,1.078-2.1,1.471-5.288,4.176-5.663,2.134-.3,21.558,9.039,21.655,8.824" fill="#316600"/><path d="M79.793,451.283c2.081,0,6.07,1.543,18.559,7.177,1.957.883,3.477,1.576,4.079,1.813a4,4,0,0,1,2.543,5.481,152.2,152.2,0,0,1-10.333,19.2,4,4,0,0,1-5.064,1.484,152.515,152.515,0,0,1-21.657-12.32,4,4,0,0,1-1.587-4.411,28.407,28.407,0,0,1,3.718-7.409c.664-1.04,1.333-2.078,1.9-3.172a13.356,13.356,0,0,0,.539-1.292c.792-2.061,2.268-5.9,6.645-6.5Zm16.174,14.874-1-.449c-3.623-1.633-11.591-5.224-14.635-6.212a6.322,6.322,0,0,1-.382,1.206,21.419,21.419,0,0,1-.892,2.081c-.676,1.314-1.469,2.566-2.266,3.815-.59.925-1.164,1.823-1.652,2.716a144.692,144.692,0,0,0,14.608,8.33C91.991,473.917,94.07,470.075,95.967,466.157Z"/><path d="M569.664,284.1c-.05,1.962-14.688-86.212-29.741-112.69C496.4,57.6,428.5,30.613,347.429,14.764,298.975-3.878,232.6,2.277,172.2,28.707c-9.88,4.323-32.354,12.4-41.81,17.785-13.27,7.563-13.265,12.943-25.2,22.508a256.592,256.592,0,0,0-38.551,38.013c-17.971,24.323-29.407,55.7-36.669,86.85-3.132,13.438-9.591,38.2-11.359,50.97-1.943,14.026.926,15.927.149,27.668-.53,8.011-3.5,16.479-6.767,23.528-1.391,3-1.975,7.437-3.441,9.84-2.092,3.432-7.163,2.375-2.876,7.955,2.376,3.093,9.207,4.017,12.719,5.177,8.417,2.78,17.118,6.875,25.256,10.464,9.6,4.234,19.181,9.042,29.549,11.264,6.66,1.427,13.707.69,20.519,1.179,9.987.718,18.454.231,28.217.447,33.776-4.537,41.155,23.258,65.49-13.617,24.373-38.384,28.068,2.487,108.222,2.616,61.04,15.569,59.725,6.2,100.2,4.912s81.667-.233,112.9-4.873,47.69-9.661,63.434-17.032.44-17.1.44-17.1l-2.946-13.28" fill="#316600"/><path d="M162.95,352.042c-4.255,0-8.657-1.113-13.565-2.6-7.225-2.188-15.415-4.668-26.922-3.123-4.187-.044-7.579-.028-10.936-.012-5.726.027-11.647.055-18.1-.409-2.377-.171-4.785-.184-7.193-.2a67.758,67.758,0,0,1-13.877-1.058c-9.071-1.944-17.47-5.733-25.592-9.4l-9.106-4.064c-6.776-3.026-13.784-6.155-20.523-8.381-.79-.261-1.766-.5-2.818-.773-4.092-1.041-9.185-2.337-11.819-5.766-1.376-1.791-2.892-4.187-2.406-6.847a6.906,6.906,0,0,1,3.687-4.578,4.4,4.4,0,0,0,1.352-1.049,21.046,21.046,0,0,0,1.45-4.184,36.186,36.186,0,0,1,1.777-5.256c3.772-8.144,5.987-15.789,6.405-22.11a55.1,55.1,0,0,0-.344-10.845,60.235,60.235,0,0,1,.225-17.108c1.365-9.859,5.416-26.5,8.67-39.87,1.038-4.265,2-8.2,2.756-11.459,8.537-36.617,21.1-66.332,37.347-88.319a261.047,261.047,0,0,1,39.267-38.758A74.607,74.607,0,0,0,112.8,56.023a53.885,53.885,0,0,1,15.613-13.006c6.548-3.731,18.573-8.491,29.181-12.691,5.095-2.017,9.744-3.856,13.006-5.283,62.9-27.522,129.54-32.76,178.27-14.012,72.942,14.2,148.669,38.34,194.794,158.955,12.563,22.006,24.719,86.206,28.714,107.3.467,2.464.8,4.241.988,5.157a4.027,4.027,0,0,1,.212.671l2.613,11.778c2.563,1.963,7.45,6.487,7.082,12.225-.284,4.421-3.445,8.077-9.4,10.864-15.021,7.033-31.058,12.391-64.542,17.366-22.5,3.344-49.732,3.756-78.558,4.192-11.489.174-23.173.351-34.8.722a257.643,257.643,0,0,0-26.805,2.322c-18.314,2.343-30.413,3.892-74.511-7.356-35.838.069-57.044-8.485-71.082-14.142-16.665-6.716-21.144-8.521-32.774,9.794C180.019,347.216,171.806,352.042,162.95,352.042ZM129.725,337.82c8.886,0,16.006,2.156,21.979,3.965,12.382,3.75,18.6,5.632,32.379-15.251,14.515-22.86,24.029-20.3,42.48-12.867,13.468,5.427,33.82,13.629,69.087,13.686,43.6,10.995,55.1,9.523,72.5,7.3a264.49,264.49,0,0,1,27.565-2.383c11.669-.373,23.4-.551,34.932-.725,28.554-.432,55.524-.841,77.5-4.106,32.521-4.832,47.959-9.972,62.326-16.7,2.927-1.371,4.724-2.913,4.806-4.126.121-1.794-2.725-4.627-4.826-5.981a4.032,4.032,0,0,1-1.749-2.5l-2.946-13.28q-.043-.194-.066-.387c-.369-1.385-.72-3.238-1.183-5.685-10.552-55.731-20-91.188-28.067-105.385C491.489,55.958,421.032,33.229,346.662,18.69,299.184.488,234.814,5.675,173.8,32.372c-3.328,1.456-8.07,3.335-13.268,5.393-9.85,3.9-22.108,8.752-28.165,12.2-7.112,4.053-9.969,7.278-13.586,11.361a82.464,82.464,0,0,1-11.1,10.793A252.934,252.934,0,0,0,69.735,109.54C54.257,130.5,42.148,159.222,33.861,194.771c-.765,3.284-1.729,7.241-2.774,11.535-3.212,13.2-7.209,29.617-8.519,39.075a52.737,52.737,0,0,0-.2,15.149,62.613,62.613,0,0,1,.374,12.234c-.489,7.4-2.888,15.789-7.129,24.945a28,28,0,0,0-1.333,4.053,25.031,25.031,0,0,1-2.323,6.189A10.238,10.238,0,0,1,8.7,311.193l.147.194c.947,1.232,5.176,2.309,7.447,2.887,1.253.319,2.413.618,3.354.929,7.124,2.353,14.318,5.566,21.276,8.672l9.134,4.076c7.739,3.491,15.742,7.1,23.979,8.866a60.869,60.869,0,0,0,12.253.88c2.583.017,5.164.037,7.714.22,6.149.442,11.658.416,17.49.389,3.427-.016,6.889-.032,10.529.049A56.164,56.164,0,0,1,129.725,337.82Z"/><path d="M164.809,325.333a3,3,0,0,1-2.4-4.8,139.638,139.638,0,0,1,25.593-26.076,3,3,0,1,1,3.7,4.727,133.635,133.635,0,0,0-24.493,24.956A3,3,0,0,1,164.809,325.333Z"/><path d="M354.282,325.032c-9.31,0-18.573-.621-27.333-3.02a247.915,247.915,0,0,0-47.1-8.529l-9.089-.709c-4.569-.37-9.134-.74-13.753-1.019-8.418-.507-15.14-3.186-22.256-6.021-2.523-1.006-5.095-2.031-7.8-2.974a3,3,0,0,1,1.971-5.667c2.8.973,5.451,2.029,8.055,3.067,6.655,2.652,12.941,5.157,20.4,5.606,4.66.281,9.266.654,13.876,1.028l9.036.705a253.881,253.881,0,0,1,48.252,8.727c12.642,3.462,26.905,2.945,40.7,2.445,6.254-.227,12.44-.449,18.411-.317,13.784.306,28.179-.916,42.1-2.1,9.054-.768,18.093-1.535,27.027-1.911,13.846-.584,27.84-2.133,41.373-3.631,10.58-1.171,21.52-2.382,32.365-3.132l3.58-.227c8.144-.494,14.028-.851,21.333-4.9a90.806,90.806,0,0,1,8.376-3.858,61.255,61.255,0,0,0,6.147-2.809,3,3,0,1,1,3.016,5.187,67.326,67.326,0,0,1-6.836,3.152,84.554,84.554,0,0,0-7.792,3.574c-8.5,4.714-15.285,5.126-23.881,5.647l-3.53.224c-10.721.741-21.6,1.945-32.118,3.109-13.633,1.509-27.731,3.069-41.781,3.662-8.85.373-17.8,1.134-26.772,1.9-14.078,1.195-28.636,2.43-42.74,2.118-5.857-.13-11.925.092-18.06.314C364.43,324.847,359.349,325.032,354.282,325.032Z"/><path d="M76.626,332.726h-.087c-11.175-.318-21.026-4.608-30.553-8.756l-2.393-1.039a51.207,51.207,0,0,1-8.893-5.324,48.668,48.668,0,0,0-7.443-4.563c-4.546-2.075-11.511-3.33-18.631-3.357a3,3,0,1,1,.023-6c7.93.031,15.817,1.488,21.1,3.9a53.93,53.93,0,0,1,8.381,5.1,45.985,45.985,0,0,0,7.844,4.74l2.408,1.046c9.418,4.1,18.314,7.974,28.328,8.259a3,3,0,0,1-.084,6Z"/><path d="M420.19,281.648c-15.016-2.133-14.042-2.628-14.45-24.272s-1.028-40-14.323-83.67c0,0,10.065.9,40.094.291,22.352-.454,31.579,1.859,34.836,3.07a2.874,2.874,0,0,1,1.831,2.125,239.753,239.753,0,0,1,3.861,31.255,2.873,2.873,0,0,1-3.974,2.842c-5.421-2.269-16.268-5.947-33.778-8.315a2.882,2.882,0,0,0-3.253,3.148l1.116,10.706a2.867,2.867,0,0,0,2.9,2.576,131.009,131.009,0,0,1,22.109,1.408,2.887,2.887,0,0,1,2.406,2.544l1.468,14.08a2.876,2.876,0,0,1-3.188,3.154l-17.977-2.073a2.873,2.873,0,0,0-3.062,3.747,333.789,333.789,0,0,1,8.9,32.656,2.881,2.881,0,0,1-3.263,3.447Z" fill="#ffe200"/><path d="M420.022,285.664l-.395-.056c-16.992-2.414-17.525-5.6-17.823-24.41l-.063-3.747c-.388-20.648-.724-38.48-14.15-82.58l-1.725-5.667,5.9.517c.075.007,10.331.87,39.661.276q2.971-.06,5.644-.059c18.776,0,27.273,2.117,30.667,3.379A6.845,6.845,0,0,1,472.1,178.4a243.03,243.03,0,0,1,3.932,31.8,6.819,6.819,0,0,1-1.85,5.143,6.968,6.968,0,0,1-7.66,1.637c-4.663-1.952-14.917-5.536-31.722-7.9l1.184,8.314,1.461-.012a129.45,129.45,0,0,1,20.368,1.482,6.908,6.908,0,0,1,5.727,6.075l1.468,14.08a6.876,6.876,0,0,1-6.832,7.588l-17.032-1.922c2.2,6.865,5.791,18.8,8.471,31.4A6.883,6.883,0,0,1,442.9,284.4h-.314l-.769-.085ZM396.874,177.986c12.151,41.306,12.5,59.791,12.865,79.315l.064,3.771c.237,14.907.24,15.093,10.555,16.56l21.142-1.217c-2.8-12.83-6.5-24.8-8.5-30.908a6.873,6.873,0,0,1,6.523-9.009l17.748,2L455.7,226.628a123.777,123.777,0,0,0-18.251-1.244l-2.334.019h0a6.878,6.878,0,0,1-6.937-6.161l-1.116-10.705a6.883,6.883,0,0,1,6.839-7.589c17.115,2.256,27.934,5.553,34.388,8.111a286.7,286.7,0,0,0-3.9-28.442c-2.847-.939-10.409-2.678-27.309-2.678q-2.6,0-5.482.057C413.611,178.36,402.771,178.188,396.874,177.986Z"/></g></svg>