<svg xmlns="http://www.w3.org/2000/svg" xmlns:xlink="http://www.w3.org/1999/xlink" width="521.214" height="365.341" viewBox="0 0 521.214 365.341"><defs><clipPath id="a"><rect width="521.214" height="365.341" fill="none"/></clipPath></defs><g clip-path="url(#a)"><path d="M512.215,143.3s6.634,11.175,4.618,32.562c-2.22,23.558-17.167,39.937-49.572,47.69s-151.541,23.57-156.279,24.162S148.689,231.133,146.32,231.133s-24.285-48.569-24.285-53.307,23.692-50.347,25.469-51.531,129.716-9.477,135.047-10.069,156.961,5.923,164.661,8.292S486.3,125.7,489.266,125.7s22.949,17.6,22.949,17.6" fill="#fffef5"/><path d="M284.037,112.188c13.606,0,155.869,5.9,164.352,8.507,1.582.487,6.5,1.3,21.622,1.3,6.514,0,12.728-.15,16.289-.236l2.967-.06c1.452,0,4.472,0,25.593,18.6a4,4,0,0,1,.8.96c.3.5,7.275,12.553,5.161,34.979-2.505,26.583-19.718,43.332-52.624,51.2-33.229,7.95-155.554,24.1-156.714,24.241-7.038.046-63.066-5.822-124.915-12.359-20.918-2.211-38.984-4.121-40.382-4.2-7.747,0-28.146-56.731-28.146-57.3,0-5.145,23.431-52.314,27.251-54.86,1.527-1.019,2.1-1.4,103.125-8.335,17.224-1.182,32.1-2.2,33.7-2.381C282.407,112.217,283.061,112.188,284.037,112.188ZM470.01,130c-12.508,0-20.35-.542-23.974-1.657-7.535-2.007-143.832-8.154-162-8.153l-1.088.018c-1.64.183-13.381.992-33.989,2.407-32.12,2.2-90.714,6.227-99.475,7.374-3.076,4.931-22.644,42.913-23.463,48.089.639,4.477,17.62,42.278,22.168,49.2,3.863.362,14.365,1.466,39.215,4.092,43.739,4.623,116.946,12.361,123.208,12.361,1.03-.128,122.841-16.2,155.719-24.067,29.16-6.977,44.377-21.426,46.52-44.175,1.623-17.222-2.712-27.382-3.832-29.67-8.257-7.241-18.3-15.376-20.561-16.235l-1.966.174C482.889,129.847,476.6,130,470.01,130Z"/><path d="M264.454,171.87c0,25.184-21.284,45.6-47.54,45.6s-47.539-20.415-47.539-45.6,21.284-45.6,47.539-45.6,47.54,20.415,47.54,45.6"/><path d="M204.319,155.495c-4.318-9.033,1.626-13.18,6.91-11.267s5.285,10.2,2.643,13.18-8.13,1.063-9.553-1.913" fill="#fffef5"/><path d="M201.356,177.9c-5.809-4.3-2.272-9.913,3.511-7.229s2.065,11.36-3.511,7.229" fill="#fffef5"/><path d="M239.358,175.01c-2.572-6.573,2.065-7.435,4.544-4.337s-2.685,9.087-4.544,4.337" fill="#fffef5"/><path d="M466.047,184.991c0,22.864-19.2,41.4-42.886,41.4s-42.885-18.535-42.885-41.4,19.2-41.4,42.885-41.4,42.886,18.535,42.886,41.4"/><path d="M415.678,166.6c-3.92-8.2,1.476-11.966,6.274-10.229s4.8,9.264,2.4,11.966-7.381.965-8.673-1.737" fill="#fffef5"/><path d="M408.852,185.076c-2.682-5.989,2.613-8.856,5.995-4.158s-3.42,9.908-5.995,4.158" fill="#fffef5"/><path d="M443.263,187.842c-2.336-5.968,1.875-6.75,4.125-3.938s-2.437,8.251-4.125,3.938" fill="#fffef5"/><path d="M11.993,218.373S-1.714,245.785,6.772,286.25s69.181,68.531,138.364,73.1,116.175,1.958,191.885-15.011,88.762-21.538,104.426-45.687,25.824-38.089,25.824-38.089,23.021-1.77,20.068-33.054c0,0,14.813-2.153,21.505-11.993,6.461-9.5,0-17.1,0-17.1s-9.623,21.5-62.893,26.635c-81.26,7.832-129.288-22.445-129.288-22.445a19.955,19.955,0,0,0-2.718-12.119s-16.455,19.826-77.323,17S148.671,187.2,140.67,172.636c-10.036-18.269,9.1-30.247,32.536-36.689,50.838-13.971,112.59,2.681,127.216,9.506C312.474,151.078,323,163.5,323,163.5s1.792-1.173,2.059-7.333a219.242,219.242,0,0,1,41.82-5.5c30.354-1.15,56.294,2.5,86.206.852s48.087-2.922,59.125-8.211c0,0-.921-4.614-7.24-8.5,0,0-4.385-15.684-23.922-28.556-19.918-13.123-39.219-11.886-39.219-11.886s-4.256-44.7-38.313-73.514S302.005,5.126,276.462,23.464c0,0-43.785-38.2-152.237-1.345S11.993,218.373,11.993,218.373" fill="#68984c"/><path d="M199.01,365.341H199c-16.268,0-33.469-.636-54.131-2C69.628,358.372,11.23,327.009,2.857,287.071c-7.96-37.956,2.882-64.631,5.169-69.663.548-12.893,9.288-163.184,114.912-199.076,31.732-10.783,61.117-16.25,87.339-16.25,38.56,0,59.462,11.752,66.3,16.468C293.587,7.544,322.488,0,348.3,0c16.779,0,40.428,3.087,57.806,17.792,29.617,25.06,37.436,61.095,39.234,72.585A76.531,76.531,0,0,1,483.253,102.9c17.214,11.342,23.4,24.818,25.065,29.3,6.489,4.5,7.7,9.7,7.819,10.312a4,4,0,0,1-2.194,4.39c-11.8,5.655-30.729,6.951-60.634,8.6-15.775.868-30.454.282-45.247-.315-13.282-.536-26.656-1.079-41.028-.534a226.356,226.356,0,0,0-38.259,4.753c-.717,4.827-2.479,6.713-3.581,7.434a4,4,0,0,1-5.24-.758c-.1-.118-10.134-11.835-21.224-17.011-9.769-4.559-43.868-14.552-81.554-14.552a162.641,162.641,0,0,0-42.91,5.278c-17.123,4.706-28.278,11.377-31.412,18.786-1.562,3.693-1.13,7.658,1.322,12.12,3.764,6.852,21.567,29.466,92.632,32.771q5.988.279,11.4.272c48.317,0,62.552-15.7,62.691-15.862a4.028,4.028,0,0,1,6.428.452,23.542,23.542,0,0,1,3.422,11.992c8.435,4.63,43.755,22.006,98.615,22,8.608,0,17.425-.429,26.206-1.276,49.661-4.787,59.555-24.144,59.65-24.339a4.051,4.051,0,0,1,3.107-2.255,4,4,0,0,1,3.568,1.351c2.917,3.432,6.725,12.435.26,21.944-5.468,8.04-15.276,11.555-20.592,12.929.4,10.346-1.986,18.65-7.1,24.719a26.734,26.734,0,0,1-14.914,8.833c-2.875,4.018-12.032,16.983-24.745,36.582-16.591,25.578-30.126,30.2-106.907,47.413C283.708,360.386,243.468,365.341,199.01,365.341ZM210.277,10.081c-25.344,0-53.863,5.324-84.765,15.825-104.6,35.543-109.483,191-109.52,192.561a4.035,4.035,0,0,1-.418,1.687c-.131.264-12.956,26.8-4.887,65.274,7.639,36.44,63.035,65.2,134.713,69.929,20.483,1.353,37.516,1.983,53.6,1.983,43.833,0,83.565-4.9,137.143-16.906,77.089-17.278,87.569-21.8,101.945-43.961,15.543-23.963,25.845-38.128,25.947-38.268a4,4,0,0,1,2.926-1.632,18.312,18.312,0,0,0,11.464-6.417c4.189-5.048,5.847-12.542,4.929-22.273a4.007,4.007,0,0,1,3.4-4.333c.131-.02,13.184-2.055,18.781-10.285a11.27,11.27,0,0,0,2.161-6.795c-7.206,7.4-24.161,18.97-61.363,22.556-9.035.871-18.11,1.312-26.973,1.313-65.448,0-103.255-23.361-104.832-24.355a4,4,0,0,1-1.83-3.924,16.614,16.614,0,0,0-.35-5c-7.8,5.51-26.467,14.7-64.143,14.7q-5.594,0-11.771-.281c-73.169-3.4-93.8-26.947-99.272-36.911-3.656-6.655-4.22-13.077-1.678-19.088,5.264-12.446,22.841-19.586,36.66-23.384a170.6,170.6,0,0,1,45.03-5.564c39.014,0,74.664,10.509,84.938,15.3,7.622,3.557,14.556,9.527,18.98,13.847a4,4,0,0,1,2.974-3.382,221.337,221.337,0,0,1,42.665-5.627c14.589-.553,28.17-.009,41.653.535,14.546.587,28.974,1.174,44.485.32,25.6-1.41,42.847-2.535,53.709-6.245a15.759,15.759,0,0,0-3.7-3.069,4.048,4.048,0,0,1-1.751-2.312c-.042-.144-4.374-14.516-22.276-26.311a67.348,67.348,0,0,0-35.636-11.257l-1.136.024a4.012,4.012,0,0,1-4.228-3.61c-.042-.431-4.562-43.468-36.915-70.843C385.407,10.758,363.739,8,348.3,8c-29.844,0-56.948,9.7-69.5,18.714a4.019,4.019,0,0,1-4.949-.224C273.654,26.325,254.2,10.081,210.277,10.081Z"/><path d="M325.066,159.167q-.1,0-.2-.006a3,3,0,0,1-2.8-3.188c.928-14.295-18.707-44.675-53.575-51.421-47.419-9.174-103.785,6.128-104.349,6.283a3,3,0,1,1-1.6-5.784c2.357-.651,58.3-15.83,107.085-6.391,36.91,7.141,59.607,39.459,58.423,57.7A3,3,0,0,1,325.066,159.167Z"/><path d="M311.339,293.175c-28.876-11.55,4-27.987,45.757-35.984s59.529-5.775,73.744,5.775-14.66,26.211-48.866,31.986-70.635-1.777-70.635-1.777"/><path d="M194.063,298.552c48.435,14.741,70.02,7.371,103.714,6.318s65.283,3.158,100.03,0,56.332-2.106,61.6-17.9-11.055-19.48-22.638-20.006-22.111,14.215-60.544,18.426-50.541,0-79.5-4.738-97.663-8.051-97.663-8.051Z" fill="#af6747"/><path d="M249.927,311.64h-.005c-18.393,0-35.979-2.857-57.023-9.262a4,4,0,0,1-2.763-4.583l5-25.951a4,4,0,0,1,4.12-3.239c2.815.136,69.268,3.378,98.116,8.1,4.6.752,8.77,1.491,12.692,2.185,13.355,2.364,23.9,4.232,38.375,4.232a252.515,252.515,0,0,0,27.348-1.708c22.583-2.474,35.1-8.629,44.233-13.124,6.065-2.983,10.856-5.34,16.139-5.34,9.347.406,20.614,2.421,25.69,9.813,2.907,4.233,3.361,9.438,1.35,15.472-5.314,15.943-23.225,17.324-50.339,19.414-4.594.354-9.494.732-14.69,1.2-8.984.816-18.538,1.213-29.209,1.213-10.084,0-20.017-.344-29.942-.689-13.595-.472-27.175-.946-41.117-.51-7.716.241-14.79.818-21.7,1.38C267.4,310.964,259.089,311.64,249.927,311.64Zm-51.251-15.889c18.744,5.445,34.682,7.889,51.246,7.889h.005c8.839,0,16.993-.663,25.627-1.366,7.036-.572,14.241-1.157,22.1-1.4,14.12-.441,27.876.033,41.644.511,9.833.341,19.674.684,29.665.684,10.427,0,19.744-.386,28.484-1.181,5.234-.476,10.171-.857,14.8-1.214,26.832-2.069,39.884-3.527,43.364-13.968,1.193-3.577,1.076-6.329-.355-8.413-2.471-3.6-9.276-5.905-18.67-6.332-3.858-.018-7.7,1.886-13.035,4.509-9.124,4.488-22.911,11.27-46.892,13.9a260.313,260.313,0,0,1-28.219,1.756c-15.174,0-26.028-1.922-39.77-4.354-3.89-.689-8.03-1.422-12.589-2.168-24.7-4.042-79.452-7.082-93.747-7.827Z"/><path d="M214.169,254.5c50.73,5.643,72.672,10,112.892,3.729,29.759-4.642,47.123-12.882,85.093-10.17s45.767,4.407,57.971,1.356,14.917-10.51,17.629-7.8,9.831,19.324-7.458,28.817-64.832-6.211-93.569-6.323c-39.457-.153-46.171,9.7-75.753,17.563-40.617,10.8-111.913-9.074-111.913-9.074Z" fill="#af6747"/><path d="M486.508,237.036a5.666,5.666,0,0,1,4.074,1.755c2.56,2.56,5.829,9.974,4.718,17.758-.721,5.055-3.576,12.176-13.079,17.394-4.341,2.383-10.3,3.541-18.223,3.541-11.41,0-25.694-2.413-39.508-4.746-13.338-2.253-27.129-4.583-37.779-4.624H386.7c-26.226,0-37.125,4.177-50.925,9.465A221.4,221.4,0,0,1,312,285.542c-8.358,2.223-18.544,3.35-30.273,3.35-38.69,0-81.921-11.929-83.743-12.437a4,4,0,0,1-2-6.416l15.108-18.1a4,4,0,0,1,3.513-1.412c7.127.793,13.687,1.56,19.809,2.277,22.37,2.617,38.533,4.509,55.273,4.509a233.47,233.47,0,0,0,36.751-3.033c8.5-1.326,16.028-2.961,23.307-4.542,18.184-3.949,35.118-7.635,62.687-5.666,8.051.575,14.747,1.1,20.417,1.553,10.817.855,17.963,1.42,23.477,1.42a49.5,49.5,0,0,0,12.822-1.507,29.3,29.3,0,0,0,11.412-5.731c1.969-1.485,3.669-2.768,5.939-2.769ZM464,269.483c6.45,0,11.286-.859,14.372-2.554,5.214-2.863,8.233-6.655,8.974-11.272a16.94,16.94,0,0,0-1.544-9.779l-.415.313A37.327,37.327,0,0,1,471.1,253.3c-10.2,2.549-17.434,2-38.87.3-5.654-.447-12.33-.975-20.357-1.548-5.068-.362-9.757-.525-14.158-.525-18.5,0-31.986,2.929-46.261,6.029-7.392,1.606-15.037,3.266-23.772,4.628a241.256,241.256,0,0,1-37.984,3.129c-17.206,0-33.563-1.914-56.2-4.563-5.492-.643-11.337-1.327-17.629-2.033l-9.675,11.592c13.308,3.279,46.252,10.584,75.543,10.584,11.035,0,20.528-1.037,28.216-3.082a211.727,211.727,0,0,0,22.962-7.7c14-5.364,26.087-10,52.916-10,12.225.046,26.345,2.431,40,4.738C439.312,267.127,453.26,269.483,464,269.483Z"/><path d="M324.375,150.571a3,3,0,0,1-1.931-5.292c.406-.339,10.286-8.343,40.121-12.86,27.88-3.665,80.443-1.347,102.889-.357l1.392.061a354.136,354.136,0,0,0,37.9-.313,3,3,0,0,1,.458,5.982,360.376,360.376,0,0,1-38.621.325l-1.393-.061c-22.289-.983-74.484-3.284-101.785.3-27.774,4.206-37.047,11.471-37.138,11.544A3.008,3.008,0,0,1,324.375,150.571Z"/><path d="M225.4,235.338a319.841,319.841,0,0,1-40.083-2.58,3,3,0,0,1,.754-5.952c58.433,7.4,105.509-2.2,121.811-15.516,3.62-2.956,5.569-5.955,5.792-8.913a3,3,0,1,1,5.983.451c-.352,4.662-3.036,9.073-7.98,13.109C298.426,226.754,266.592,235.338,225.4,235.338Z"/><path d="M313.947,194.483a4,4,0,0,1-2.7-6.956c9.277-8.46,7.793-23.451,7.777-23.6a4,4,0,1,1,7.955-.85c.083.779,1.9,19.2-10.341,30.363A3.986,3.986,0,0,1,313.947,194.483Z"/><path d="M246.642,288.963c0,34.961-32.483,63.3-72.553,63.3s-72.553-28.342-72.553-63.3,32.483-63.3,72.553-63.3,72.553,28.342,72.553,63.3" fill="#68984c"/><path d="M233.9,328.8a4,4,0,0,1-3.138-6.477,53.558,53.558,0,0,0,11.878-33.36c0-32.7-30.752-59.3-68.552-59.3a4,4,0,0,1,0-8c42.211,0,76.552,30.192,76.552,67.3a61.48,61.48,0,0,1-13.6,38.314A3.993,3.993,0,0,1,233.9,328.8Z"/><path d="M102.814,281.088a4,4,0,0,1-3.912-4.851c3.467-15.94,13.423-30.255,28.032-40.306a4,4,0,0,1,4.535,6.591c-12.927,8.894-21.716,21.471-24.75,35.416A4,4,0,0,1,102.814,281.088Z"/><path d="M131.75,209.146a2.982,2.982,0,0,1-1.589-.458c-.713-.447-17.5-11.164-20.245-29.312a54.12,54.12,0,0,1,3.059-27.246,3,3,0,0,1,5.508,2.38,48.873,48.873,0,0,0-2.635,23.969c2.326,15.384,17.353,25.033,17.5,25.129a3,3,0,0,1-1.6,5.539Z"/><path d="M293.631,114a3,3,0,0,1-1.314-5.7c.753-.366,19.037-9.02,70.761-13.881,50.294-4.725,78.66-3.068,78.94-3.05a3,3,0,0,1-.368,5.989c-.277-.017-28.239-1.641-78.01,3.035-50.65,4.76-68.525,13.218-68.7,13.3A2.989,2.989,0,0,1,293.631,114Z"/><path d="M289.714,111.8a3,3,0,0,1-2.968-2.583,54.567,54.567,0,0,0-20.621-32.541,3,3,0,0,1,3.609-4.793c19.788,14.9,22.835,35.638,22.956,36.513a3,3,0,0,1-2.975,3.4Z"/><path d="M263.688,249.616a3,3,0,0,1-.37-5.977c.233-.029,23.528-3.105,39.984-16.7a3,3,0,0,1,3.821,4.626c-17.831,14.729-42.038,17.9-43.06,18.027A3.032,3.032,0,0,1,263.688,249.616Z"/><path d="M426.244,245.2a3,3,0,0,1-2.449-1.264,37.057,37.057,0,0,0-6.918-7.557,3,3,0,0,1,1.83-5.4c.379,0,38.292.338,67.97-6.392A3,3,0,1,1,488,230.434c-22.451,5.091-49.393,6.231-62.08,6.478.882,1.033,1.818,2.216,2.764,3.549a3,3,0,0,1-2.444,4.736Z"/></g></svg>