<?xml version="1.0" encoding="UTF-8"?>
<svg id="Layer_1" xmlns="http://www.w3.org/2000/svg" version="1.1" viewBox="0 0 800 800">
  <!-- Generator: Adobe Illustrator 29.2.1, SVG Export Plug-In . SVG Version: 2.1.0 Build 116)  -->
  <defs>
    <style>
      .st0 {
        fill: #eb001b;
      }

      .st1 {
        fill: #ff5f00;
      }

      .st2 {
        fill: #f79e1b;
      }
    </style>
  </defs>
  <path class="st1" d="M473.2,523.8h-142.8v-254.7h142.8v254.7Z"/>
  <path class="st0" d="M339.6,396.5c0-51.7,24.4-97.7,62.3-127.3-27.8-21.7-62.8-34.6-100.8-34.6-90.1,0-163.2,72.5-163.2,162s73,162,163.2,162,73.1-12.9,100.8-34.6c-38-29.7-62.3-75.7-62.3-127.3"/>
  <path class="st2" d="M665.8,396.5c0,89.5-73,162-163.2,162s-73.1-12.9-100.9-34.6c38-29.7,62.3-75.7,62.3-127.3s-24.4-97.7-62.3-127.3c27.8-21.7,62.8-34.6,100.9-34.6,90.1,0,163.2,72.5,163.2,162"/>
</svg>