<svg xmlns="http://www.w3.org/2000/svg" xmlns:xlink="http://www.w3.org/1999/xlink" width="197.809" height="92.185" viewBox="0 0 197.809 92.185"><defs><clipPath id="a"><rect width="197.809" height="92.185" transform="translate(0 0.001)" fill="none"/></clipPath></defs><g transform="translate(0 0)"><g clip-path="url(#a)"><path d="M106.658,14.936c-1.037-2.722-.459-6.208-.681-9.146-.2-2.7-.057-3.463,2.766-3.988,4.773-.887,10.37-.262,15.266-.385.453,3.5,3.482,12.959-.433,13.534-5.3.779-10.9-.067-16.918-.015" fill="#ed323d"/><path d="M118.418,15.782c-1.766,0-3.529-.082-5.394-.169-1.888-.088-3.841-.179-5.821-.179l-.54,0-.348,0-.124-.325a17.243,17.243,0,0,1-.669-6.284c.014-1.056.028-2.053-.044-3a5.287,5.287,0,0,1,.32-3.107c.5-.824,1.506-1.159,2.853-1.41A35.959,35.959,0,0,1,115.3.817c1.238,0,2.5.03,3.715.059,1.18.028,2.4.058,3.56.058.51,0,.974-.005,1.419-.017l.451-.011.058.447c.092.709.292,1.67.524,2.783.765,3.67,1.717,8.238.287,10.286a2.381,2.381,0,0,1-1.667,1.024A35.457,35.457,0,0,1,118.418,15.782ZM107.2,14.434c2,0,3.968.092,5.868.18,1.854.087,3.6.168,5.348.168a34.492,34.492,0,0,0,5.086-.326,1.4,1.4,0,0,0,.993-.607c1.183-1.694.2-6.4-.446-9.509-.192-.921-.363-1.739-.472-2.414-.318.005-.648.008-1,.008-1.173,0-2.4-.029-3.584-.058-1.212-.029-2.465-.059-3.691-.059a35.029,35.029,0,0,0-6.468.477c-1.284.239-1.916.514-2.183.949a4.655,4.655,0,0,0-.176,2.51c.075.994.061,2.06.047,3.091a17.917,17.917,0,0,0,.489,5.591Z"/><path d="M125.784,14.218q-.286-3.849-.573-7.7a34.206,34.206,0,0,1-.352-4.932,18.586,18.586,0,0,1,6.472.007c1.006.17.492.654.778,3.362.321,3.035.424,6.168.582,9.181a9.291,9.291,0,0,1-3.994,1.04,6.076,6.076,0,0,1-1.713-.343c-.385-.094-.8.328-1.2-.618" fill="#fff600"/><path d="M128.586,15.682a4.636,4.636,0,0,1-1.287-.242c-.151-.044-.293-.085-.433-.119h-.016a1.258,1.258,0,0,0-.127.011,2.055,2.055,0,0,1-.251.019,1.277,1.277,0,0,1-1.148-.938l-.032-.076-.006-.082q-.1-1.3-.194-2.592c-.125-1.673-.255-3.4-.379-5.105-.035-.481-.1-1-.161-1.556a17.686,17.686,0,0,1-.19-3.459l.034-.358.35-.082a13.609,13.609,0,0,1,3.048-.3,22.381,22.381,0,0,1,3.622.3c1.077.182,1.082.855,1.089,1.786a19.055,19.055,0,0,0,.1,2.017c.254,2.4.373,4.869.488,7.258.031.642.063,1.3.1,1.95l.016.308-.269.153a9.669,9.669,0,0,1-4.211,1.1C128.681,15.681,128.634,15.682,128.586,15.682Zm-1.737-1.361a1.054,1.054,0,0,1,.253.029c.16.039.32.085.474.13a3.854,3.854,0,0,0,1.01.2l.081,0a9.066,9.066,0,0,0,3.508-.832c-.028-.545-.054-1.1-.08-1.636-.114-2.375-.232-4.83-.483-7.2A19.938,19.938,0,0,1,131.5,2.9a3.69,3.69,0,0,0-.044-.752.818.818,0,0,0-.212-.055,21.663,21.663,0,0,0-3.455-.283A13.908,13.908,0,0,0,125.334,2a20.76,20.76,0,0,0,.21,2.884c.066.564.129,1.1.165,1.6.125,1.7.254,3.431.379,5.1q.094,1.253.187,2.506c.1.212.166.253.169.255a.156.156,0,0,0,.026,0,1.281,1.281,0,0,0,.133-.012A2.018,2.018,0,0,1,126.85,14.321Z"/><path d="M133.057,14.307q-.287-3.849-.573-7.7a34.207,34.207,0,0,1-.352-4.932c1.873-.439,3.694.175,5.571.492,1.006.171,1.393.169,1.679,2.877.321,3.035.424,6.168.582,9.181a9.292,9.292,0,0,1-3.994,1.04,6.076,6.076,0,0,1-1.713-.343c-.385-.094-.8.328-1.2-.618" fill="#fff600"/><path d="M135.859,15.771a4.636,4.636,0,0,1-1.287-.242c-.151-.044-.293-.085-.433-.119,0,0,0,0,0,0h-.016a1.258,1.258,0,0,0-.127.011,2.055,2.055,0,0,1-.251.019A1.277,1.277,0,0,1,132.6,14.5l-.032-.076-.006-.082q-.1-1.291-.193-2.581c-.125-1.677-.255-3.411-.38-5.117-.035-.481-.1-1-.161-1.556a17.686,17.686,0,0,1-.19-3.459l.034-.358.35-.082a6.491,6.491,0,0,1,1.5-.166,15.105,15.105,0,0,1,3.028.412c.407.084.828.17,1.241.24l.073.012a1.791,1.791,0,0,1,1.386.715,5.914,5.914,0,0,1,.634,2.59c.254,2.4.373,4.869.487,7.257.031.642.063,1.305.1,1.95l.016.308-.269.153a9.669,9.669,0,0,1-4.211,1.1C135.954,15.77,135.907,15.771,135.859,15.771Zm-1.737-1.361a1.054,1.054,0,0,1,.253.029c.16.039.32.085.474.13a3.853,3.853,0,0,0,1.01.2l.081,0a9.066,9.066,0,0,0,3.508-.832c-.028-.545-.055-1.1-.08-1.637-.114-2.375-.232-4.83-.483-7.2a5.7,5.7,0,0,0-.467-2.135c-.116-.171-.241-.208-.724-.289l-.074-.012c-.43-.073-.86-.161-1.276-.247a14.145,14.145,0,0,0-2.827-.391,5.75,5.75,0,0,0-.909.069,20.8,20.8,0,0,0,.21,2.88c.066.564.128,1.1.165,1.6.125,1.705.255,3.439.38,5.115q.093,1.247.186,2.5c.1.212.166.253.169.255a.162.162,0,0,0,.026,0,1.281,1.281,0,0,0,.133-.012A2.018,2.018,0,0,1,134.123,14.41Z"/><path d="M160.4,14.015q-.287-3.849-.573-7.7a45.24,45.24,0,0,1-.356-4.932c1.4-.4,2.036.218,3.525.157,1.394-.06,1.829-.784,2,3.3.128,3.049.435,6.208.61,9.22a5.508,5.508,0,0,1-2.992.965,3.733,3.733,0,0,1-1.3-.374c-.292-.1-.6.313-.916-.639" fill="#fff600"/><path d="M162.553,15.53a2.922,2.922,0,0,1-1.082-.279c-.1-.041-.2-.08-.289-.112l-.045.006a1.446,1.446,0,0,1-.2.016c-.685,0-.925-.716-1.016-.986l-.02-.059,0-.062q-.1-1.292-.193-2.584-.191-2.556-.38-5.113c-.036-.482-.091-1-.15-1.556a23.39,23.39,0,0,1-.206-3.439L158.987,1l.343-.1A3.815,3.815,0,0,1,160.4.749,5.7,5.7,0,0,1,161.548.9a5.99,5.99,0,0,0,1.239.152c.061,0,.124,0,.186,0,.175-.008.337-.027.493-.046a4.125,4.125,0,0,1,.493-.041,1.183,1.183,0,0,1,1.19.933,11.741,11.741,0,0,1,.344,2.932c.075,1.776.212,3.618.345,5.4.094,1.258.191,2.56.264,3.813l.016.271-.218.161a5.945,5.945,0,0,1-3.261,1.062ZM161.2,14.137a.831.831,0,0,1,.276.045c.126.043.25.094.37.142a2.162,2.162,0,0,0,.707.206h.03a5.162,5.162,0,0,0,2.5-.718c-.07-1.158-.16-2.355-.246-3.515-.134-1.789-.272-3.639-.347-5.432a11.513,11.513,0,0,0-.293-2.655c-.085-.253-.118-.253-.242-.253a3.425,3.425,0,0,0-.372.033c-.167.02-.356.043-.572.053-.077,0-.153,0-.228,0a6.905,6.905,0,0,1-1.434-.172,4.783,4.783,0,0,0-.957-.127,2.638,2.638,0,0,0-.438.037,27.741,27.741,0,0,0,.213,2.907c.06.561.116,1.09.153,1.588q.188,2.557.38,5.112.094,1.26.188,2.52a1.323,1.323,0,0,0,.108.24H161A1.424,1.424,0,0,1,161.2,14.137Z"/><path d="M154.064,27q-.286-3.849-.573-7.7a45.24,45.24,0,0,1-.356-4.932c1.4-.4,2.036.218,3.525.157,1.394-.06,1.829-.784,2,3.3.128,3.049.435,6.208.61,9.22a5.508,5.508,0,0,1-2.992.965,3.733,3.733,0,0,1-1.3-.374c-.292-.1-.6.313-.916-.639" fill="#fff600"/><path d="M156.22,28.516a2.922,2.922,0,0,1-1.082-.279c-.1-.041-.2-.08-.289-.112l-.045.006a1.445,1.445,0,0,1-.2.016c-.685,0-.925-.716-1.016-.986l-.02-.059,0-.062q-.1-1.3-.194-2.6-.191-2.55-.379-5.1c-.036-.481-.091-1-.15-1.556a23.392,23.392,0,0,1-.206-3.439l.019-.356.343-.1a3.814,3.814,0,0,1,1.065-.156,5.7,5.7,0,0,1,1.153.146,5.99,5.99,0,0,0,1.239.152c.061,0,.124,0,.186,0,.175-.008.337-.027.493-.046a4.125,4.125,0,0,1,.493-.041,1.183,1.183,0,0,1,1.19.933,11.741,11.741,0,0,1,.344,2.932c.075,1.776.212,3.618.345,5.4.094,1.258.191,2.56.264,3.813l.016.271-.218.161a5.945,5.945,0,0,1-3.261,1.062Zm-1.353-1.393a.831.831,0,0,1,.276.045c.126.043.25.094.37.142a2.161,2.161,0,0,0,.707.206h.03a5.162,5.162,0,0,0,2.5-.718c-.07-1.158-.16-2.355-.246-3.515-.134-1.789-.272-3.639-.347-5.432a11.514,11.514,0,0,0-.293-2.655c-.085-.253-.118-.253-.242-.253a3.425,3.425,0,0,0-.372.033c-.167.02-.356.043-.572.053-.077,0-.153,0-.228,0a6.905,6.905,0,0,1-1.434-.172,4.783,4.783,0,0,0-.957-.127,2.638,2.638,0,0,0-.438.037,27.74,27.74,0,0,0,.213,2.907c.06.561.116,1.09.153,1.588q.188,2.551.379,5.1.095,1.266.189,2.532a1.323,1.323,0,0,0,.108.24h.006A1.424,1.424,0,0,1,154.867,27.123Z"/><path d="M179.86,26.886q-.286-3.849-.573-7.7a45.24,45.24,0,0,1-.356-4.932c1.4-.4,2.036.218,3.525.157,1.394-.06,1.829-.784,2,3.3.128,3.049.435,6.208.61,9.22a5.508,5.508,0,0,1-2.992.965,3.733,3.733,0,0,1-1.3-.374c-.292-.1-.6.313-.916-.639" fill="#fff600"/><path d="M182.016,28.4a2.922,2.922,0,0,1-1.082-.279c-.1-.041-.2-.08-.289-.112l-.045.006a1.446,1.446,0,0,1-.2.016c-.685,0-.925-.716-1.016-.986l-.02-.059,0-.062q-.1-1.3-.195-2.609-.19-2.544-.378-5.088c-.036-.482-.091-1-.15-1.556a23.39,23.39,0,0,1-.206-3.439l.019-.356.343-.1a3.815,3.815,0,0,1,1.065-.156,5.7,5.7,0,0,1,1.153.146,5.99,5.99,0,0,0,1.239.152c.061,0,.124,0,.186,0,.175-.008.337-.027.493-.046a4.124,4.124,0,0,1,.493-.041,1.183,1.183,0,0,1,1.19.933,11.741,11.741,0,0,1,.344,2.932c.075,1.776.212,3.618.345,5.4.094,1.259.191,2.56.264,3.813l.016.271-.218.161A5.945,5.945,0,0,1,182.1,28.4Zm-1.353-1.393a.831.831,0,0,1,.276.045c.126.043.25.094.37.142a2.162,2.162,0,0,0,.707.206h.03a5.162,5.162,0,0,0,2.5-.718c-.07-1.158-.16-2.355-.246-3.515-.134-1.789-.272-3.639-.347-5.431a11.513,11.513,0,0,0-.293-2.655c-.085-.253-.118-.253-.242-.253a3.425,3.425,0,0,0-.372.033c-.167.02-.356.043-.572.053-.077,0-.153,0-.228,0a6.905,6.905,0,0,1-1.434-.172,4.783,4.783,0,0,0-.957-.127,2.638,2.638,0,0,0-.438.037,27.741,27.741,0,0,0,.213,2.907c.06.561.116,1.09.153,1.588q.187,2.544.378,5.088.1,1.272.19,2.544a1.323,1.323,0,0,0,.108.24h.006A1.424,1.424,0,0,1,180.663,27.008Z"/><path d="M185.153,26.83q-.286-3.849-.573-7.7a45.24,45.24,0,0,1-.356-4.932c1.4-.4,2.036.218,3.525.157,1.394-.06,1.829-.784,2,3.3.128,3.049.435,6.208.61,9.22a5.508,5.508,0,0,1-2.992.965,3.733,3.733,0,0,1-1.3-.374c-.292-.1-.6.313-.916-.639" fill="#fff600"/><path d="M187.309,28.345a2.922,2.922,0,0,1-1.082-.279c-.1-.041-.2-.08-.289-.112l-.045.006a1.446,1.446,0,0,1-.2.016c-.685,0-.925-.716-1.016-.986l-.02-.059,0-.062q-.1-1.3-.195-2.609-.19-2.544-.378-5.088c-.036-.482-.091-1-.15-1.556a23.39,23.39,0,0,1-.206-3.439l.019-.356.343-.1a3.815,3.815,0,0,1,1.065-.156,5.7,5.7,0,0,1,1.153.146,5.99,5.99,0,0,0,1.239.152c.061,0,.124,0,.186,0,.175-.008.337-.027.493-.046a4.124,4.124,0,0,1,.493-.041,1.183,1.183,0,0,1,1.19.933,11.741,11.741,0,0,1,.344,2.932c.075,1.776.212,3.618.345,5.4.094,1.259.191,2.56.264,3.813l.016.271-.218.161a5.945,5.945,0,0,1-3.261,1.062Zm-1.353-1.393a.831.831,0,0,1,.276.045c.126.043.25.094.37.142a2.162,2.162,0,0,0,.707.206h.03a5.162,5.162,0,0,0,2.5-.718c-.07-1.158-.16-2.355-.246-3.515-.134-1.789-.272-3.639-.347-5.431a11.513,11.513,0,0,0-.293-2.655c-.085-.253-.118-.253-.242-.253a3.425,3.425,0,0,0-.372.033c-.167.02-.356.043-.572.053-.077,0-.153,0-.228,0a6.905,6.905,0,0,1-1.434-.172,4.783,4.783,0,0,0-.957-.127,2.638,2.638,0,0,0-.438.037,27.741,27.741,0,0,0,.213,2.907c.06.561.116,1.09.153,1.588q.187,2.544.378,5.088.1,1.272.19,2.544a1.323,1.323,0,0,0,.108.24h.006A1.424,1.424,0,0,1,185.956,26.952Z"/><path d="M189.981,26.583q-.287-3.849-.573-7.7a45.24,45.24,0,0,1-.356-4.932c1.4-.4,2.036.218,3.525.157,1.394-.06,1.829-.784,2,3.3.128,3.049.435,6.208.61,9.22a5.508,5.508,0,0,1-2.992.965,3.733,3.733,0,0,1-1.3-.374c-.292-.1-.6.313-.916-.639" fill="#fff600"/><path d="M192.137,28.1a2.922,2.922,0,0,1-1.082-.279c-.1-.041-.2-.08-.289-.112l-.045.006a1.446,1.446,0,0,1-.2.016c-.685,0-.925-.716-1.016-.986l-.02-.059,0-.062q-.1-1.292-.193-2.584-.191-2.556-.38-5.113c-.036-.482-.091-1-.15-1.556a23.39,23.39,0,0,1-.206-3.439l.019-.356.343-.1a3.815,3.815,0,0,1,1.065-.156,5.7,5.7,0,0,1,1.153.146,5.99,5.99,0,0,0,1.239.152c.061,0,.124,0,.186,0,.175-.008.337-.027.493-.046a4.125,4.125,0,0,1,.493-.041,1.183,1.183,0,0,1,1.19.933,11.741,11.741,0,0,1,.344,2.932c.075,1.776.212,3.618.345,5.4.094,1.258.191,2.56.264,3.813l.016.271-.218.161a5.945,5.945,0,0,1-3.261,1.062ZM190.784,26.7a.831.831,0,0,1,.276.045c.126.043.25.094.37.142a2.162,2.162,0,0,0,.707.206h.03a5.162,5.162,0,0,0,2.5-.718c-.07-1.158-.16-2.355-.246-3.515-.134-1.789-.272-3.639-.347-5.432a11.513,11.513,0,0,0-.293-2.655c-.085-.253-.118-.253-.242-.253a3.425,3.425,0,0,0-.372.033c-.167.02-.356.043-.572.053-.077,0-.153,0-.228,0a6.905,6.905,0,0,1-1.434-.172,4.783,4.783,0,0,0-.957-.127,2.638,2.638,0,0,0-.438.037,27.741,27.741,0,0,0,.213,2.907c.06.561.116,1.09.153,1.588q.188,2.557.38,5.112.094,1.26.188,2.52a1.323,1.323,0,0,0,.108.24h.006A1.424,1.424,0,0,1,190.784,26.7Z"/><path d="M139.922,14.544c-.275-3.69-.453-7.909-.755-11.5a1.263,1.263,0,0,1,1.117-1.381,58.692,58.692,0,0,1,9.246-.129c2.368.16,5.9-.508,8.129.175,2.812.862,2.135,6.14,2.435,8.647.164,1.371.584,2.877-.419,3.744-1.037.9-4.7.565-6.027.62-3.093.128-6.341.553-9.439.477a10.151,10.151,0,0,1-4.287-.657" fill="#005fbf"/><path d="M144.965,15.71c-.262,0-.52,0-.769-.009-.142,0-.293,0-.451-.007a9.474,9.474,0,0,1-4.036-.7.5.5,0,0,1-.286-.415c-.122-1.638-.227-3.408-.328-5.121-.127-2.153-.259-4.378-.427-6.371a1.757,1.757,0,0,1,1.563-1.92,53.741,53.741,0,0,1,5.43-.254c1.351,0,2.7.043,3.9.124.244.017.511.025.815.025.664,0,1.382-.038,2.142-.079C153.31.943,154.127.9,154.914.9h0a9.91,9.91,0,0,1,2.891.336c1.151.353,1.9,1.312,2.3,2.931a20.462,20.462,0,0,1,.387,4.146c.019.744.037,1.446.1,1.988.024.2.055.411.084.615.181,1.243.386,2.652-.673,3.567-.615.531-1.816.758-4.018.758-.4,0-.794-.007-1.142-.013-.291-.005-.565-.01-.8-.01-.152,0-.275,0-.376.006-1.13.047-2.308.136-3.447.221C148.492,15.575,146.7,15.71,144.965,15.71Zm-4.567-1.5a9.058,9.058,0,0,0,3.357.488c.163,0,.318,0,.465.007.24.006.491.009.744.009,1.7,0,3.47-.133,5.181-.262,1.147-.086,2.334-.176,3.481-.223.115,0,.252-.007.418-.007.241,0,.519,0,.814.01.344.006.733.013,1.125.013,1.837,0,2.969-.173,3.364-.514.644-.557.5-1.582.337-2.666-.031-.21-.062-.427-.088-.64-.07-.588-.089-1.313-.108-2.081-.063-2.488-.142-5.585-1.977-6.147a8.985,8.985,0,0,0-2.6-.292c-.761,0-1.564.043-2.341.084s-1.5.08-2.2.08c-.327,0-.615-.009-.882-.027-1.179-.079-2.505-.121-3.834-.121a52.729,52.729,0,0,0-5.326.249.764.764,0,0,0-.671.842c.169,2,.3,4.237.428,6.4C140.188,11.005,140.286,12.661,140.4,14.206Z"/><path d="M165.876,13.971a.922.922,0,0,1-.508-1.091c.468-1.882-.3-7.936-.4-9.193-.172-2.258.605-2.386,3.075-2.388,3.364,0,6.577.343,9.96-.106A44.327,44.327,0,0,1,184.284.9c2.937-.006,4.9-.353,6.955-.4,1.663-.038,1.71.72,1.973,2.206.359,2.027.277,4.116.614,6.149a14.2,14.2,0,0,1,.4,3.58c-.1,1.112.113,1.027-1.151,1.211-2.394.35-5.115.451-7.548.566a139.06,139.06,0,0,1-15.454.368,13.049,13.049,0,0,1-4.2-.611" fill="#f88b2b"/><path d="M173.917,15.2c-1.392,0-2.659-.039-3.872-.118-.116-.008-.275-.013-.459-.019a11.409,11.409,0,0,1-3.907-.632,1.426,1.426,0,0,1-.795-1.67c.362-1.454-.086-5.813-.3-7.908-.051-.5-.091-.891-.109-1.127a2.818,2.818,0,0,1,.475-2.247c.585-.632,1.561-.678,3.1-.679h.044c1.024,0,2.045.032,3.032.063.965.03,1.964.062,2.943.062A29.032,29.032,0,0,0,177.94.7a42.621,42.621,0,0,1,6.026-.3h.316c1.679,0,3.065-.122,4.287-.227C189.484.1,190.347.022,191.228,0h.128a2.078,2.078,0,0,1,1.781.713,4.047,4.047,0,0,1,.531,1.7l.037.21a29.135,29.135,0,0,1,.327,3.207c.063.974.128,1.982.288,2.948.042.255.091.515.138.766a10.694,10.694,0,0,1,.271,2.942c-.014.153-.022.281-.029.395a1.162,1.162,0,0,1-.332.938,2.043,2.043,0,0,1-1.049.3l-.167.024c-2.194.321-4.7.436-6.906.538l-.691.032c-1.086.051-2.2.113-3.274.173C179.537,15.04,176.7,15.2,173.917,15.2ZM168.09,1.8h-.043c-1.192,0-2.059.027-2.366.359-.2.221-.272.695-.211,1.491.017.223.057.61.107,1.1.238,2.316.68,6.628.277,8.251a.429.429,0,0,0,.221.511,10.633,10.633,0,0,0,3.545.55c.193.007.359.012.491.021,1.192.078,2.437.116,3.807.116,2.755,0,5.578-.158,8.308-.31,1.078-.06,2.193-.123,3.283-.174l.692-.032c2.292-.106,4.663-.215,6.808-.529l.17-.024c.2-.028.4-.057.508-.082.006-.063.012-.15.016-.229.007-.115.016-.258.031-.426a9.8,9.8,0,0,0-.258-2.666c-.048-.256-.1-.521-.141-.786-.168-1.015-.235-2.048-.3-3.047a28.386,28.386,0,0,0-.314-3.1l-.037-.212C192.455,1.273,192.407,1,191.355,1h-.105c-.849.019-1.7.092-2.6.169-1.242.106-2.649.227-4.37.231h-.317a41.85,41.85,0,0,0-5.9.287,30,30,0,0,1-4.007.235c-1,0-2-.032-2.975-.062S169.1,1.8,168.09,1.8Z"/><path d="M108.674,47.742c-1.037-2.722-.459-6.208-.681-9.146-.2-2.7-.057-3.463,2.766-3.988,4.773-.887,10.37-.262,15.266-.385.453,3.5,3.482,12.959-.433,13.534-5.3.779-10.9-.067-16.918-.015" fill="#005fbf"/><path d="M120.434,48.588c-1.766,0-3.529-.082-5.394-.169-1.888-.088-3.841-.179-5.821-.179l-.54,0a.5.5,0,0,1-.472-.322,17.243,17.243,0,0,1-.669-6.284c.014-1.056.028-2.053-.044-3a5.287,5.287,0,0,1,.32-3.107c.5-.824,1.506-1.159,2.853-1.41a35.959,35.959,0,0,1,6.651-.494c1.238,0,2.5.03,3.715.059,1.18.028,2.4.058,3.56.058.51,0,.974-.005,1.419-.017a.5.5,0,0,1,.508.436c.092.709.292,1.67.524,2.783.765,3.67,1.717,8.238.287,10.286a2.381,2.381,0,0,1-1.667,1.024A35.457,35.457,0,0,1,120.434,48.588ZM109.218,47.24c2,0,3.968.092,5.868.18,1.854.087,3.6.168,5.348.168a34.491,34.491,0,0,0,5.086-.326,1.4,1.4,0,0,0,.993-.607c1.183-1.694.2-6.4-.446-9.509-.192-.921-.363-1.739-.472-2.414-.318.005-.648.008-1,.008-1.173,0-2.4-.029-3.584-.058-1.212-.029-2.465-.059-3.691-.059a35.028,35.028,0,0,0-6.468.477c-1.284.239-1.916.514-2.183.949a4.655,4.655,0,0,0-.176,2.51c.075.994.061,2.06.047,3.091a17.917,17.917,0,0,0,.489,5.591Z"/><path d="M127.8,47.025q-.287-3.849-.573-7.7a34.206,34.206,0,0,1-.352-4.932,18.586,18.586,0,0,1,6.472.007c1.006.17.492.654.778,3.362.321,3.035.424,6.168.582,9.181a9.291,9.291,0,0,1-3.994,1.04A6.076,6.076,0,0,1,129,47.643c-.385-.094-.8.328-1.2-.618" fill="#fff600"/><path d="M130.6,48.489a4.636,4.636,0,0,1-1.287-.242c-.151-.044-.293-.085-.433-.119,0,0,0,0,0,0h-.016a1.258,1.258,0,0,0-.127.011,2.054,2.054,0,0,1-.251.019,1.277,1.277,0,0,1-1.148-.938l-.032-.076-.006-.082q-.1-1.293-.193-2.587c-.125-1.675-.255-3.407-.38-5.111-.035-.481-.1-1-.161-1.556a17.687,17.687,0,0,1-.19-3.459l.034-.358.35-.082a13.609,13.609,0,0,1,3.048-.3,22.381,22.381,0,0,1,3.622.3c1.077.182,1.082.855,1.089,1.786a19.055,19.055,0,0,0,.1,2.017c.254,2.4.373,4.869.487,7.257.031.642.063,1.305.1,1.95l.016.308-.269.153a9.669,9.669,0,0,1-4.211,1.1C130.7,48.488,130.65,48.489,130.6,48.489Zm-1.737-1.361a1.054,1.054,0,0,1,.253.029c.16.039.32.085.474.13a3.853,3.853,0,0,0,1.01.2l.081,0a9.066,9.066,0,0,0,3.508-.832c-.028-.545-.055-1.1-.08-1.637-.114-2.375-.232-4.83-.483-7.2a19.942,19.942,0,0,1-.108-2.115,3.689,3.689,0,0,0-.044-.752.818.818,0,0,0-.212-.055,21.663,21.663,0,0,0-3.455-.283,13.908,13.908,0,0,0-2.458.194,20.759,20.759,0,0,0,.21,2.884c.066.564.129,1.1.165,1.6.125,1.7.254,3.435.38,5.11q.094,1.25.187,2.5c.1.212.166.253.169.255a.151.151,0,0,0,.026,0,1.281,1.281,0,0,0,.133-.012A2.019,2.019,0,0,1,128.866,47.128Z"/><path d="M135.073,47.113q-.286-3.849-.573-7.7a34.207,34.207,0,0,1-.352-4.932c1.873-.439,3.694.175,5.571.492,1.006.171,1.393.169,1.679,2.877.321,3.035.424,6.168.582,9.181a9.292,9.292,0,0,1-3.994,1.04,6.076,6.076,0,0,1-1.713-.343c-.385-.094-.8.328-1.2-.618" fill="#fff600"/><path d="M137.875,48.577a4.636,4.636,0,0,1-1.287-.242c-.151-.044-.293-.085-.433-.119h-.016a1.258,1.258,0,0,0-.127.011,2.055,2.055,0,0,1-.251.019,1.277,1.277,0,0,1-1.148-.938l-.032-.076-.006-.082q-.1-1.293-.193-2.587c-.125-1.675-.255-3.407-.38-5.111-.035-.481-.1-1-.161-1.556a17.687,17.687,0,0,1-.19-3.459l.034-.358.35-.082a6.49,6.49,0,0,1,1.5-.166,15.105,15.105,0,0,1,3.028.412c.407.084.828.17,1.241.24l.073.012a1.791,1.791,0,0,1,1.386.715,5.914,5.914,0,0,1,.634,2.59c.254,2.4.373,4.869.488,7.258.031.642.063,1.3.1,1.95l.016.308-.269.153a9.669,9.669,0,0,1-4.211,1.1C137.97,48.576,137.923,48.577,137.875,48.577Zm-1.737-1.361a1.054,1.054,0,0,1,.253.029c.16.039.32.085.474.13a3.854,3.854,0,0,0,1.01.2l.081,0a9.066,9.066,0,0,0,3.508-.832c-.028-.545-.054-1.1-.08-1.636-.114-2.375-.232-4.83-.483-7.2a5.7,5.7,0,0,0-.467-2.135c-.116-.171-.241-.208-.724-.289l-.074-.012c-.43-.073-.86-.161-1.276-.247a14.145,14.145,0,0,0-2.827-.391,5.75,5.75,0,0,0-.909.069,20.8,20.8,0,0,0,.21,2.88c.066.564.128,1.1.165,1.6.125,1.7.254,3.435.38,5.11q.094,1.25.187,2.5c.1.212.166.253.169.255a.144.144,0,0,0,.026,0,1.282,1.282,0,0,0,.133-.012A2.018,2.018,0,0,1,136.139,47.216Z"/><path d="M162.413,46.821q-.288-3.849-.574-7.7a44.986,44.986,0,0,1-.355-4.932c1.4-.4,2.036.218,3.524.157,1.394-.06,1.829-.784,2,3.3.129,3.049.435,6.208.61,9.22a5.5,5.5,0,0,1-2.992.965,3.739,3.739,0,0,1-1.3-.374c-.292-.1-.6.313-.915-.639" fill="#fff600"/><path d="M164.568,48.336a2.927,2.927,0,0,1-1.082-.279c-.1-.041-.2-.079-.289-.112l-.045.006a1.445,1.445,0,0,1-.2.016c-.685,0-.925-.717-1.015-.986l-.02-.059-.02-.263q-.28-3.749-.559-7.5c-.036-.481-.091-1-.15-1.553a23.324,23.324,0,0,1-.206-3.443L161,33.81l.342-.1a3.811,3.811,0,0,1,1.065-.156,5.7,5.7,0,0,1,1.153.146,5.989,5.989,0,0,0,1.238.152c.061,0,.124,0,.186,0,.175-.008.337-.027.493-.046a4.125,4.125,0,0,1,.493-.041,1.183,1.183,0,0,1,1.19.933,11.741,11.741,0,0,1,.344,2.932c.075,1.774.212,3.613.345,5.391.094,1.261.192,2.565.264,3.821l.016.27-.218.161a5.94,5.94,0,0,1-3.261,1.062Zm-1.353-1.393a.831.831,0,0,1,.276.045c.126.043.25.093.369.142a2.168,2.168,0,0,0,.707.206h.03a5.158,5.158,0,0,0,2.5-.718c-.07-1.161-.16-2.36-.247-3.523-.133-1.786-.271-3.633-.347-5.424a11.514,11.514,0,0,0-.293-2.655c-.085-.253-.118-.253-.242-.253a3.426,3.426,0,0,0-.372.033c-.167.02-.356.043-.572.053-.077,0-.153,0-.228,0a6.9,6.9,0,0,1-1.434-.172,4.784,4.784,0,0,0-.957-.127,2.635,2.635,0,0,0-.438.037,27.645,27.645,0,0,0,.212,2.91c.06.559.116,1.088.153,1.585q.278,3.748.559,7.5l.01.136a1.327,1.327,0,0,0,.107.24h.006A1.424,1.424,0,0,1,163.215,46.943Z"/><path d="M141.938,47.351c-.275-3.69-.453-7.909-.755-11.5a1.263,1.263,0,0,1,1.117-1.381,58.571,58.571,0,0,1,9.246-.129c2.368.16,5.9-.508,8.129.175,2.812.862,2.135,6.14,2.435,8.647.164,1.371.584,2.877-.419,3.744-1.037.9-4.7.565-6.027.62-3.093.128-6.341.553-9.439.477a10.151,10.151,0,0,1-4.287-.657" fill="#f88b2b"/><path d="M146.981,48.517c-.262,0-.52,0-.769-.009-.142,0-.293,0-.451-.007a9.474,9.474,0,0,1-4.036-.7l-.264-.124-.022-.291c-.122-1.638-.227-3.409-.328-5.121-.127-2.152-.259-4.378-.427-6.37a1.757,1.757,0,0,1,1.564-1.92,53.768,53.768,0,0,1,5.433-.255c1.351,0,2.7.043,3.9.124.244.017.511.025.815.025.664,0,1.382-.038,2.142-.079.79-.042,1.607-.086,2.394-.086h0a9.91,9.91,0,0,1,2.891.336c1.151.353,1.9,1.312,2.3,2.931a20.461,20.461,0,0,1,.387,4.146c.019.744.037,1.446.1,1.988.024.2.055.411.084.615.181,1.243.386,2.652-.673,3.567-.615.531-1.816.758-4.018.758-.4,0-.794-.007-1.142-.013-.291-.005-.565-.01-.8-.01-.152,0-.275,0-.376.006-1.13.047-2.308.136-3.447.221C150.508,48.382,148.719,48.517,146.981,48.517Zm-4.567-1.5a9.058,9.058,0,0,0,3.357.488c.163,0,.318,0,.465.007.24.006.491.009.744.009,1.7,0,3.47-.133,5.181-.262,1.147-.086,2.334-.176,3.481-.223.115,0,.252-.007.418-.007.241,0,.519,0,.814.01.344.006.733.013,1.125.013,1.837,0,2.969-.173,3.364-.514.644-.557.5-1.582.337-2.666-.031-.21-.062-.427-.088-.64-.07-.588-.089-1.313-.108-2.081-.063-2.488-.142-5.585-1.977-6.147a8.985,8.985,0,0,0-2.6-.292c-.761,0-1.564.043-2.341.084s-1.5.08-2.2.08c-.327,0-.615-.009-.882-.027-1.177-.08-2.5-.122-3.831-.122a52.752,52.752,0,0,0-5.33.249.764.764,0,0,0-.671.842c.169,2,.3,4.236.428,6.395C142.2,43.812,142.3,45.468,142.415,47.013Z"/><path d="M167.892,46.777a.922.922,0,0,1-.508-1.091c.468-1.882-.3-7.936-.4-9.193-.172-2.258.6-2.386,3.075-2.388,3.364,0,6.577.343,9.96-.106a44.326,44.326,0,0,1,6.278-.292c2.937-.006,4.9-.353,6.955-.4,1.663-.038,1.71.72,1.973,2.206.359,2.027.277,4.116.614,6.149a14.2,14.2,0,0,1,.4,3.58c-.1,1.112.113,1.027-1.151,1.211-2.394.35-5.115.451-7.548.566a139.06,139.06,0,0,1-15.454.368,13.049,13.049,0,0,1-4.2-.611" fill="#ed323d"/><path d="M175.933,48c-1.392,0-2.659-.039-3.872-.118-.116-.008-.275-.013-.459-.019a11.409,11.409,0,0,1-3.907-.632,1.426,1.426,0,0,1-.795-1.67c.362-1.454-.086-5.813-.3-7.908-.051-.5-.091-.891-.109-1.127a2.818,2.818,0,0,1,.475-2.247c.585-.632,1.561-.678,3.1-.679h.044c1.024,0,2.045.032,3.032.063.965.03,1.964.062,2.943.062a29.031,29.031,0,0,0,3.875-.226,42.62,42.62,0,0,1,6.026-.3h.316c1.679,0,3.065-.122,4.287-.227.914-.078,1.777-.152,2.658-.172h.128a2.078,2.078,0,0,1,1.781.713,4.046,4.046,0,0,1,.531,1.7l.037.21a29.138,29.138,0,0,1,.327,3.207c.063.974.128,1.982.288,2.947.042.255.091.515.138.766a10.694,10.694,0,0,1,.271,2.942c-.014.153-.022.281-.029.395a1.162,1.162,0,0,1-.332.938,2.043,2.043,0,0,1-1.049.3l-.167.024c-2.194.321-4.7.436-6.906.539l-.691.032c-1.086.051-2.2.113-3.274.173C181.553,47.846,178.716,48,175.933,48Zm-5.827-13.4h-.043c-1.191,0-2.059.027-2.366.359-.2.221-.272.695-.211,1.491.017.223.057.61.107,1.1.238,2.316.68,6.628.277,8.251a.429.429,0,0,0,.221.511,10.633,10.633,0,0,0,3.545.55c.193.007.359.012.491.021,1.192.078,2.437.116,3.807.116,2.755,0,5.578-.158,8.308-.31,1.078-.06,2.193-.123,3.283-.174l.692-.032c2.292-.106,4.663-.215,6.808-.529l.17-.024c.2-.028.4-.057.508-.082.006-.063.012-.15.016-.229.007-.115.016-.258.031-.426a9.8,9.8,0,0,0-.258-2.666c-.048-.256-.1-.521-.141-.786-.168-1.015-.235-2.048-.3-3.047a28.385,28.385,0,0,0-.314-3.1l-.037-.212c-.228-1.31-.275-1.582-1.327-1.582h-.105c-.849.019-1.7.092-2.6.169-1.242.106-2.649.227-4.37.231h-.317a41.85,41.85,0,0,0-5.9.287,30,30,0,0,1-4.007.235c-1,0-2-.032-2.975-.062S171.114,34.6,170.106,34.6Z"/><path d="M107.719,27.838a.941.941,0,0,1-.491-1.092c.444-1.881-.312-7.935-.408-9.192-.172-2.259.573-2.384,2.944-2.378,3.229.007,6.313.362,9.558-.077,2.166-.293,3.473-.157,5.636-.388,1.981-.212,5.054.174,7.026.134,1.6-.032,1.68.328,1.937,1.815.351,2.027.278,4.115.608,6.149a14.826,14.826,0,0,1,.4,3.58c-.1,1.111.112,1.028-1.1,1.208-2.3.342-4.907.435-7.243.543a128.021,128.021,0,0,1-14.83.322,12.09,12.09,0,0,1-4.034-.624" fill="#f88b2b"/><path d="M115.653,29.091c-1.42,0-2.708-.042-3.935-.13-.11-.008-.262-.014-.437-.021a10.622,10.622,0,0,1-3.767-.647,1.43,1.43,0,0,1-.771-1.661c.344-1.457-.1-5.82-.312-7.916-.05-.5-.09-.889-.108-1.124a2.845,2.845,0,0,1,.47-2.262c.564-.609,1.488-.655,2.834-.655h.141c1,0,1.991.038,2.952.072s1.97.07,2.952.07a26.33,26.33,0,0,0,3.585-.215,29.261,29.261,0,0,1,3.088-.229c.781-.028,1.589-.056,2.562-.16a14.023,14.023,0,0,1,1.481-.067c.9,0,1.885.054,2.836.106,1.016.056,1.97.108,2.752.092l.192,0a2.039,2.039,0,0,1,1.7.552,3.515,3.515,0,0,1,.546,1.68,30.268,30.268,0,0,1,.323,3.2c.063.975.129,1.983.286,2.95.042.257.089.518.135.771a11.12,11.12,0,0,1,.267,2.931c-.013.152-.02.281-.026.395a1.161,1.161,0,0,1-.317.936,1.926,1.926,0,0,1-1.025.306l-.157.023c-2.106.314-4.508.422-6.627.518l-.666.03c-1.04.048-2.106.107-3.136.163C120.906,28.944,118.255,29.091,115.653,29.091Zm-6.028-13.415c-.979,0-1.814.025-2.1.334-.2.218-.268.7-.206,1.506.017.223.056.609.106,1.1.235,2.316.672,6.626.29,8.246a.447.447,0,0,0,.211.522,9.843,9.843,0,0,0,3.393.558c.184.007.343.013.469.022,1.2.086,2.468.127,3.864.127,2.575,0,5.212-.145,7.762-.286,1.033-.057,2.1-.116,3.145-.164l.667-.03c2.2-.1,4.47-.2,6.525-.508l.159-.023c.18-.026.365-.053.474-.078.006-.064.011-.15.015-.23.006-.115.014-.258.028-.425a10.222,10.222,0,0,0-.255-2.667c-.047-.257-.1-.524-.138-.79-.165-1.015-.232-2.047-.3-3.045a29.515,29.515,0,0,0-.311-3.1,3.356,3.356,0,0,0-.328-1.209c-.08-.1-.253-.193-.935-.193l-.172,0q-.153,0-.313,0c-.75,0-1.606-.047-2.513-.1-.938-.051-1.907-.1-2.782-.1a13.056,13.056,0,0,0-1.375.061c-1.008.108-1.834.137-2.633.165a28.048,28.048,0,0,0-2.989.221,27.3,27.3,0,0,1-3.72.224c-1,0-2.011-.036-2.988-.071-.953-.034-1.938-.069-2.919-.071Z"/><path d="M135.078,27.767c-1.037-2.722-.459-6.208-.681-9.146-.2-2.7-.373-3.444,2.5-3.524,4.66-.13,10.378-.04,15.137-.137a.834.834,0,0,1,.846.7c.656,3.853,2.789,11.582-.881,12.121-5.3.779-10.9-.067-16.918-.015" fill="#ed323d"/><path d="M146.838,28.613c-1.766,0-3.529-.082-5.394-.169-1.888-.088-3.841-.179-5.821-.179l-.54,0-.348,0-.124-.325a17.243,17.243,0,0,1-.669-6.284c.014-1.056.028-2.053-.044-3l-.022-.293c-.111-1.439-.185-2.389.387-3.024a3.568,3.568,0,0,1,2.617-.745c2.525-.07,5.4-.077,8.176-.082,2.351-.005,4.782-.01,6.965-.055h.029a1.338,1.338,0,0,1,1.32,1.117c.091.534.212,1.152.341,1.806.683,3.481,1.534,7.813.106,9.832a2.507,2.507,0,0,1-1.748,1.061A35.457,35.457,0,0,1,146.838,28.613Zm-11.215-1.349c2,0,3.968.092,5.868.18,1.854.087,3.6.168,5.348.168a34.492,34.492,0,0,0,5.086-.326A1.522,1.522,0,0,0,153,26.638c.5-.709.684-2.011.544-3.87a46.068,46.068,0,0,0-.815-5.192c-.13-.661-.252-1.285-.345-1.831a.336.336,0,0,0-.334-.285h-.008c-2.192.045-4.628.05-6.984.055-2.772.006-5.638.012-8.15.082-1.084.03-1.671.158-1.9.415-.284.316-.224,1.1-.133,2.278l.023.294c.075.994.061,2.06.046,3.091a17.918,17.918,0,0,0,.489,5.591Z"/><path d="M159.332,27.42c-.275-3.69-.453-7.909-.755-11.5a1.263,1.263,0,0,1,1.117-1.381,58.692,58.692,0,0,1,9.246-.129c2.368.16,5.9-.508,8.129.175,2.812.862,2.135,6.14,2.435,8.647.164,1.371.584,2.877-.419,3.744-1.037.9-4.7.565-6.027.62-3.093.128-6.341.553-9.439.477a10.151,10.151,0,0,1-4.287-.657" fill="#005fbf"/><path d="M164.375,28.586c-.262,0-.52,0-.769-.009-.142,0-.293,0-.451-.007a9.474,9.474,0,0,1-4.036-.7.5.5,0,0,1-.286-.415c-.122-1.638-.227-3.408-.328-5.12-.127-2.153-.259-4.378-.427-6.371a1.757,1.757,0,0,1,1.564-1.92,53.741,53.741,0,0,1,5.43-.254c1.351,0,2.7.043,3.9.124.244.017.511.025.815.025.664,0,1.382-.038,2.142-.079.79-.042,1.607-.086,2.394-.086h0a9.91,9.91,0,0,1,2.891.336c1.151.353,1.9,1.312,2.3,2.931a20.461,20.461,0,0,1,.387,4.146c.019.744.037,1.446.1,1.988.024.2.055.411.084.615.181,1.243.386,2.652-.673,3.567-.615.531-1.816.758-4.018.758-.4,0-.794-.007-1.142-.013-.291-.005-.565-.01-.8-.01-.152,0-.275,0-.376.006-1.13.047-2.308.136-3.447.221C167.9,28.451,166.113,28.586,164.375,28.586Zm-4.567-1.5a9.058,9.058,0,0,0,3.357.488c.163,0,.318,0,.465.007.24.006.491.009.744.009,1.7,0,3.47-.133,5.181-.262,1.147-.086,2.334-.176,3.481-.223.115,0,.252-.007.418-.007.241,0,.519,0,.814.01.344.006.733.013,1.125.013,1.837,0,2.969-.173,3.364-.514.644-.557.5-1.582.337-2.666-.031-.21-.062-.427-.088-.64-.07-.588-.089-1.313-.108-2.081-.063-2.488-.142-5.585-1.977-6.147a8.985,8.985,0,0,0-2.6-.292c-.761,0-1.564.043-2.341.084s-1.5.08-2.2.08c-.327,0-.615-.009-.882-.027-1.179-.079-2.505-.121-3.834-.121a52.729,52.729,0,0,0-5.326.249.764.764,0,0,0-.671.842c.169,2,.3,4.237.428,6.4C159.6,23.882,159.7,25.537,159.809,27.082Z"/><path d="M138.865,91.569c-8.95-5.843-23.932-15.968-29.322-19.817,0,0,4.282-3.989,7.014-6.78s7.3-7.212,7.3-7.212,21.674.1,27.476.057c0,0,6.886,5.235,8.786,6.342a63.91,63.91,0,0,1,6.43,5.262Z" fill="#ffe200"/><path d="M138.895,92.186l-.3-.2c-8.905-5.814-23.986-16.006-29.339-19.829l-.5-.356.448-.417c.043-.04,4.305-4.013,7-6.764s7.263-7.177,7.309-7.221l.146-.142h.2c.145,0,14.579.069,22.938.069,2.018,0,3.543,0,4.532-.012h.171l.136.1c.069.052,6.883,5.229,8.735,6.308a62.962,62.962,0,0,1,6.516,5.326l.43.394ZM110.331,71.7c5.663,4.012,19.839,13.589,28.5,19.253L165.777,69.4a55.787,55.787,0,0,0-5.911-4.806c-1.779-1.036-7.7-5.511-8.7-6.273-.992.007-2.461.011-4.369.011-7.818,0-20.945-.06-22.739-.068-.8.779-4.721,4.587-7.143,7.061C114.723,67.561,111.5,70.6,110.331,71.7Z"/><path d="M110.274,72.35l-.236-.972c4.421-1.073,9.113-1.123,13.651-1.172l1.471-.017c4.56-.059,9.137.048,13.6.32a23.121,23.121,0,0,0,2.886-.067c.805-.052,1.638-.107,2.467-.089s1.667.087,2.466.154a25.462,25.462,0,0,0,3.576.131c.424-.023.852-.042,1.266-.06a29.913,29.913,0,0,0,4.828-.472c.409-.085.809-.188,1.2-.289a13.355,13.355,0,0,1,2.432-.466,27.32,27.32,0,0,1,6.081.235l-.151.989a26.319,26.319,0,0,0-5.859-.227,12.4,12.4,0,0,0-2.254.437c-.4.1-.811.21-1.244.3a31.125,31.125,0,0,1-4.987.492c-.412.018-.837.037-1.256.06A26.61,26.61,0,0,1,146.5,71.5c-.783-.065-1.593-.133-2.4-.15-.786-.016-1.6.037-2.381.088a23.864,23.864,0,0,1-3.012.068c-4.442-.27-8.994-.377-13.53-.318l-1.474.017C119.218,71.254,114.584,71.3,110.274,72.35Z"/><path d="M138.481,91.315a9.639,9.639,0,0,1-.568-2.968,23.484,23.484,0,0,1,.062-2.979c.05-.786.1-1.6.082-2.391-.055-2.182-.117-4.656-.022-7.136a71.9,71.9,0,0,0-.264-8.206c-.119-1.552-.1-3.124-.073-4.643a46.488,46.488,0,0,0-.095-4.833l1-.09a47.233,47.233,0,0,1,.1,4.938c-.023,1.5-.046,3.045.07,4.552a72.792,72.792,0,0,1,.266,8.321c-.094,2.448-.032,4.905.022,7.073.021.837-.033,1.672-.084,2.48a22.393,22.393,0,0,0-.062,2.851,8.739,8.739,0,0,0,.5,2.659Z"/><path d="M138.38,90.654a4.735,4.735,0,0,1-1.007-1.309c-.089-.149-.173-.29-.261-.426a12.762,12.762,0,0,0-.939-1.221c-.2-.236-.4-.481-.6-.739-.446-.578-.924-1.145-1.386-1.694-.667-.791-1.356-1.61-1.976-2.489-.34-.482-.675-.982-1-1.465-.644-.961-1.311-1.955-2.033-2.83-.339-.411-.687-.822-1.023-1.219-.918-1.085-1.866-2.207-2.715-3.412-.091-.13-.185-.265-.282-.4a10.933,10.933,0,0,0-1.966-2.351l-.388-.3.294-.393c1.1-1.47,2.137-3.1,2.916-4.354a23.385,23.385,0,0,1,1.471-2.027c.411-.526.836-1.069,1.207-1.623.275-.41.557-.934.855-1.489a9.911,9.911,0,0,1,2.285-3.21l.595.8a9.346,9.346,0,0,0-2,2.88c-.31.577-.6,1.123-.906,1.573-.392.584-.828,1.142-1.25,1.682a22.3,22.3,0,0,0-1.409,1.938c-.725,1.167-1.669,2.654-2.687,4.05a14.018,14.018,0,0,1,1.8,2.252c.095.137.187.27.277.4.823,1.169,1.716,2.225,2.661,3.342.338.4.688.813,1.03,1.228.754.913,1.435,1.928,2.093,2.91.321.479.653.973.986,1.445.6.844,1.271,1.646,1.924,2.421.469.557.954,1.132,1.413,1.727.188.243.385.48.576.709a13.712,13.712,0,0,1,1.01,1.317c.1.151.192.308.282.459a3.949,3.949,0,0,0,.782,1.048Z"/><path d="M138.969,91.465l-.816-.578c.4-.567.834-1.125,1.252-1.664l.252-.326a22.76,22.76,0,0,0,1.523-2.349c.413-.7.84-1.418,1.33-2.1.987-1.376,2.057-2.683,3.091-3.946.332-.405.675-.825,1.011-1.241l.561-.693a53.576,53.576,0,0,0,3.577-4.755c.206-.319.4-.691.607-1.085A11.072,11.072,0,0,1,152.4,71c-.408-.81-.864-1.613-1.306-2.393s-.888-1.567-1.3-2.386c-.571-1.122-1.236-2.256-1.878-3.352q-.212-.363-.423-.723c-.241-.413-.469-.869-.69-1.31a10.061,10.061,0,0,0-1.566-2.516l.712-.7a10.747,10.747,0,0,1,1.749,2.771c.223.447.434.869.659,1.254q.21.36.422.721c.65,1.109,1.322,2.255,1.907,3.4.407.8.852,1.585,1.283,2.346.5.887,1.022,1.8,1.479,2.74l.151.308-.233.251a8.484,8.484,0,0,0-1.117,1.779c-.208.4-.422.807-.653,1.164a54.332,54.332,0,0,1-3.64,4.843l-.56.691c-.339.419-.683.84-1.016,1.246-1.071,1.309-2.083,2.545-3.052,3.9-.464.647-.88,1.349-1.282,2.028a23.859,23.859,0,0,1-1.592,2.45l-.253.327C139.784,90.367,139.358,90.916,138.969,91.465Z"/><path d="M176.447,71.96a1.482,1.482,0,0,1-1.513-1.4c-.121-2.556-.076-5.063-.141-7.646-.034-1.338-.058-2.421-.129-3.648a1.194,1.194,0,0,1,1.1-1.266,28.556,28.556,0,0,1,4.923.051,37.061,37.061,0,0,0,5.922-.067c1.211-.017,9.114-1.671,10.093-.449.674.842.228,4.523.261,5.52.065,1.964.124,3.831.1,5.772-.02,1.866.33,2.249-1.221,2.683-1.873.525-7.632-.146-9.557,0-4.778.364-7.536.4-9.846.449" fill="#fff600"/><path d="M176.417,72.46a1.974,1.974,0,0,1-1.982-1.877c-.073-1.549-.086-3.105-.1-4.611-.008-.994-.017-2.022-.043-3.046l-.008-.3c-.03-1.183-.056-2.205-.121-3.331a1.7,1.7,0,0,1,1.57-1.794c.761-.052,1.631-.08,2.449-.08a20.239,20.239,0,0,1,2.579.135,12.125,12.125,0,0,0,1.726.113c.7,0,1.39-.044,2.117-.091.648-.042,1.317-.085,2-.094.277,0,1.058-.121,1.963-.256a46.908,46.908,0,0,1,6.1-.643c1.322,0,2.07.2,2.423.637.573.716.526,2.53.413,4.651-.027.5-.05.931-.042,1.165.059,1.771.125,3.778.1,5.794,0,.323,0,.6.012.845a2.728,2.728,0,0,1-.192,1.465,2.133,2.133,0,0,1-1.406.849,10.225,10.225,0,0,1-2.562.223c-1.141,0-2.425-.063-3.666-.125-1.042-.051-2.025-.1-2.756-.1-.269,0-.494.007-.669.02-4.542.346-7.3.4-9.508.443l-.366.007Zm1.767-14.04c-.8,0-1.642.028-2.381.078a.7.7,0,0,0-.639.738c.066,1.142.092,2.171.122,3.363l.008.3c.026,1.032.035,2.064.043,3.063.012,1.5.025,3.043.1,4.572a.988.988,0,0,0,.983.924h.02l.367-.007c2.2-.043,4.937-.1,9.451-.44.2-.015.447-.023.745-.023.755,0,1.751.049,2.805.1,1.229.061,2.5.123,3.617.123a9.712,9.712,0,0,0,2.293-.186c.478-.134.735-.255.807-.382a2.411,2.411,0,0,0,.06-.94c-.007-.254-.016-.542-.012-.885.021-1.994-.046-3.99-.1-5.75-.009-.278.014-.708.043-1.252.039-.734.088-1.648.065-2.441-.033-1.161-.207-1.466-.26-1.532-.008-.011-.226-.262-1.642-.262a46.256,46.256,0,0,0-5.957.632c-1.017.152-1.752.262-2.1.266-.659.009-1.315.051-1.951.092-.711.046-1.446.093-2.181.093a13.11,13.11,0,0,1-1.868-.123A18.845,18.845,0,0,0,178.183,58.421Z"/><path d="M186.5,68.719a17.729,17.729,0,0,1-3.943-.552c-.438-.1-.891-.2-1.348-.283a.5.5,0,0,1,.186-.982c.471.089.932.191,1.377.289a13.432,13.432,0,0,0,5.186.421c1.265-.186,2.348-.833,2.435-1.266.054-.267-.393-.571-.588-.689-.977-.592-2.661-.589-4.291-.586a18.364,18.364,0,0,1-2.6-.111c-1.176-.176-1.953-.663-2.131-1.335-.1-.39-.05-1,.8-1.666a7.227,7.227,0,0,1,4.111-1.069,10.448,10.448,0,0,1,4.754.916.5.5,0,0,1-.453.891c-2.332-1.186-6.5-.972-7.792.047-.377.3-.479.522-.451.624.043.163.438.471,1.313.6a17.729,17.729,0,0,0,2.454.1c1.767,0,3.594-.006,4.81.731,1.032.625,1.141,1.292,1.05,1.742-.241,1.192-2.088,1.883-3.27,2.058A10.988,10.988,0,0,1,186.5,68.719Z"/><path d="M183.462,61.92a.5.5,0,0,1-.452-.716c0-.145-.031-.461-.048-.623-.012-.111-.022-.207-.028-.285a.5.5,0,0,1,1-.074c0,.062.015.154.025.252.079.73.126,1.171-.25,1.382A.5.5,0,0,1,183.462,61.92Z"/><path d="M188.005,62.046a.5.5,0,0,1-.5-.45,5.7,5.7,0,0,1,0-.885c.009-.173.018-.337.015-.5a.5.5,0,0,1,1-.014c0,.192-.007.38-.017.562a4.879,4.879,0,0,0,0,.732.5.5,0,0,1-.447.548Z"/><path d="M183.714,69.983l-.046,0a.5.5,0,0,1-.452-.543c.013-.144.011-.319.008-.505a3.422,3.422,0,0,1,.081-.994.5.5,0,0,1,.957.289,2.939,2.939,0,0,0-.038.693,6,6,0,0,1-.013.609A.5.5,0,0,1,183.714,69.983Z"/><path d="M188.644,69.848a.5.5,0,0,1-.5-.463l-.09-1.214a.5.5,0,0,1,1-.074l.09,1.214a.5.5,0,0,1-.462.536Z"/><path d="M175.238,89.373c-.234-3.137-.162-6.169-.244-9.311-.038-1.444.124-2.784.113-4.2a1.114,1.114,0,0,1,1.039-1.117c1.344-.087,2.913-.062,4.117-.04,2.827.053,4.845-.139,6.869-.163,1.211-.015,8.787-1.214,9.768.042.675.865.236,4.638.271,5.661.069,2.014.132,3.929.115,5.919-.016,1.914.335,2.307-1.216,2.75-1.873.534-7.634-.165-9.559-.018-5.792.442-8.617.4-11.273.473" fill="#fff600"/><path d="M174.775,89.886l-.035-.476c-.157-2.105-.178-4.2-.2-6.224-.01-1.016-.02-2.066-.048-3.111-.021-.8.017-1.562.055-2.3.031-.621.063-1.263.058-1.9a1.613,1.613,0,0,1,1.507-1.62c.646-.042,1.4-.062,2.3-.062.651,0,1.277.01,1.863.021.323.006.652.009.978.009,1.322,0,2.45-.049,3.54-.1.807-.035,1.568-.068,2.336-.077.248,0,.866-.069,1.583-.145,1.531-.163,3.628-.386,5.377-.386,1.805,0,2.795.236,3.208.765.569.73.526,2.584.416,4.753-.026.513-.048.956-.04,1.2.062,1.818.133,3.879.115,5.94,0,.331.006.616.013.868.039,1.309-.01,1.907-1.592,2.359a9.81,9.81,0,0,1-2.508.223c-1.155,0-2.461-.069-3.725-.135-1.056-.056-2.054-.108-2.788-.108-.255,0-.47.007-.638.019-4.561.348-7.32.4-9.537.437-.613.011-1.191.021-1.76.037Zm3.634-14.7c-.877,0-1.607.02-2.231.06a.612.612,0,0,0-.571.615c.005.667-.028,1.324-.059,1.959-.036.723-.074,1.47-.054,2.227.027,1.054.038,2.108.048,3.127.018,1.856.037,3.77.162,5.685.419-.01.846-.017,1.29-.025,2.2-.04,4.947-.089,9.479-.435.2-.015.43-.022.714-.022.76,0,1.77.053,2.84.109,1.25.066,2.544.134,3.672.134a9.278,9.278,0,0,0,2.233-.185c.477-.136.733-.261.806-.392a2.525,2.525,0,0,0,.061-.975c-.008-.26-.017-.556-.014-.906.017-2.041-.05-4-.115-5.9-.01-.285.012-.725.04-1.283.038-.753.085-1.691.061-2.5-.036-1.2-.213-1.515-.267-1.583-.03-.039-.357-.38-2.42-.38-1.7,0-3.848.229-5.271.38-.8.085-1.381.147-1.676.151-.752.009-1.507.041-2.305.076-1.1.047-2.239.1-3.583.1-.332,0-.667,0-1-.009C179.673,75.2,179.051,75.188,178.409,75.188Z"/><path d="M180.461,87.63a.5.5,0,0,1-.5-.463c-.1-1.307-.1-2.622-.092-3.894,0-.964,0-1.961-.038-2.936-.013-.3,0-.639.01-1a6.052,6.052,0,0,0-.094-1.772l-.2-.571.6-.088a37.725,37.725,0,0,1,5.352-.267c.73,0,1.485,0,2.212-.024.242-.007.484-.01.717-.013a17.126,17.126,0,0,0,1.834-.09c.1-.011.216-.03.357-.051,1.076-.163,2.007-.261,2.5.18a.5.5,0,0,1-.666.746,1.233,1.233,0,0,0-.614-.06,10.4,10.4,0,0,0-1.072.123c-.149.022-.277.042-.387.055a18.145,18.145,0,0,1-1.939.1c-.23,0-.468.006-.7.013-.74.021-1.5.023-2.238.024a41.643,41.643,0,0,0-4.682.187,10.655,10.655,0,0,1,.022,1.544c-.011.338-.021.656-.01.921.044,1,.041,2.006.039,2.981,0,1.253-.006,2.548.089,3.817a.5.5,0,0,1-.461.536Z"/><path d="M181.24,83.384q-.416,0-.833-.018a.5.5,0,0,1,.044-1,33.819,33.819,0,0,0,4.793-.25c1.04-.1,2.116-.211,3.181-.253.3-.012.631-.039.985-.069a9.535,9.535,0,0,1,3.155.074.5.5,0,0,1-.274.962,8.926,8.926,0,0,0-2.8-.039c-.366.03-.711.059-1.028.071-1.035.04-2.1.146-3.121.248C184,83.247,182.622,83.384,181.24,83.384Z"/><path d="M21.308,58.393C17.215,86.709,18.195,88.82,18.195,88.82c10.516-4.826,19.646-10,26.637-15.7,0,0,15.543,4.29,28.526,6.442s-1.452-22.484-1.452-22.484S82.083,44.893,87.541,33.938c0,0-22.14-.027-30.889,1.16,0,0-4.007-17.753-9.33-27.741L30.417,29.8S9.29,32.1,1.811,33.978s19.5,24.415,19.5,24.415" fill="#ffe200"/><path d="M17.951,89.482l-.21-.452a18.32,18.32,0,0,1-.024-4.838c.242-3.7.97-11.134,3.056-25.6-1.066-.9-5.929-5.042-10.625-9.62a83.194,83.194,0,0,1-7.236-7.823C.691,38.316-.244,36.3.056,34.987a2,2,0,0,1,1.633-1.494c7.021-1.763,26.2-3.914,28.458-4.163L47.394,6.43l.369.692c2.77,5.2,5.172,12.5,6.7,17.71,1.352,4.611,2.277,8.445,2.574,9.711,8.6-1.074,28.144-1.106,30.381-1.106h.93l-.36.722A117.791,117.791,0,0,1,78.08,49.91c-2.657,3.636-4.878,6.376-5.568,7.217a84.68,84.68,0,0,1,4.11,8.3c2.641,6.252,3.313,10.587,2,12.883a4,4,0,0,1-3.773,1.884,9.69,9.69,0,0,1-1.571-.14C61.309,78.07,47,74.227,44.948,73.668,38.385,78.984,29.7,84.091,18.4,89.274ZM47.245,8.291,30.686,30.277l-.215.023c-.211.023-21.178,2.315-28.538,4.163-.695.175-.847.51-.9.748-.155.677.182,2.151,2.669,5.326a82.239,82.239,0,0,0,7.147,7.723c5.259,5.127,10.727,9.7,10.782,9.749l.214.179-.04.276c-3.133,21.673-3.278,27.929-3.2,29.615,11.029-5.1,19.509-10.127,25.909-15.349l.2-.163.249.069c.155.043,15.667,4.308,28.475,6.431a8.692,8.692,0,0,0,1.407.126,3.032,3.032,0,0,0,2.906-1.381c1.135-1.981.427-6.126-2.047-11.987a82.984,82.984,0,0,0-4.231-8.5l-.178-.3.225-.27c.1-.119,9.757-11.729,15.2-22.317-4.234.009-22.286.107-30.008,1.155l-.454.062-.1-.447c-.01-.044-1.019-4.493-2.663-10.1A106.06,106.06,0,0,0,47.245,8.291Z"/></g></g></svg>