<?xml version="1.0" encoding="UTF-8"?>
<svg id="Layer_1" xmlns="http://www.w3.org/2000/svg" version="1.1" viewBox="0 0 800 800">
  <!-- Generator: Adobe Illustrator 29.2.1, SVG Export Plug-In . SVG Version: 2.1.0 Build 116)  -->
  <defs>
    <style>
      .st0 {
        fill: #f2ae14;
      }

      .st1 {
        fill: #0e4595;
      }
    </style>
  </defs>
  <path class="st1" d="M300.7,501.3l34.2-200.8h54.7l-34.2,200.8h-54.7ZM553.1,304.8c-10.8-4.1-27.8-8.4-49-8.4-54.1,0-92.2,27.2-92.5,66.3-.3,28.9,27.2,44.9,48,54.5,21.3,9.8,28.5,16.1,28.4,24.9-.1,13.5-17,19.6-32.7,19.6s-33.5-3-51.5-10.5l-7.1-3.2-7.7,44.9c12.8,5.6,36.4,10.5,61,10.7,57.5,0,94.9-26.9,95.3-68.6.2-22.8-14.4-40.2-45.9-54.6-19.1-9.3-30.8-15.5-30.7-24.9,0-8.3,9.9-17.3,31.3-17.3,17.9-.3,30.9,3.6,41,7.7l4.9,2.3,7.4-43.5M694,300.5h-42.3c-13.1,0-22.9,3.6-28.7,16.7l-81.3,184h57.5s9.4-24.7,11.5-30.2c6.3,0,62.1,0,70.1,0,1.6,7,6.7,30.1,6.7,30.1h50.8l-44.3-200.7h0ZM626.9,430.1c4.5-11.6,21.8-56.1,21.8-56.1-.3.5,4.5-11.6,7.3-19.2l3.7,17.3s10.5,47.9,12.7,58h-45.4ZM254.3,300.5l-53.6,136.9-5.7-27.8c-10-32.1-41.1-66.8-75.8-84.2l49,175.6h57.9c0,0,86.2-200.5,86.2-200.5h-58"/>
  <path class="st0" d="M150.7,300.5H62.4l-.7,4.2c68.7,16.6,114.1,56.8,132.9,105l-19.2-92.3c-3.3-12.7-12.9-16.5-24.8-17"/>
</svg>