<svg xmlns="http://www.w3.org/2000/svg" xmlns:xlink="http://www.w3.org/1999/xlink" width="79.677" height="92.958" viewBox="0 0 79.677 92.958"><defs><clipPath id="a"><rect width="79.677" height="92.958" transform="translate(0 0)" fill="none"/></clipPath></defs><g transform="translate(0 0)"><g clip-path="url(#a)"><path d="M12.505,13.754,67.2,5.34c.444,17.271,5.059,43.228,11.857,76.814-2.331-.128-4.691-.193-7.023-.193a140.641,140.641,0,0,0-47.71,8.632Z" fill="#fff"/><path d="M66.717,5.92c.527,17.194,5.064,42.764,11.723,75.7-2.131-.106-4.28-.16-6.407-.16a140.81,140.81,0,0,0-47.3,8.459L13.076,14.172Zm.971-1.161L11.934,13.336l11.99,77.931a141.5,141.5,0,0,1,48.109-8.806q3.806,0,7.643.229C73.462,52.023,68.065,23.084,67.688,4.759"/><path d="M.536,27.729l8.721-14.9L55.922.625c3.347,22.569,9.871,47.516,19.934,76.224-.344-.016-.7-.024-1.071-.024-11.819,0-35.943,8.189-57.357,15.487Z" fill="#fff"/><path d="M55.509,1.25c3.349,22.273,9.779,46.862,19.635,75.077l-.359,0c-11.807,0-35.687,8.074-57.01,15.34L1.072,27.8,9.583,13.262ZM56.335,0,8.931,12.4,0,27.655l17.08,65.3c23.3-7.941,46.234-15.634,57.705-15.633.633,0,1.232.023,1.793.071C67.389,51.278,60.05,25.4,56.335,0"/><path d="M51.167,67.183,39.432,22.315A2.812,2.812,0,0,0,36,20.306l-3.569.934-1.9-7.256L26.664,15l1.9,7.256-3.569.933a2.811,2.811,0,0,0-2.008,3.431L34.72,71.485a2.811,2.811,0,0,0,3.431,2.008l3.569-.933,1.139,4.353,3.87-1.012L45.59,71.547l3.569-.933a2.811,2.811,0,0,0,2.008-3.431" fill="#2eb335"/><path d="M42.859,77.413a.5.5,0,0,1-.483-.374L41.363,73.17l-3.085.807a3.308,3.308,0,0,1-4.041-2.365L22.5,26.743A3.311,3.311,0,0,1,24.866,22.7l3.085-.807L26.18,15.123a.5.5,0,0,1,.357-.61l3.87-1.012a.5.5,0,0,1,.61.357l1.771,6.772,3.085-.807a3.308,3.308,0,0,1,4.041,2.366L51.651,67.056A3.315,3.315,0,0,1,49.286,71.1L46.2,71.9l1.012,3.87a.5.5,0,0,1-.357.61L42.986,77.4A.5.5,0,0,1,42.859,77.413ZM41.72,72.06a.5.5,0,0,1,.483.374L43.216,76.3l2.9-.759-1.012-3.87a.5.5,0,0,1,.357-.61l3.569-.933a2.311,2.311,0,0,0,1.651-2.821L38.948,22.442a2.308,2.308,0,0,0-2.821-1.652l-3.569.934a.5.5,0,0,1-.61-.357l-1.771-6.772-2.9.759,1.771,6.772a.5.5,0,0,1-.357.61l-3.569.933a2.311,2.311,0,0,0-1.651,2.821L35.2,71.358a2.308,2.308,0,0,0,2.821,1.651l3.569-.933A.5.5,0,0,1,41.72,72.06Z"/><path d="M8.878,14.177l2.6,9.958L1.525,26.74Z" fill="#fff"/><path d="M8.7,15.472l2.173,8.306L2.567,25.951Zm.357-2.589L.484,27.529l11.609-3.037Z"/><path d="M29.331,24.955c-3.543.849-2.687,4.821-1.933,7.427.536,1.85.94,3.726,1.454,5.581.734,2.652,1.656,5.247,2.638,7.815.342.893,1.793.505,1.447-.4-.828-2.164-1.613-4.347-2.279-6.567-.556-1.853-.911-3.753-1.452-5.606s-2.359-6.114.524-6.805c.938-.224.541-1.671-.4-1.446" fill="#fff"/><path d="M33.252,53.629c-.02,1.251-.482,2.9.19,4.049.317.543.955.718,1.31,1.2.446.608.23,1.69.307,2.4.275,2.533.82,5.68,2.885,7.409.735.616,1.8-.439,1.06-1.06a6.364,6.364,0,0,1-1.834-3.216,15.786,15.786,0,0,1-.659-3.782,5.853,5.853,0,0,0-.3-2.206,3.246,3.246,0,0,0-1.156-1.223c-.51-.392-.45-.959-.428-1.566.024-.671.111-1.339.122-2.011a.75.75,0,0,0-1.5,0" fill="#fff"/></g></g></svg>